<?xml version="1.0" encoding="UTF-8" standalone="no"?>
<svg
   version="1.1"
   width="565"
   height="640"
   id="svg62"
   sodipodi:docname="geogebra-export.svg"
   inkscape:version="1.3.2 (091e20e, 2023-11-25, custom)"
   xmlns:inkscape="http://www.inkscape.org/namespaces/inkscape"
   xmlns:sodipodi="http://sodipodi.sourceforge.net/DTD/sodipodi-0.dtd"
   xmlns="http://www.w3.org/2000/svg"
   xmlns:svg="http://www.w3.org/2000/svg">
  <sodipodi:namedview
     id="namedview62"
     pagecolor="#ffffff"
     bordercolor="#000000"
     borderopacity="0.25"
     inkscape:showpageshadow="2"
     inkscape:pageopacity="0.0"
     inkscape:pagecheckerboard="0"
     inkscape:deskcolor="#d1d1d1"
     inkscape:zoom="1.1783626"
     inkscape:cx="574.10174"
     inkscape:cy="414.134"
     inkscape:window-width="1920"
     inkscape:window-height="1002"
     inkscape:window-x="1912"
     inkscape:window-y="-8"
     inkscape:window-maximized="1"
     inkscape:current-layer="g61" />
  <defs
     id="defs1">
    <clipPath
       id="axlycbcyiUVU">
      <path
         fill="none"
         stroke="none"
         d="M 0,0 H 1148 V 684 H 0 Z"
         id="path1" />
    </clipPath>
  </defs>
  <g
     clip-path="url(#axlycbcyiUVU)"
     id="g62">
    <g
       id="g61">
      <rect
         fill="#ffffff"
         stroke="none"
         x="-210"
         y="-30"
         width="1148"
         height="684"
         fill-opacity="1"
         id="rect1" />
      <path
         fill="none"
         stroke="#c0c0c0"
         paint-order="fill stroke markers"
         d="m -157.5,-29.5 v 684 m 0,-684 v 684 m 69,-684 v 684 m 70,-684 v 684 m 70,-684 v 684 m 70,-684 v 684 m 69,-684 v 684 m 70,-684 v 684 m 70,-684 v 684 m 69,-684 v 684 m 70,-684 v 684 m 140,-684 v 684 m 69,-684 v 684 m 70,-684 v 684 m 70,-684 v 684 m 70,-684 v 684"
         stroke-opacity="1"
         stroke-linecap="round"
         stroke-linejoin="round"
         stroke-miterlimit="10"
         id="path2" />
      <path
         fill="none"
         stroke="#c0c0c0"
         paint-order="fill stroke markers"
         d="m -199.5,-29.5 v 684 m 14,-684 v 684 m 14,-684 v 684 m 28,-684 v 684 m 14,-684 v 684 m 14,-684 v 684 m 14,-684 v 684 m 27,-684 v 684 m 14,-684 v 684 m 14,-684 v 684 m 14,-684 v 684 m 28,-684 v 684 m 14,-684 v 684 m 14,-684 v 684 m 14,-684 v 684 m 28,-684 v 684 m 14,-684 v 684 m 14,-684 v 684 m 14,-684 v 684 m 28,-684 v 684 m 14,-684 v 684 m 13,-684 v 684 m 14,-684 v 684 m 28,-684 v 684 m 14,-684 v 684 m 14,-684 v 684 m 14,-684 v 684 m 28,-684 v 684 m 14,-684 v 684 m 14,-684 v 684 m 14,-684 v 684 m 28,-684 v 684 m 14,-684 v 684 m 14,-684 v 684 m 14,-684 v 684 m 27,-684 v 684 m 14,-684 v 684 m 14,-684 v 684 m 14,-684 v 684 m 28,-684 v 684 m 14,-684 v 684 m 14,-684 v 684 m 14,-684 v 684 m 28,-684 v 684 m 14,-684 v 684 m 14,-684 v 684 m 14,-684 v 684 m 28,-684 v 684 m 14,-684 v 684 m 13,-684 v 684 m 14,-684 v 684 m 28,-684 v 684 m 14,-684 v 684 m 14,-684 v 684 m 14,-684 v 684 m 28,-684 v 684 m 14,-684 v 684 m 14,-684 v 684 m 14,-684 v 684 m 28,-684 v 684 m 14,-684 v 684 m 14,-684 v 684 m 14,-684 v 684 m 27,-684 v 684 m 14,-684 v 684 m 14,-684 v 684"
         stroke-opacity="0.235294"
         stroke-linecap="round"
         stroke-linejoin="round"
         stroke-miterlimit="10"
         id="path3" />
      <path
         fill="none"
         stroke="#c0c0c0"
         paint-order="fill stroke markers"
         d="m -209.5,3.5 h 1148 m -1148,0 h 1148 m -1148,70 h 1148 m -1148,69 h 1148 m -1148,70 h 1148 m -1148,70 h 1148 m -1148,69 h 1148 m -1148,70 h 1148 m -1148,70 h 1148 m -1148,70 h 1148"
         stroke-opacity="1"
         stroke-linecap="round"
         stroke-linejoin="round"
         stroke-miterlimit="10"
         id="path4" />
      <path
         fill="none"
         stroke="#c0c0c0"
         paint-order="fill stroke markers"
         d="m -209.5,-24.5 h 1148 m -1148,0 h 1148 m -1148,14 h 1148 m -1148,28 h 1148 m -1148,14 h 1148 m -1148,14 h 1148 m -1148,14 h 1148 m -1148,27 h 1148 m -1148,14 h 1148 m -1148,14 h 1148 m -1148,14 h 1148 m -1148,28 h 1148 m -1148,14 h 1148 m -1148,14 h 1148 m -1148,14 h 1148 m -1148,28 h 1148 m -1148,14 h 1148 m -1148,14 h 1148 m -1148,14 h 1148 m -1148,28 h 1148 m -1148,14 h 1148 m -1148,14 h 1148 m -1148,13 h 1148 m -1148,28 h 1148 m -1148,14 h 1148 m -1148,14 h 1148 m -1148,14 h 1148 m -1148,28 h 1148 m -1148,14 h 1148 m -1148,14 h 1148 m -1148,14 h 1148 m -1148,28 h 1148 m -1148,14 h 1148 m -1148,14 h 1148 m -1148,14 h 1148 m -1148,28 h 1148 m -1148,13 h 1148 m -1148,14 h 1148 m -1148,14 h 1148 m -1148,28 h 1148"
         stroke-opacity="0.235294"
         stroke-linecap="round"
         stroke-linejoin="round"
         stroke-miterlimit="10"
         id="path5" />
      <path
         fill="none"
         stroke="#252525"
         paint-order="fill stroke markers"
         d="m 539.5,-27.5 v 682"
         stroke-opacity="1"
         stroke-miterlimit="10"
         id="path6" />
      <path
         fill="none"
         stroke="#252525"
         paint-order="fill stroke markers"
         d="m 539.5,-28.5 -4,4"
         stroke-opacity="1"
         stroke-miterlimit="10"
         id="path7" />
      <path
         fill="none"
         stroke="#252525"
         paint-order="fill stroke markers"
         d="m 539.5,-28.5 4,4"
         stroke-opacity="1"
         stroke-miterlimit="10"
         id="path8" />
      <path
         fill="none"
         stroke="#252525"
         paint-order="fill stroke markers"
         d="m -209.5,630.5 h 1146"
         stroke-opacity="1"
         stroke-miterlimit="10"
         id="path9" />
      <path
         fill="none"
         stroke="#252525"
         paint-order="fill stroke markers"
         d="m 937.5,630.5 -4,-4"
         stroke-opacity="1"
         stroke-miterlimit="10"
         id="path10" />
      <path
         fill="none"
         stroke="#252525"
         paint-order="fill stroke markers"
         d="m 937.5,630.5 -4,4"
         stroke-opacity="1"
         stroke-miterlimit="10"
         id="path11" />
      <path
         fill="#000000"
         stroke="none"
         paint-order="stroke fill markers"
         d="m 165.38528,130.21636 c 0.0746,0.0648 0.13511,0.14332 0.17876,0.23028 v 0 c -0.0454,-0.0905 -0.10669,-0.16783 -0.17876,-0.23028 z m 0.18009,0.23295 v 0 c 0.0432,0.087 0.0697,0.18225 0.0767,0.28063 v 0 c -0.007,-0.0949 -0.0317,-0.19015 -0.0767,-0.28063 z m -2.62655,0.4727 -136.67174,68.33587 c -0.37048,0.18524 -0.52065,0.63574 -0.33541,1.00623 0.1314,0.26281 0.39629,0.41475 0.6714,0.41475 0.11272,0 0.22715,-0.0255 0.33483,-0.0793 l 136.67174,-68.33587 0.33541,-1.00623 v 0 z"
         fill-opacity="0.698039"
         id="path12" />
      <path
         fill="#000000"
         stroke="none"
         paint-order="stroke fill markers"
         d="m 165.1309,130.07156 -4.02492,-1.34164 c -0.39296,-0.13098 -0.8177,0.0814 -0.94868,0.47435 -0.13099,0.39295 0.0814,0.81769 0.47434,0.94868 l 4.02492,1.34164 c 0.39296,0.13099 0.8177,-0.0814 0.94868,-0.47434 0.13099,-0.39296 -0.0814,-0.8177 -0.47434,-0.94869 z m -0.8673,4.97361 1.34164,-4.02492 c 0.13099,-0.39296 -0.0814,-0.8177 -0.47434,-0.94869 -0.39296,-0.13098 -0.8177,0.0814 -0.94868,0.47435 l -1.34164,4.02492 c -0.13099,0.39296 0.0814,0.8177 0.47434,0.94868 0.39296,0.13099 0.8177,-0.0814 0.94868,-0.47434 z"
         fill-opacity="0.698039"
         id="path13" />
      <path
         fill="#000000"
         stroke="none"
         paint-order="stroke fill markers"
         d="m 164.89315,130.03291 c -0.11272,0 -0.22715,0.0255 -0.33483,0.0794 -0.37048,0.18524 -0.52065,0.63574 -0.33541,1.00623 l 157.87945,315.75889 v 0 l 1.00623,0.33541 v 0 L 323.444,446.20656 165.56455,130.44767 c -0.1314,-0.26281 -0.39629,-0.41476 -0.6714,-0.41476 z m 159.25646,318.62016 v 0 c -0.065,0.0749 -0.14392,0.13555 -0.23127,0.17923 v 0 c 0.0909,-0.0455 0.16858,-0.10691 0.23127,-0.17923 z m -0.23265,0.17991 v 0 c -0.087,0.0433 -0.18247,0.0698 -0.28098,0.0768 v 0 c 0.0951,-0.007 0.1904,-0.0317 0.28098,-0.0768 z"
         fill-opacity="0.698039"
         id="path14" />
      <path
         fill="#000000"
         stroke="none"
         paint-order="stroke fill markers"
         d="m 323.8201,447.44996 -4.02492,-1.34164 c -0.39296,-0.13098 -0.8177,0.0814 -0.94869,0.47434 -0.13098,0.39296 0.0814,0.8177 0.47435,0.94869 l 4.02492,1.34164 c 0.39296,0.13098 0.8177,-0.0814 0.94868,-0.47434 0.13099,-0.39296 -0.0814,-0.8177 -0.47434,-0.94869 z m 0.39296,-3.55058 -1.34164,4.02492 c -0.13099,0.39296 0.0814,0.8177 0.47434,0.94869 0.39296,0.13098 0.8177,-0.0814 0.94868,-0.47434 l 1.34164,-4.02493 c 0.13099,-0.39295 -0.0814,-0.81769 -0.47434,-0.94868 -0.39296,-0.13099 -0.8177,0.0814 -0.94868,0.47434 z"
         fill-opacity="0.698039"
         id="path15" />
      <path
         fill="#000000"
         stroke="none"
         paint-order="stroke fill markers"
         d="m 401.51759,408.87322 v 0 c 0.0746,0.0648 0.1351,0.14331 0.17874,0.23027 v 0 c -0.0454,-0.0905 -0.10668,-0.16782 -0.17874,-0.23027 z m 0.1803,0.23339 v 0 c 0.0431,0.0868 0.0694,0.18198 0.0765,0.28019 v 0 c -0.007,-0.0948 -0.0316,-0.18984 -0.0765,-0.28019 z m -2.62678,0.47225 -75.82359,37.91179 c -0.37048,0.18525 -0.52065,0.63575 -0.33541,1.00623 0.1314,0.26281 0.39629,0.41476 0.6714,0.41476 0.11272,0 0.22715,-0.0255 0.33483,-0.0793 l 75.82359,-37.9118 v 0 l 0.33541,-1.00623 -1.00623,-0.33541 z"
         fill-opacity="0.698039"
         id="path16" />
      <path
         fill="#000000"
         stroke="none"
         paint-order="stroke fill markers"
         d="m 400.31451,409.20276 -1.34164,4.02492 c -0.13098,0.39296 0.0814,0.8177 0.47434,0.94868 0.39296,0.13099 0.8177,-0.0814 0.94869,-0.47434 l 1.34164,-4.02492 c 0.13098,-0.39296 -0.0814,-0.8177 -0.47434,-0.94869 -0.39296,-0.13098 -0.8177,0.0814 -0.94869,0.47435 z m -3.55058,-0.39296 4.02492,1.34164 c 0.39296,0.13099 0.8177,-0.0814 0.94869,-0.47434 0.13098,-0.39296 -0.0814,-0.8177 -0.47434,-0.94869 l -4.02493,-1.34164 c -0.39295,-0.13098 -0.81769,0.0814 -0.94868,0.47435 -0.13099,0.39295 0.0814,0.81769 0.47434,0.94868 z"
         fill-opacity="0.698039"
         id="path17" />
      <path
         fill="#000000"
         stroke="none"
         paint-order="stroke fill markers"
         d="m 401.02544,408.68976 c -0.11272,0 -0.22715,0.0255 -0.33483,0.0794 -0.37048,0.18524 -0.52065,0.63574 -0.33541,1.00623 l 71.1017,142.20338 v 0 l 1.00623,0.33541 0.33541,-1.00623 -71.1017,-142.20338 c -0.1314,-0.26281 -0.39628,-0.41476 -0.6714,-0.41476 z m 72.47871,145.06466 c -0.065,0.0749 -0.14392,0.13554 -0.23127,0.17922 0.0909,-0.0455 0.16858,-0.10691 0.23127,-0.17922 z m -0.23283,0.18 v 0 c -0.087,0.0432 -0.18236,0.0697 -0.2808,0.0767 v 0 c 0.095,-0.007 0.19027,-0.0317 0.2808,-0.0767 z"
         fill-opacity="0.698039"
         id="path18" />
      <path
         fill="#000000"
         stroke="none"
         paint-order="stroke fill markers"
         d="m 473.17464,552.55131 -4.02492,-1.34165 c -0.39296,-0.13098 -0.8177,0.0814 -0.94869,0.47435 -0.13098,0.39295 0.0814,0.81769 0.47435,0.94868 l 4.02492,1.34164 c 0.39296,0.13099 0.8177,-0.0814 0.94868,-0.47434 0.13099,-0.39296 -0.0814,-0.8177 -0.47434,-0.94868 z m 0.39296,-3.55059 -1.34164,4.02493 c -0.13099,0.39295 0.0814,0.81769 0.47434,0.94868 0.39296,0.13099 0.8177,-0.0814 0.94868,-0.47434 l 1.34164,-4.02492 c 0.13099,-0.39296 -0.0814,-0.8177 -0.47434,-0.94869 -0.39296,-0.13098 -0.8177,0.0814 -0.94868,0.47434 z"
         fill-opacity="0.698039"
         id="path19" />
      <path
         fill="#000000"
         stroke="none"
         paint-order="stroke fill markers"
         d="m 495.61699,541.60214 c 0.0746,0.0648 0.13509,0.14331 0.17873,0.23027 v 0 c -0.0454,-0.0905 -0.10668,-0.16781 -0.17873,-0.23027 z m 0.18037,0.23355 c 0.043,0.0868 0.0694,0.18188 0.0764,0.28003 v 0 c -0.007,-0.0947 -0.0316,-0.18973 -0.0764,-0.28003 z m -2.62686,0.47209 -20.56844,10.28422 c -0.37048,0.18524 -0.52065,0.63574 -0.33541,1.00623 0.1314,0.26281 0.39629,0.41475 0.6714,0.41475 0.11272,0 0.22715,-0.0255 0.33483,-0.0793 l 20.56844,-10.28422 0.33541,-1.00623 v 0 z"
         fill-opacity="0.698039"
         id="path20" />
      <path
         fill="#000000"
         stroke="none"
         paint-order="stroke fill markers"
         d="m 494.4139,541.93167 -1.34164,4.02493 c -0.13098,0.39295 0.0814,0.81769 0.47434,0.94868 0.39296,0.13099 0.8177,-0.0814 0.94869,-0.47434 l 1.34164,-4.02492 c 0.13098,-0.39296 -0.0814,-0.8177 -0.47434,-0.94869 -0.39296,-0.13098 -0.8177,0.0814 -0.94869,0.47434 z m -3.55058,-0.39295 4.02492,1.34164 c 0.39296,0.13098 0.8177,-0.0814 0.94869,-0.47434 0.13098,-0.39296 -0.0814,-0.8177 -0.47434,-0.94869 l -4.02493,-1.34164 c -0.39295,-0.13098 -0.81769,0.0814 -0.94868,0.47434 -0.13099,0.39296 0.0814,0.8177 0.47434,0.94869 z"
         fill-opacity="0.698039"
         id="path21" />
      <path
         fill="#000000"
         stroke="none"
         paint-order="stroke fill markers"
         d="m 495.12483,541.41868 c -0.11271,0 -0.22715,0.0255 -0.33482,0.0793 -0.37049,0.18525 -0.52066,0.63575 -0.33542,1.00624 l 43.49512,86.99022 1.00623,0.33541 v 0 l 0.33541,-1.00623 -43.49511,-86.99023 c -0.13141,-0.2628 -0.39629,-0.41475 -0.67141,-0.41475 z m 44.87213,89.85149 c -0.065,0.0749 -0.14391,0.13555 -0.23127,0.17923 v 0 c 0.0909,-0.0455 0.16859,-0.10691 0.23127,-0.17923 z m -0.2329,0.18004 c -0.087,0.0432 -0.18231,0.0697 -0.28072,0.0767 h -10e-6 c 0.095,-0.007 0.19022,-0.0317 0.28073,-0.0767 z"
         fill-opacity="0.698039"
         id="path22" />
      <path
         fill="#000000"
         stroke="none"
         paint-order="stroke fill markers"
         d="m 540.14179,631.01575 1.34164,-4.02493 c 0.13099,-0.39295 -0.0814,-0.81769 -0.47434,-0.94868 -0.39296,-0.13098 -0.8177,0.0814 -0.94868,0.47434 l -1.34164,4.02492 c -0.13099,0.39296 0.0814,0.8177 0.47434,0.94869 0.39296,0.13098 0.8177,-0.0814 0.94868,-0.47434 z m -4.9736,-0.8673 4.02492,1.34164 c 0.39296,0.13098 0.8177,-0.0814 0.94868,-0.47434 0.13099,-0.39296 -0.0814,-0.8177 -0.47434,-0.94869 l -4.02492,-1.34164 c -0.39296,-0.13098 -0.8177,0.0814 -0.94868,0.47434 -0.13099,0.39296 0.0814,0.8177 0.47434,0.94869 z"
         fill-opacity="0.698039"
         id="path23" />
      <path
         fill="#ff8000"
         stroke="none"
         paint-order="stroke fill markers"
         d="m 362.52579,30.569506 -5.54426,2.772127 1.11804,2.236068 5.54425,-2.772127 0.55902,-1.677051 z m -12.69967,6.349836 -9.39149,4.695743 1.11803,2.236068 9.39149,-4.695743 z m -16.54691,8.273451 -9.39148,4.695743 1.11803,2.236068 9.39149,-4.695743 z m -16.5469,8.273452 -9.39149,4.695743 1.11804,2.236068 9.39148,-4.695743 z m -16.5469,8.273451 -9.39149,4.695743 1.11804,2.236068 9.39148,-4.695743 z m -16.54691,8.273454 -9.39148,4.69574 1.11803,2.23607 9.39149,-4.69574 z m -16.5469,8.27345 -9.39148,4.69574 1.11803,2.23607 9.39148,-4.69574 z m -16.5469,8.27345 -9.39149,4.69574 1.11804,2.23607 9.39148,-4.69574 z m -16.54691,8.27345 -9.39148,4.69575 1.11803,2.23606 9.39149,-4.69574 z m -16.5469,8.27345 -9.39148,4.69575 1.11803,2.23606 9.39149,-4.69574 z m -16.5469,8.27346 -9.39149,4.69574 1.11804,2.23607 9.39148,-4.69575 z m -16.5469,8.27345 -9.39149,4.69574 1.11803,2.23607 9.39149,-4.69574 z m -16.54691,8.27345 -9.39148,4.69574 1.11803,2.23607 9.39149,-4.69574 z m -16.5469,8.27345 -9.39149,4.69574 1.11804,2.23607 9.39148,-4.69574 z m -16.5469,8.27345 -9.39149,4.69574 1.11804,2.23607 9.39148,-4.69574 z m -16.54691,8.27345 -9.39148,4.69575 1.11803,2.23606 9.39149,-4.69574 z m -16.5469,8.27345 -9.39148,4.69575 1.11803,2.23607 9.39148,-4.69575 z m -16.5469,8.27346 -9.39149,4.69574 1.11804,2.23607 9.39148,-4.69575 z m -16.54691,8.27345 -9.39148,4.69574 1.11803,2.23607 9.39149,-4.69574 z m -16.5469,8.27345 -9.39148,4.69574 1.11803,2.23607 9.39149,-4.69574 z m -16.5469,8.27345 -9.39149,4.69574 1.11804,2.23607 9.39148,-4.69574 z"
         fill-opacity="0.698039"
         id="path24" />
      <path
         fill="#ff8000"
         stroke="none"
         paint-order="stroke fill markers"
         d="m 364.59812,29.942669 -2.23607,6.708204 c -0.2183,0.654929 0.13565,1.362829 0.79057,1.581139 0.65493,0.21831 1.36283,-0.13564 1.58114,-0.790569 l 2.23607,-6.708204 c 0.21831,-0.654929 -0.13564,-1.362829 -0.79057,-1.581139 -0.65493,-0.21831 -1.36283,0.13564 -1.58114,0.790569 z m -5.91763,-0.654929 6.7082,2.236068 c 0.65493,0.21831 1.36283,-0.13564 1.58114,-0.790569 0.21831,-0.654929 -0.13564,-1.362829 -0.79057,-1.581139 l -6.7082,-2.236068 c -0.65493,-0.21831 -1.36283,0.13564 -1.58114,0.790569 -0.21831,0.654929 0.13564,1.362829 0.79057,1.581139 z"
         fill-opacity="0.698039"
         id="path25" />
      <path
         fill="#ff8000"
         stroke="none"
         paint-order="stroke fill markers"
         d="m 366.98477,29.990687 -2.40159,0.694534 2.91705,10.086667 2.40159,-0.694535 z m 5.13956,17.771746 -2.40159,0.694535 2.91704,10.086666 2.40159,-0.694534 z m 5.13955,17.771746 -2.40159,0.694535 2.91705,10.086666 2.40159,-0.69453 z m 5.13956,17.771751 -2.40159,0.69453 2.91705,10.08667 2.40158,-0.69454 z m 5.13955,17.77174 -2.40158,0.69454 2.91704,10.08666 2.40159,-0.69453 z m 5.13956,17.77175 -2.40159,0.69453 2.91705,10.08667 2.40158,-0.69454 z m 5.13956,17.77174 -2.40159,0.69454 2.91704,10.08667 2.40159,-0.69454 z m 5.13955,17.77175 -2.40159,0.69454 2.91705,10.08666 2.40159,-0.69453 z m 5.13956,17.77175 -2.40159,0.69453 2.91704,10.08667 2.40159,-0.69454 z m 5.13955,17.77174 -2.40158,0.69454 2.91704,10.08666 2.40159,-0.69453 z m 5.13956,17.77175 -2.40159,0.69453 2.91705,10.08667 2.40158,-0.69453 z m 5.13955,17.77175 -2.40158,0.69453 2.91704,10.08667 2.40159,-0.69454 z m 5.13956,17.77174 -2.40159,0.69454 2.91705,10.08666 2.40158,-0.69453 z m 5.13956,17.77175 -2.40159,0.69453 2.91704,10.08667 2.40159,-0.69453 z m 5.13955,17.77174 -2.40159,0.69454 2.91705,10.08667 2.40159,-0.69454 z m 5.13956,17.77175 -2.40159,0.69454 2.91704,10.08666 2.40159,-0.69453 z m 5.13955,17.77175 -2.40158,0.69453 2.91704,10.08667 2.40159,-0.69454 z m 5.13956,17.77174 -2.40159,0.69454 2.91705,10.08667 2.40158,-0.69454 z m 5.13955,17.77175 -2.40158,0.69453 2.91704,10.08667 2.40159,-0.69453 z m 5.13956,17.77175 -2.40159,0.69453 2.91705,10.08667 2.40159,-0.69454 z m 5.13956,17.77174 -2.40159,0.69454 2.91704,10.08666 2.40159,-0.69453 z m 5.13955,17.77175 -2.40159,0.69453 2.91705,10.08667 2.40159,-0.69453 z m 5.13956,17.77175 -2.40159,0.69453 2.91705,10.08667 2.40158,-0.69454 z m 5.13955,17.77174 -2.40158,0.69454 2.91704,10.08666 2.40159,-0.69453 z m 5.13956,17.77175 -2.40159,0.69453 2.91705,10.08667 2.40158,-0.69454 z m 5.13955,17.77174 -2.40158,0.69454 2.91704,10.08667 2.40159,-0.69454 z m 5.13956,17.77175 -2.40159,0.69454 2.91705,10.08666 2.40159,-0.69453 z m 5.13956,17.77175 -2.40159,0.69453 2.91704,10.08667 2.40159,-0.69454 z m 5.13955,17.77174 -2.40159,0.69454 2.91705,10.08666 2.40159,-0.69453 z m 5.13956,17.77175 -2.40159,0.69453 2.91705,10.08667 2.40158,-0.69453 z m 5.13955,17.77175 -2.40158,0.69453 2.91704,10.08667 2.40159,-0.69454 z m 5.13956,17.77174 -2.40159,0.69454 2.91705,10.08666 2.40158,-0.69453 z m 5.13956,17.77175 -2.40159,0.69453 2.91704,10.08667 2.40159,-0.69453 z m 5.13955,17.77174 -2.40159,0.69454 2.91705,10.08667 2.40159,-0.69454 z"
         fill-opacity="0.698039"
         id="path26" />
      <path
         fill="#ff8000"
         stroke="none"
         paint-order="stroke fill markers"
         d="m 540.03382,629.68393 -6.19225,-3.4141 c -0.60455,-0.33333 -1.36485,-0.11345 -1.69818,0.49111 -0.33332,0.60455 -0.11344,1.36485 0.49111,1.69817 l 6.19225,3.41411 c 0.60455,0.33332 1.36485,0.11345 1.69818,-0.49111 0.33332,-0.60456 0.11344,-1.36486 -0.49111,-1.69818 z m 1.71592,-5.70113 -3.4141,6.19224 c -0.33333,0.60456 -0.11345,1.36486 0.49111,1.69818 0.60455,0.33332 1.36485,0.11345 1.69818,-0.49111 l 3.4141,-6.19224 c 0.33332,-0.60456 0.11345,-1.36486 -0.49111,-1.69818 -0.60455,-0.33333 -1.36486,-0.11345 -1.69818,0.49111 z"
         fill-opacity="0.698039"
         id="path27" />
      <path
         fill="#800000"
         stroke="none"
         paint-order="stroke fill markers"
         d="m 542.43028,630.77858 c 0,1.65685 -1.34314,3 -3,3 -1.65685,0 -3,-1.34315 -3,-3 0,-1.65686 1.34315,-3 3,-3 1.65686,0 3,1.34314 3,3 z"
         fill-opacity="1"
         id="path28" />
      <g
         transform="matrix(19,0,0,19,-210,-30)"
         id="g31">
        <g
           transform="translate(39.907605,34.029789)"
           id="g29">
          <path
             fill="#800000"
             stroke="none"
             paint-order="stroke fill markers"
             d="m 0.537,-0.595 h -0.32 q -0.031,0 -0.034,-0.014 -0.001,-0.003 -0.001,-0.006 0.006,-0.02 0.035,-0.02 h 0.337 q -0.02,-0.026 -0.024,-0.058 0,-0.016 0.014,-0.02 0.003,-0.001 0.006,-0.001 0.015,0 0.02,0.022 0.013,0.038 0.041,0.057 0.014,0.01 0.014,0.02 0,0.011 -0.017,0.021 -0.045,0.022 -0.079,0.065 -0.011,0.013 -0.019,0.013 -0.014,0 -0.019,-0.014 -0.001,-0.003 -0.001,-0.006 0,-0.016 0.047,-0.059 z"
             id="path29" />
        </g>
        <g
           transform="translate(39.842105,34.292789)"
           id="g30">
          <path
             fill="#800000"
             stroke="none"
             paint-order="stroke fill markers"
             d="M 0.028,0.169 0.18,-0.437 q 0.029,-0.114 0.112,-0.194 0.078,-0.074 0.164,-0.074 0.083,0 0.119,0.066 0.015,0.028 0.015,0.062 0,0.075 -0.062,0.138 -0.021,0.021 -0.046,0.036 0.067,0.046 0.067,0.139 0,0.103 -0.08,0.188 Q 0.392,0.005 0.296,0.012 H 0.283 q -0.097,0 -0.142,-0.075 -0.012,-0.02 -0.018,-0.042 L 0.048,0.188 0.047,0.19 q -0.004,0.004 -0.01,0.004 -0.012,0 -0.012,-0.01 0,-0.003 0.003,-0.015 m 0.3,-0.57 q 0.017,0.006 0.043,0.006 0.03,0 0.048,-0.008 -0.013,-0.006 -0.04,-0.006 -0.035,0 -0.051,0.008 M 0.45,-0.421 Q 0.511,-0.467 0.525,-0.577 V -0.578 -0.58 q 0.002,-0.014 0.002,-0.022 0,-0.071 -0.058,-0.08 -0.007,-0.001 -0.014,-0.001 -0.083,0 -0.156,0.077 -0.069,0.072 -0.099,0.19 l -0.046,0.185 q -0.013,0.052 -0.013,0.075 0,0.082 0.059,0.122 0.034,0.024 0.081,0.024 0.078,0 0.134,-0.084 0.007,-0.009 0.012,-0.019 0.035,-0.066 0.047,-0.161 0.002,-0.017 0.002,-0.028 0,-0.053 -0.03,-0.084 -0.032,0.013 -0.075,0.013 -0.068,0 -0.068,-0.026 0,-0.032 0.078,-0.032 0.041,0 0.069,0.01 z"
             id="path30" />
        </g>
      </g>
      <path
         fill="#000080"
         stroke="none"
         paint-order="stroke fill markers"
         d="m 29.60249,199.9287 c 0,1.65685 -1.34315,3 -3,3 -1.65685,0 -3,-1.34315 -3,-3 0,-1.65686 1.34315,-3 3,-3 1.65685,0 3,1.34314 3,3 z"
         fill-opacity="1"
         id="path31" />
      <g
         transform="matrix(19,0,0,19,-210,-30)"
         id="g35">
        <g
           transform="translate(11.276026,11.556105)"
           id="g32">
          <path
             fill="#000080"
             stroke="none"
             paint-order="stroke fill markers"
             d="m 0.537,-0.595 h -0.32 q -0.031,0 -0.034,-0.014 -0.001,-0.003 -0.001,-0.006 0.006,-0.02 0.035,-0.02 h 0.337 q -0.02,-0.026 -0.024,-0.058 0,-0.016 0.014,-0.02 0.003,-0.001 0.006,-0.001 0.015,0 0.02,0.022 0.013,0.038 0.041,0.057 0.014,0.01 0.014,0.02 0,0.011 -0.017,0.021 -0.045,0.022 -0.079,0.065 -0.011,0.013 -0.019,0.013 -0.014,0 -0.019,-0.014 -0.001,-0.003 -0.001,-0.006 0,-0.016 0.047,-0.059 z"
             id="path32" />
        </g>
        <g
           transform="translate(11.210526,11.819105)"
           id="g33">
          <path
             fill="#000080"
             stroke="none"
             paint-order="stroke fill markers"
             d="M 0.028,0.169 0.18,-0.437 q 0.029,-0.114 0.112,-0.194 0.078,-0.074 0.164,-0.074 0.083,0 0.119,0.066 0.015,0.028 0.015,0.062 0,0.075 -0.062,0.138 -0.021,0.021 -0.046,0.036 0.067,0.046 0.067,0.139 0,0.103 -0.08,0.188 Q 0.392,0.005 0.296,0.012 H 0.283 q -0.097,0 -0.142,-0.075 -0.012,-0.02 -0.018,-0.042 L 0.048,0.188 0.047,0.19 q -0.004,0.004 -0.01,0.004 -0.012,0 -0.012,-0.01 0,-0.003 0.003,-0.015 m 0.3,-0.57 q 0.017,0.006 0.043,0.006 0.03,0 0.048,-0.008 -0.013,-0.006 -0.04,-0.006 -0.035,0 -0.051,0.008 M 0.45,-0.421 Q 0.511,-0.467 0.525,-0.577 V -0.578 -0.58 q 0.002,-0.014 0.002,-0.022 0,-0.071 -0.058,-0.08 -0.007,-0.001 -0.014,-0.001 -0.083,0 -0.156,0.077 -0.069,0.072 -0.099,0.19 l -0.046,0.185 q -0.013,0.052 -0.013,0.075 0,0.082 0.059,0.122 0.034,0.024 0.081,0.024 0.078,0 0.134,-0.084 0.007,-0.009 0.012,-0.019 0.035,-0.066 0.047,-0.161 0.002,-0.017 0.002,-0.028 0,-0.053 -0.03,-0.084 -0.032,0.013 -0.075,0.013 -0.068,0 -0.068,-0.026 0,-0.032 0.078,-0.032 0.041,0 0.069,0.01 z"
             id="path33" />
        </g>
        <g
           transform="matrix(0.7,0,0,0.7,11.776526,12.048105)"
           id="g34">
          <path
             fill="#000080"
             stroke="none"
             paint-order="stroke fill markers"
             d="m 0.46,-0.32 q 0,0.146 -0.037,0.226 Q 0.364,0.018 0.249,0.022 0.158,0.022 0.103,-0.05 0.092,-0.063 0.084,-0.079 0.039,-0.162 0.039,-0.32 q 0,-0.147 0.037,-0.227 0.05,-0.112 0.162,-0.119 H 0.25 q 0.089,0 0.145,0.071 v 0.001 q 0.014,0.018 0.025,0.04 0.04,0.085 0.04,0.234 M 0.249,0 v 0 q 0.063,0 0.097,-0.061 0.014,-0.027 0.02,-0.064 0.011,-0.064 0.011,-0.207 0,-0.139 -0.01,-0.195 -0.018,-0.095 -0.092,-0.114 -0.013,-0.003 -0.026,-0.003 -0.07,0 -0.102,0.07 -0.011,0.024 -0.017,0.058 -0.008,0.054 -0.008,0.184 0,0.151 0.011,0.211 0.018,0.096 0.088,0.117 Q 0.235,0 0.249,0 Z"
             id="path34" />
        </g>
      </g>
      <path
         fill="#000080"
         stroke="none"
         paint-order="stroke fill markers"
         d="m 167.89373,130.78308 c 0,1.65685 -1.34315,3 -3,3 -1.65685,0 -3,-1.34315 -3,-3 0,-1.65686 1.34315,-3 3,-3 1.65685,0 3,1.34314 3,3 z"
         fill-opacity="1"
         id="path35" />
      <g
         transform="matrix(19,0,0,19,-210,-30)"
         id="g39">
        <g
           transform="translate(18.960237,9.9245263)"
           id="g36">
          <path
             fill="#000080"
             stroke="none"
             paint-order="stroke fill markers"
             d="m 0.537,-0.595 h -0.32 q -0.031,0 -0.034,-0.014 -0.001,-0.003 -0.001,-0.006 0.006,-0.02 0.035,-0.02 h 0.337 q -0.02,-0.026 -0.024,-0.058 0,-0.016 0.014,-0.02 0.003,-0.001 0.006,-0.001 0.015,0 0.02,0.022 0.013,0.038 0.041,0.057 0.014,0.01 0.014,0.02 0,0.011 -0.017,0.021 -0.045,0.022 -0.079,0.065 -0.011,0.013 -0.019,0.013 -0.014,0 -0.019,-0.014 -0.001,-0.003 -0.001,-0.006 0,-0.016 0.047,-0.059 z"
             id="path36" />
        </g>
        <g
           transform="translate(18.894737,10.187526)"
           id="g37">
          <path
             fill="#000080"
             stroke="none"
             paint-order="stroke fill markers"
             d="M 0.028,0.169 0.18,-0.437 q 0.029,-0.114 0.112,-0.194 0.078,-0.074 0.164,-0.074 0.083,0 0.119,0.066 0.015,0.028 0.015,0.062 0,0.075 -0.062,0.138 -0.021,0.021 -0.046,0.036 0.067,0.046 0.067,0.139 0,0.103 -0.08,0.188 Q 0.392,0.005 0.296,0.012 H 0.283 q -0.097,0 -0.142,-0.075 -0.012,-0.02 -0.018,-0.042 L 0.048,0.188 0.047,0.19 q -0.004,0.004 -0.01,0.004 -0.012,0 -0.012,-0.01 0,-0.003 0.003,-0.015 m 0.3,-0.57 q 0.017,0.006 0.043,0.006 0.03,0 0.048,-0.008 -0.013,-0.006 -0.04,-0.006 -0.035,0 -0.051,0.008 M 0.45,-0.421 Q 0.511,-0.467 0.525,-0.577 V -0.578 -0.58 q 0.002,-0.014 0.002,-0.022 0,-0.071 -0.058,-0.08 -0.007,-0.001 -0.014,-0.001 -0.083,0 -0.156,0.077 -0.069,0.072 -0.099,0.19 l -0.046,0.185 q -0.013,0.052 -0.013,0.075 0,0.082 0.059,0.122 0.034,0.024 0.081,0.024 0.078,0 0.134,-0.084 0.007,-0.009 0.012,-0.019 0.035,-0.066 0.047,-0.161 0.002,-0.017 0.002,-0.028 0,-0.053 -0.03,-0.084 -0.032,0.013 -0.075,0.013 -0.068,0 -0.068,-0.026 0,-0.032 0.078,-0.032 0.041,0 0.069,0.01 z"
             id="path37" />
        </g>
        <g
           transform="matrix(0.7,0,0,0.7,19.460737,10.416526)"
           id="g38">
          <path
             fill="#000080"
             stroke="none"
             paint-order="stroke fill markers"
             d="m 0.294,-0.64 v 0.561 q 0,0.03 0.012,0.038 0.017,0.01 0.081,0.01 H 0.419 V 0 Q 0.384,-0.003 0.257,-0.003 0.13,-0.003 0.095,0 v -0.031 h 0.032 q 0.077,0 0.088,-0.018 L 0.216,-0.05 Q 0.22,-0.058 0.22,-0.079 v -0.518 q -0.052,0.026 -0.131,0.026 v -0.031 q 0.12,0 0.182,-0.064 0.019,0 0.022,0.007 v 0 0.001 q 0.001,0.003 0.001,0.018 z"
             id="path38" />
        </g>
      </g>
      <path
         fill="#000080"
         stroke="none"
         paint-order="stroke fill markers"
         d="m 326.58293,448.16147 c 0,1.65686 -1.34315,3 -3,3 -1.65685,0 -3,-1.34314 -3,-3 0,-1.65685 1.34315,-3 3,-3 1.65685,0 3,1.34315 3,3 z"
         fill-opacity="1"
         id="path39" />
      <g
         transform="matrix(19,0,0,19,-202,-30)"
         id="g43">
        <g
           transform="translate(26.276026,25.608737)"
           id="g40">
          <path
             fill="#000080"
             stroke="none"
             paint-order="stroke fill markers"
             d="m 0.537,-0.595 h -0.32 q -0.031,0 -0.034,-0.014 -0.001,-0.003 -0.001,-0.006 0.006,-0.02 0.035,-0.02 h 0.337 q -0.02,-0.026 -0.024,-0.058 0,-0.016 0.014,-0.02 0.003,-0.001 0.006,-0.001 0.015,0 0.02,0.022 0.013,0.038 0.041,0.057 0.014,0.01 0.014,0.02 0,0.011 -0.017,0.021 -0.045,0.022 -0.079,0.065 -0.011,0.013 -0.019,0.013 -0.014,0 -0.019,-0.014 -0.001,-0.003 -0.001,-0.006 0,-0.016 0.047,-0.059 z"
             id="path40" />
        </g>
        <g
           transform="translate(26.210526,25.871737)"
           id="g41">
          <path
             fill="#000080"
             stroke="none"
             paint-order="stroke fill markers"
             d="M 0.028,0.169 0.18,-0.437 q 0.029,-0.114 0.112,-0.194 0.078,-0.074 0.164,-0.074 0.083,0 0.119,0.066 0.015,0.028 0.015,0.062 0,0.075 -0.062,0.138 -0.021,0.021 -0.046,0.036 0.067,0.046 0.067,0.139 0,0.103 -0.08,0.188 Q 0.392,0.005 0.296,0.012 H 0.283 q -0.097,0 -0.142,-0.075 -0.012,-0.02 -0.018,-0.042 L 0.048,0.188 0.047,0.19 q -0.004,0.004 -0.01,0.004 -0.012,0 -0.012,-0.01 0,-0.003 0.003,-0.015 m 0.3,-0.57 q 0.017,0.006 0.043,0.006 0.03,0 0.048,-0.008 -0.013,-0.006 -0.04,-0.006 -0.035,0 -0.051,0.008 M 0.45,-0.421 Q 0.511,-0.467 0.525,-0.577 V -0.578 -0.58 q 0.002,-0.014 0.002,-0.022 0,-0.071 -0.058,-0.08 -0.007,-0.001 -0.014,-0.001 -0.083,0 -0.156,0.077 -0.069,0.072 -0.099,0.19 l -0.046,0.185 q -0.013,0.052 -0.013,0.075 0,0.082 0.059,0.122 0.034,0.024 0.081,0.024 0.078,0 0.134,-0.084 0.007,-0.009 0.012,-0.019 0.035,-0.066 0.047,-0.161 0.002,-0.017 0.002,-0.028 0,-0.053 -0.03,-0.084 -0.032,0.013 -0.075,0.013 -0.068,0 -0.068,-0.026 0,-0.032 0.078,-0.032 0.041,0 0.069,0.01 z"
             id="path41" />
        </g>
        <g
           transform="matrix(0.7,0,0,0.7,26.776526,26.100737)"
           id="g42">
          <path
             fill="#000080"
             stroke="none"
             paint-order="stroke fill markers"
             d="m 0.449,-0.174 v 0 L 0.421,0 H 0.05 q 0,-0.025 0.006,-0.032 l 0.005,-0.005 0.192,-0.214 q 0.105,-0.118 0.105,-0.221 0,-0.089 -0.054,-0.135 L 0.303,-0.608 H 0.302 Q 0.27,-0.635 0.224,-0.635 q -0.072,0 -0.115,0.062 -0.012,0.018 -0.02,0.04 0.003,-0.001 0.013,-0.001 0.04,0 0.051,0.036 v 0.001 q 0.002,0.007 0.002,0.015 0,0.04 -0.038,0.051 -0.008,0.002 -0.014,0.002 -0.037,0 -0.049,-0.031 -0.004,-0.011 -0.004,-0.025 0,-0.077 0.059,-0.132 0.053,-0.049 0.128,-0.049 0.11,0 0.171,0.074 0.035,0.043 0.04,0.102 0.001,0.009 0.001,0.018 0,0.073 -0.055,0.139 -0.029,0.034 -0.09,0.09 l -0.061,0.054 -0.01,0.009 -0.106,0.103 h 0.18 q 0.088,0 0.095,-0.008 0.01,-0.014 0.022,-0.089 z"
             id="path42" />
        </g>
      </g>
      <path
         fill="#000080"
         stroke="none"
         paint-order="stroke fill markers"
         d="m 404.02602,409.43993 c 0,1.65685 -1.34314,3 -3,3 -1.65685,0 -3,-1.34315 -3,-3 0,-1.65686 1.34315,-3 3,-3 1.65686,0 3,1.34314 3,3 z"
         fill-opacity="1"
         id="path43" />
      <g
         transform="matrix(19,0,0,19,-210,-30)"
         id="g47">
        <g
           transform="translate(32.381289,22.240316)"
           id="g44">
          <path
             fill="#000080"
             stroke="none"
             paint-order="stroke fill markers"
             d="m 0.537,-0.595 h -0.32 q -0.031,0 -0.034,-0.014 -0.001,-0.003 -0.001,-0.006 0.006,-0.02 0.035,-0.02 h 0.337 q -0.02,-0.026 -0.024,-0.058 0,-0.016 0.014,-0.02 0.003,-0.001 0.006,-0.001 0.015,0 0.02,0.022 0.013,0.038 0.041,0.057 0.014,0.01 0.014,0.02 0,0.011 -0.017,0.021 -0.045,0.022 -0.079,0.065 -0.011,0.013 -0.019,0.013 -0.014,0 -0.019,-0.014 -0.001,-0.003 -0.001,-0.006 0,-0.016 0.047,-0.059 z"
             id="path44" />
        </g>
        <g
           transform="translate(32.315789,22.503316)"
           id="g45">
          <path
             fill="#000080"
             stroke="none"
             paint-order="stroke fill markers"
             d="M 0.028,0.169 0.18,-0.437 q 0.029,-0.114 0.112,-0.194 0.078,-0.074 0.164,-0.074 0.083,0 0.119,0.066 0.015,0.028 0.015,0.062 0,0.075 -0.062,0.138 -0.021,0.021 -0.046,0.036 0.067,0.046 0.067,0.139 0,0.103 -0.08,0.188 Q 0.392,0.005 0.296,0.012 H 0.283 q -0.097,0 -0.142,-0.075 -0.012,-0.02 -0.018,-0.042 L 0.048,0.188 0.047,0.19 q -0.004,0.004 -0.01,0.004 -0.012,0 -0.012,-0.01 0,-0.003 0.003,-0.015 m 0.3,-0.57 q 0.017,0.006 0.043,0.006 0.03,0 0.048,-0.008 -0.013,-0.006 -0.04,-0.006 -0.035,0 -0.051,0.008 M 0.45,-0.421 Q 0.511,-0.467 0.525,-0.577 V -0.578 -0.58 q 0.002,-0.014 0.002,-0.022 0,-0.071 -0.058,-0.08 -0.007,-0.001 -0.014,-0.001 -0.083,0 -0.156,0.077 -0.069,0.072 -0.099,0.19 l -0.046,0.185 q -0.013,0.052 -0.013,0.075 0,0.082 0.059,0.122 0.034,0.024 0.081,0.024 0.078,0 0.134,-0.084 0.007,-0.009 0.012,-0.019 0.035,-0.066 0.047,-0.161 0.002,-0.017 0.002,-0.028 0,-0.053 -0.03,-0.084 -0.032,0.013 -0.075,0.013 -0.068,0 -0.068,-0.026 0,-0.032 0.078,-0.032 0.041,0 0.069,0.01 z"
             id="path45" />
        </g>
        <g
           transform="matrix(0.7,0,0,0.7,32.881789,22.732316)"
           id="g46">
          <path
             fill="#000080"
             stroke="none"
             paint-order="stroke fill markers"
             d="m 0.29,-0.352 v 0 q 0.1,0.02 0.144,0.098 0.023,0.039 0.023,0.083 0,0.085 -0.07,0.143 -0.061,0.05 -0.143,0.05 -0.099,0 -0.159,-0.059 -0.043,-0.042 -0.043,-0.098 0,-0.047 0.042,-0.056 0.007,-0.002 0.014,-0.002 0.038,0 0.051,0.032 0.004,0.013 0.005,0.024 0,0.04 -0.036,0.052 -0.014,0.005 -0.03,0.003 0.037,0.062 0.128,0.074 0.013,0.002 0.025,0.002 0.064,0 0.094,-0.063 0.019,-0.04 0.019,-0.102 0,-0.133 -0.08,-0.16 Q 0.256,-0.337 0.235,-0.337 H 0.191 q -0.022,0 -0.024,-0.011 0,-0.01 0.015,-0.012 0.015,0 0.039,-0.003 0.051,-0.002 0.08,-0.039 v -0.001 l 0.001,-0.001 0.001,-0.001 h 0.001 l 0.006,-0.01 q 0.028,-0.047 0.028,-0.114 0,-0.093 -0.072,-0.109 -0.012,-0.003 -0.024,-0.003 -0.07,0 -0.114,0.04 -0.011,0.01 -0.019,0.022 0.062,0 0.062,0.05 0,0.036 -0.031,0.048 -0.009,0.003 -0.02,0.003 -0.039,0 -0.049,-0.035 v 0 -0.001 Q 0.069,-0.522 0.069,-0.53 q 0,-0.067 0.066,-0.107 0.048,-0.029 0.111,-0.029 0.091,0 0.147,0.054 l 0.002,0.002 q 0.035,0.036 0.035,0.082 0,0.083 -0.071,0.139 -0.031,0.024 -0.069,0.037 z"
             id="path46" />
        </g>
      </g>
      <path
         fill="#000080"
         stroke="none"
         paint-order="stroke fill markers"
         d="m 475.93747,553.26282 c 0,1.65685 -1.34315,3 -3,3 -1.65685,0 -3,-1.34315 -3,-3 0,-1.65686 1.34315,-3 3,-3 1.65685,0 3,1.34314 3,3 z"
         fill-opacity="1"
         id="path47" />
      <g
         transform="matrix(19,0,0,19,-210,-30)"
         id="g51">
        <g
           transform="translate(34.960237,31.819263)"
           id="g48">
          <path
             fill="#000080"
             stroke="none"
             paint-order="stroke fill markers"
             d="m 0.537,-0.595 h -0.32 q -0.031,0 -0.034,-0.014 -0.001,-0.003 -0.001,-0.006 0.006,-0.02 0.035,-0.02 h 0.337 q -0.02,-0.026 -0.024,-0.058 0,-0.016 0.014,-0.02 0.003,-0.001 0.006,-0.001 0.015,0 0.02,0.022 0.013,0.038 0.041,0.057 0.014,0.01 0.014,0.02 0,0.011 -0.017,0.021 -0.045,0.022 -0.079,0.065 -0.011,0.013 -0.019,0.013 -0.014,0 -0.019,-0.014 -0.001,-0.003 -0.001,-0.006 0,-0.016 0.047,-0.059 z"
             id="path48" />
        </g>
        <g
           transform="translate(34.894737,32.082263)"
           id="g49">
          <path
             fill="#000080"
             stroke="none"
             paint-order="stroke fill markers"
             d="M 0.028,0.169 0.18,-0.437 q 0.029,-0.114 0.112,-0.194 0.078,-0.074 0.164,-0.074 0.083,0 0.119,0.066 0.015,0.028 0.015,0.062 0,0.075 -0.062,0.138 -0.021,0.021 -0.046,0.036 0.067,0.046 0.067,0.139 0,0.103 -0.08,0.188 Q 0.392,0.005 0.296,0.012 H 0.283 q -0.097,0 -0.142,-0.075 -0.012,-0.02 -0.018,-0.042 L 0.048,0.188 0.047,0.19 q -0.004,0.004 -0.01,0.004 -0.012,0 -0.012,-0.01 0,-0.003 0.003,-0.015 m 0.3,-0.57 q 0.017,0.006 0.043,0.006 0.03,0 0.048,-0.008 -0.013,-0.006 -0.04,-0.006 -0.035,0 -0.051,0.008 M 0.45,-0.421 Q 0.511,-0.467 0.525,-0.577 V -0.578 -0.58 q 0.002,-0.014 0.002,-0.022 0,-0.071 -0.058,-0.08 -0.007,-0.001 -0.014,-0.001 -0.083,0 -0.156,0.077 -0.069,0.072 -0.099,0.19 l -0.046,0.185 q -0.013,0.052 -0.013,0.075 0,0.082 0.059,0.122 0.034,0.024 0.081,0.024 0.078,0 0.134,-0.084 0.007,-0.009 0.012,-0.019 0.035,-0.066 0.047,-0.161 0.002,-0.017 0.002,-0.028 0,-0.053 -0.03,-0.084 -0.032,0.013 -0.075,0.013 -0.068,0 -0.068,-0.026 0,-0.032 0.078,-0.032 0.041,0 0.069,0.01 z"
             id="path49" />
        </g>
        <g
           transform="matrix(0.7,0,0,0.7,35.460737,32.311263)"
           id="g50">
          <path
             fill="#000080"
             stroke="none"
             paint-order="stroke fill markers"
             d="m 0.028,-0.165 v -0.031 l 0.307,-0.469 q 0.008,-0.012 0.02,-0.012 0.014,0 0.016,0.011 v 0.015 0.455 h 0.1 v 0.031 h -0.1 v 0.087 q 0,0.031 0.012,0.038 0.014,0.009 0.064,0.009 H 0.468 V 0 Q 0.427,-0.003 0.332,-0.003 0.238,-0.003 0.197,0 v -0.031 h 0.021 q 0.062,0 0.072,-0.017 0.004,-0.007 0.004,-0.03 V -0.165 H 0.028 M 0.3,-0.196 v -0.373 l -0.244,0.373 z"
             id="path50" />
        </g>
      </g>
      <path
         fill="#000080"
         stroke="none"
         paint-order="stroke fill markers"
         d="m 498.12542,542.16884 c 0,1.65686 -1.34315,3 -3,3 -1.65686,0 -3,-1.34314 -3,-3 0,-1.65685 1.34314,-3 3,-3 1.65685,0 3,1.34315 3,3 z"
         fill-opacity="1"
         id="path51" />
      <g
         transform="matrix(19,0,0,19,-210,-30)"
         id="g55">
        <g
           transform="translate(37.539184,29.450842)"
           id="g52">
          <path
             fill="#000080"
             stroke="none"
             paint-order="stroke fill markers"
             d="m 0.537,-0.595 h -0.32 q -0.031,0 -0.034,-0.014 -0.001,-0.003 -0.001,-0.006 0.006,-0.02 0.035,-0.02 h 0.337 q -0.02,-0.026 -0.024,-0.058 0,-0.016 0.014,-0.02 0.003,-0.001 0.006,-0.001 0.015,0 0.02,0.022 0.013,0.038 0.041,0.057 0.014,0.01 0.014,0.02 0,0.011 -0.017,0.021 -0.045,0.022 -0.079,0.065 -0.011,0.013 -0.019,0.013 -0.014,0 -0.019,-0.014 -0.001,-0.003 -0.001,-0.006 0,-0.016 0.047,-0.059 z"
             id="path52" />
        </g>
        <g
           transform="translate(37.473684,29.713842)"
           id="g53">
          <path
             fill="#000080"
             stroke="none"
             paint-order="stroke fill markers"
             d="M 0.028,0.169 0.18,-0.437 q 0.029,-0.114 0.112,-0.194 0.078,-0.074 0.164,-0.074 0.083,0 0.119,0.066 0.015,0.028 0.015,0.062 0,0.075 -0.062,0.138 -0.021,0.021 -0.046,0.036 0.067,0.046 0.067,0.139 0,0.103 -0.08,0.188 Q 0.392,0.005 0.296,0.012 H 0.283 q -0.097,0 -0.142,-0.075 -0.012,-0.02 -0.018,-0.042 L 0.048,0.188 0.047,0.19 q -0.004,0.004 -0.01,0.004 -0.012,0 -0.012,-0.01 0,-0.003 0.003,-0.015 m 0.3,-0.57 q 0.017,0.006 0.043,0.006 0.03,0 0.048,-0.008 -0.013,-0.006 -0.04,-0.006 -0.035,0 -0.051,0.008 M 0.45,-0.421 Q 0.511,-0.467 0.525,-0.577 V -0.578 -0.58 q 0.002,-0.014 0.002,-0.022 0,-0.071 -0.058,-0.08 -0.007,-0.001 -0.014,-0.001 -0.083,0 -0.156,0.077 -0.069,0.072 -0.099,0.19 l -0.046,0.185 q -0.013,0.052 -0.013,0.075 0,0.082 0.059,0.122 0.034,0.024 0.081,0.024 0.078,0 0.134,-0.084 0.007,-0.009 0.012,-0.019 0.035,-0.066 0.047,-0.161 0.002,-0.017 0.002,-0.028 0,-0.053 -0.03,-0.084 -0.032,0.013 -0.075,0.013 -0.068,0 -0.068,-0.026 0,-0.032 0.078,-0.032 0.041,0 0.069,0.01 z"
             id="path53" />
        </g>
        <g
           transform="matrix(0.7,0,0,0.7,38.039684,29.942842)"
           id="g54">
          <path
             fill="#000080"
             stroke="none"
             paint-order="stroke fill markers"
             d="m 0.449,-0.201 v 0 q 0,0.103 -0.077,0.17 Q 0.31,0.022 0.231,0.022 0.139,0.022 0.085,-0.055 0.05,-0.104 0.05,-0.161 q 0,-0.046 0.041,-0.052 0.004,-0.001 0.008,-0.001 0.037,0 0.048,0.033 0.002,0.008 0.002,0.016 0,0.032 -0.028,0.044 -0.01,0.005 -0.022,0.005 -0.011,0 -0.017,-0.002 0.018,0.063 0.077,0.094 0.033,0.018 0.07,0.018 0.067,0 0.107,-0.065 0.024,-0.042 0.024,-0.137 0,-0.084 -0.018,-0.126 -0.028,-0.064 -0.085,-0.064 -0.081,0 -0.129,0.07 -0.006,0.009 -0.013,0.009 -0.013,0 -0.014,-0.014 v -0.012 -0.296 q 0,-0.023 0.01,-0.024 0.004,0 0.012,0.003 0.063,0.028 0.133,0.028 0.072,0 0.136,-0.029 0.005,-0.003 0.008,-0.003 0.01,0 0.01,0.011 0,0.013 -0.032,0.042 -0.068,0.062 -0.161,0.062 -0.042,0 -0.085,-0.013 v 0.195 q 0.052,-0.051 0.127,-0.051 0.088,0 0.145,0.077 0.045,0.061 0.045,0.142 z"
             id="path54" />
        </g>
      </g>
      <path
         fill="#ff9933"
         stroke="none"
         paint-order="stroke fill markers"
         d="m 368.78398,30.337954 c 0,1.656854 -1.34315,3 -3,3 -1.65686,0 -3,-1.343146 -3,-3 0,-1.656854 1.34314,-3 3,-3 1.65685,0 3,1.343146 3,3 z"
         fill-opacity="1"
         id="path55" />
      <g
         transform="matrix(19,0,0,19,-210,-30)"
         id="g60">
        <g
           transform="translate(30.802342,2.5171349)"
           id="g56">
          <path
             fill="#ff9933"
             stroke="none"
             paint-order="stroke fill markers"
             d="m 0.537,-0.595 h -0.32 q -0.031,0 -0.034,-0.014 -0.001,-0.003 -0.001,-0.006 0.006,-0.02 0.035,-0.02 h 0.337 q -0.02,-0.026 -0.024,-0.058 0,-0.016 0.014,-0.02 0.003,-0.001 0.006,-0.001 0.015,0 0.02,0.022 0.013,0.038 0.041,0.057 0.014,0.01 0.014,0.02 0,0.011 -0.017,0.021 -0.045,0.022 -0.079,0.065 -0.011,0.013 -0.019,0.013 -0.014,0 -0.019,-0.014 -0.001,-0.003 -0.001,-0.006 0,-0.016 0.047,-0.059 z"
             id="path56" />
        </g>
        <g
           transform="translate(30.736842,2.7801349)"
           id="g57">
          <path
             fill="#ff9933"
             stroke="none"
             paint-order="stroke fill markers"
             d="M 0.028,0.169 0.18,-0.437 q 0.029,-0.114 0.112,-0.194 0.078,-0.074 0.164,-0.074 0.083,0 0.119,0.066 0.015,0.028 0.015,0.062 0,0.075 -0.062,0.138 -0.021,0.021 -0.046,0.036 0.067,0.046 0.067,0.139 0,0.103 -0.08,0.188 Q 0.392,0.005 0.296,0.012 H 0.283 q -0.097,0 -0.142,-0.075 -0.012,-0.02 -0.018,-0.042 L 0.048,0.188 0.047,0.19 q -0.004,0.004 -0.01,0.004 -0.012,0 -0.012,-0.01 0,-0.003 0.003,-0.015 m 0.3,-0.57 q 0.017,0.006 0.043,0.006 0.03,0 0.048,-0.008 -0.013,-0.006 -0.04,-0.006 -0.035,0 -0.051,0.008 M 0.45,-0.421 Q 0.511,-0.467 0.525,-0.577 V -0.578 -0.58 q 0.002,-0.014 0.002,-0.022 0,-0.071 -0.058,-0.08 -0.007,-0.001 -0.014,-0.001 -0.083,0 -0.156,0.077 -0.069,0.072 -0.099,0.19 l -0.046,0.185 q -0.013,0.052 -0.013,0.075 0,0.082 0.059,0.122 0.034,0.024 0.081,0.024 0.078,0 0.134,-0.084 0.007,-0.009 0.012,-0.019 0.035,-0.066 0.047,-0.161 0.002,-0.017 0.002,-0.028 0,-0.053 -0.03,-0.084 -0.032,0.013 -0.075,0.013 -0.068,0 -0.068,-0.026 0,-0.032 0.078,-0.032 0.041,0 0.069,0.01 z"
             id="path57" />
        </g>
        <g
           transform="matrix(0.7,0,0,0.7,31.302842,2.0734105)"
           id="g58">
          <path
             fill="#ff9933"
             stroke="none"
             paint-order="stroke fill markers"
             d="m 0.255,-0.479 -0.179,0.42 q -0.006,0.014 -0.013,0.014 -0.018,0 -0.03,-0.011 -0.004,-0.003 -0.004,-0.007 0,-0.002 0.003,-0.014 l 0.121,-0.436 q 0.013,-0.041 0.044,-0.045 0.005,-0.001 0.009,-0.001 0.034,0 0.05,0.029 0.006,0.011 0.006,0.023 0,0.013 -0.007,0.028 z"
             id="path58" />
        </g>
        <g
           transform="matrix(0.7,0,0,0.7,31.302842,3.0273519)"
           id="g59">
          <path
             fill="#ff9933"
             stroke="none"
             paint-order="stroke fill markers"
             d="m 0.294,-0.64 v 0.561 q 0,0.03 0.012,0.038 0.017,0.01 0.081,0.01 H 0.419 V 0 Q 0.384,-0.003 0.257,-0.003 0.13,-0.003 0.095,0 v -0.031 h 0.032 q 0.077,0 0.088,-0.018 L 0.216,-0.05 Q 0.22,-0.058 0.22,-0.079 v -0.518 q -0.052,0.026 -0.131,0.026 v -0.031 q 0.12,0 0.182,-0.064 0.019,0 0.022,0.007 v 0 0.001 q 0.001,0.003 0.001,0.018 z"
             id="path59" />
        </g>
      </g>
    </g>
  </g>
</svg>
