<?xml version="1.0" encoding="UTF-8" standalone="no"?>
<svg
   version="1.1"
   width="448.31961"
   height="449.38907"
   id="svg39"
   sodipodi:docname="geogebra-export (6).svg"
   inkscape:version="1.3.2 (091e20e, 2023-11-25, custom)"
   xmlns:inkscape="http://www.inkscape.org/namespaces/inkscape"
   xmlns:sodipodi="http://sodipodi.sourceforge.net/DTD/sodipodi-0.dtd"
   xmlns="http://www.w3.org/2000/svg"
   xmlns:svg="http://www.w3.org/2000/svg">
  <sodipodi:namedview
     id="namedview39"
     pagecolor="#ffffff"
     bordercolor="#000000"
     borderopacity="0.25"
     inkscape:showpageshadow="2"
     inkscape:pageopacity="0.0"
     inkscape:pagecheckerboard="0"
     inkscape:deskcolor="#d1d1d1"
     inkscape:zoom="0.83322817"
     inkscape:cx="580.27323"
     inkscape:cy="152.41924"
     inkscape:window-width="1920"
     inkscape:window-height="1002"
     inkscape:window-x="1912"
     inkscape:window-y="-8"
     inkscape:window-maximized="1"
     inkscape:current-layer="svg39" />
  <defs
     id="defs1">
    <clipPath
       id="scsXZWTlUrGC">
      <path
         fill="none"
         stroke="none"
         d="M 0,0 H 772 V 684 H 0 Z"
         id="path1" />
    </clipPath>
    <clipPath
       clipPathUnits="userSpaceOnUse"
       id="clipPath40">
      <rect
         style="opacity:0.5;fill:#1a1a1a;stroke-width:27.809;stroke-opacity:0.235294"
         id="rect40"
         width="448.31961"
         height="449.38907"
         x="137.16068"
         y="101.14671" />
    </clipPath>
  </defs>
  <g
     clip-path="url(#clipPath40)"
     id="g39"
     transform="translate(-137.16068,-101.14671)">
    <g
       id="g38">
      <rect
         fill="#ffffff"
         stroke="none"
         x="0"
         y="0"
         width="772"
         height="684"
         fill-opacity="1"
         id="rect1" />
      <path
         fill="none"
         stroke="#f0f0f0"
         paint-order="fill stroke markers"
         d="m 9.5,0.5 v 684 m 0,-684 v 684 m 80,-684 v 684 m 160,-684 v 684 m 80,-684 v 684 m 80,-684 v 684 m 80,-684 v 684 m 80,-684 v 684 m 80,-684 v 684 m 80,-684 v 684"
         stroke-opacity="1"
         stroke-linecap="round"
         stroke-linejoin="round"
         stroke-miterlimit="10"
         id="path2" />
      <path
         fill="none"
         stroke="#f0f0f0"
         paint-order="fill stroke markers"
         d="m 25.5,0.5 v 684 m 16,-684 v 684 m 16,-684 v 684 m 16,-684 v 684 m 32,-684 v 684 m 16,-684 v 684 m 16,-684 v 684 m 16,-684 v 684 m 32,-684 v 684 m 16,-684 v 684 m 16,-684 v 684 m 16,-684 v 684 m 32,-684 v 684 m 16,-684 v 684 m 16,-684 v 684 m 16,-684 v 684 m 32,-684 v 684 m 16,-684 v 684 m 16,-684 v 684 m 16,-684 v 684 m 32,-684 v 684 m 16,-684 v 684 m 16,-684 v 684 m 16,-684 v 684 m 32,-684 v 684 m 16,-684 v 684 m 16,-684 v 684 m 16,-684 v 684 m 32,-684 v 684 m 16,-684 v 684 m 16,-684 v 684 m 16,-684 v 684 m 32,-684 v 684 m 16,-684 v 684 m 16,-684 v 684 m 16,-684 v 684 m 32,-684 v 684 m 16,-684 v 684"
         stroke-opacity="0.235294"
         stroke-linecap="round"
         stroke-linejoin="round"
         stroke-miterlimit="10"
         id="path3" />
      <path
         fill="none"
         stroke="#f0f0f0"
         paint-order="fill stroke markers"
         d="m 0.5,37.5 h 772 m -772,0 h 772 m -772,80 h 772 m -772,80 h 772 m -772,80 h 772 m -772,80 h 772 m -772,80 h 772 m -772,161 h 772 m -772,80 h 772"
         stroke-opacity="1"
         stroke-linecap="round"
         stroke-linejoin="round"
         stroke-miterlimit="10"
         id="path4" />
      <path
         fill="none"
         stroke="#f0f0f0"
         paint-order="fill stroke markers"
         d="m 0.5,5.5 h 772 m -772,0 h 772 m -772,16 h 772 m -772,32 h 772 m -772,16 h 772 m -772,16 h 772 m -772,16 h 772 m -772,32 h 772 m -772,16 h 772 m -772,16 h 772 m -772,16 h 772 m -772,32 h 772 m -772,16 h 772 m -772,16 h 772 m -772,16 h 772 m -772,32 h 772 m -772,16 h 772 m -772,16 h 772 m -772,16 h 772 m -772,32 h 772 m -772,16 h 772 m -772,16 h 772 m -772,16 h 772 m -772,32 h 772 m -772,16 h 772 m -772,16 h 772 m -772,16 h 772 m -772,33 h 772 m -772,16 h 772 m -772,16 h 772 m -772,16 h 772 m -772,32 h 772 m -772,16 h 772 m -772,16 h 772 m -772,16 h 772"
         stroke-opacity="0.235294"
         stroke-linecap="round"
         stroke-linejoin="round"
         stroke-miterlimit="10"
         id="path5" />
      <path
         fill="none"
         stroke="#252525"
         paint-order="fill stroke markers"
         d="m 169.5,2.5 v 682"
         stroke-opacity="1"
         stroke-miterlimit="10"
         id="path6" />
      <path
         fill="none"
         stroke="#252525"
         paint-order="fill stroke markers"
         d="m 169.5,1.5 -4,4"
         stroke-opacity="1"
         stroke-miterlimit="10"
         id="path7" />
      <path
         fill="none"
         stroke="#252525"
         paint-order="fill stroke markers"
         d="m 169.5,1.5 4,4"
         stroke-opacity="1"
         stroke-miterlimit="10"
         id="path8" />
      <path
         fill="none"
         stroke="#252525"
         paint-order="fill stroke markers"
         d="m 0.5,518.5 h 770"
         stroke-opacity="1"
         stroke-miterlimit="10"
         id="path9" />
      <path
         fill="none"
         stroke="#252525"
         paint-order="fill stroke markers"
         d="m 771.5,518.5 -4,-4"
         stroke-opacity="1"
         stroke-miterlimit="10"
         id="path10" />
      <path
         fill="none"
         stroke="#252525"
         paint-order="fill stroke markers"
         d="m 771.5,518.5 -4,4"
         stroke-opacity="1"
         stroke-miterlimit="10"
         id="path11" />
      <text
         fill="#252525"
         stroke="none"
         font-family="geogebra-sans-serif, sans-serif"
         font-size="12px"
         font-style="normal"
         font-weight="normal"
         text-decoration="normal"
         x="78"
         y="534"
         text-anchor="start"
         dominant-baseline="alphabetic"
         fill-opacity="1"
         id="text11">–0.2</text>
      <text
         fill="#252525"
         stroke="none"
         font-family="geogebra-sans-serif, sans-serif"
         font-size="12px"
         font-style="normal"
         font-weight="normal"
         text-decoration="normal"
         x="241"
         y="534"
         text-anchor="start"
         dominant-baseline="alphabetic"
         fill-opacity="1"
         id="text12">0.2</text>
      <text
         fill="#252525"
         stroke="none"
         font-family="geogebra-sans-serif, sans-serif"
         font-size="12px"
         font-style="normal"
         font-weight="normal"
         text-decoration="normal"
         x="321"
         y="534"
         text-anchor="start"
         dominant-baseline="alphabetic"
         fill-opacity="1"
         id="text13">0.4</text>
      <text
         fill="#252525"
         stroke="none"
         font-family="geogebra-sans-serif, sans-serif"
         font-size="12px"
         font-style="normal"
         font-weight="normal"
         text-decoration="normal"
         x="401"
         y="534"
         text-anchor="start"
         dominant-baseline="alphabetic"
         fill-opacity="1"
         id="text14">0.6</text>
      <text
         fill="#252525"
         stroke="none"
         font-family="geogebra-sans-serif, sans-serif"
         font-size="12px"
         font-style="normal"
         font-weight="normal"
         text-decoration="normal"
         x="481"
         y="534"
         text-anchor="start"
         dominant-baseline="alphabetic"
         fill-opacity="1"
         id="text15">0.8</text>
      <text
         fill="#252525"
         stroke="none"
         font-family="geogebra-sans-serif, sans-serif"
         font-size="12px"
         font-style="normal"
         font-weight="normal"
         text-decoration="normal"
         x="567"
         y="534"
         text-anchor="start"
         dominant-baseline="alphabetic"
         fill-opacity="1"
         id="text16">1</text>
      <text
         fill="#252525"
         stroke="none"
         font-family="geogebra-sans-serif, sans-serif"
         font-size="12px"
         font-style="normal"
         font-weight="normal"
         text-decoration="normal"
         x="641"
         y="534"
         text-anchor="start"
         dominant-baseline="alphabetic"
         fill-opacity="1"
         id="text17">1.2</text>
      <text
         fill="#252525"
         stroke="none"
         font-family="geogebra-sans-serif, sans-serif"
         font-size="12px"
         font-style="normal"
         font-weight="normal"
         text-decoration="normal"
         x="721"
         y="534"
         text-anchor="start"
         dominant-baseline="alphabetic"
         fill-opacity="1"
         id="text18">1.4</text>
      <text
         fill="#252525"
         stroke="none"
         font-family="geogebra-sans-serif, sans-serif"
         font-size="12px"
         font-style="normal"
         font-weight="normal"
         text-decoration="normal"
         x="139"
         y="603"
         text-anchor="start"
         dominant-baseline="alphabetic"
         fill-opacity="1"
         id="text19">–0.2</text>
      <text
         fill="#252525"
         stroke="none"
         font-family="geogebra-sans-serif, sans-serif"
         font-size="12px"
         font-style="normal"
         font-weight="normal"
         text-decoration="normal"
         x="145"
         y="442"
         text-anchor="start"
         dominant-baseline="alphabetic"
         fill-opacity="1"
         id="text20">0.2</text>
      <text
         fill="#252525"
         stroke="none"
         font-family="geogebra-sans-serif, sans-serif"
         font-size="12px"
         font-style="normal"
         font-weight="normal"
         text-decoration="normal"
         x="145"
         y="362"
         text-anchor="start"
         dominant-baseline="alphabetic"
         fill-opacity="1"
         id="text21">0.4</text>
      <text
         fill="#252525"
         stroke="none"
         font-family="geogebra-sans-serif, sans-serif"
         font-size="12px"
         font-style="normal"
         font-weight="normal"
         text-decoration="normal"
         x="145"
         y="282"
         text-anchor="start"
         dominant-baseline="alphabetic"
         fill-opacity="1"
         id="text22">0.6</text>
      <text
         fill="#252525"
         stroke="none"
         font-family="geogebra-sans-serif, sans-serif"
         font-size="12px"
         font-style="normal"
         font-weight="normal"
         text-decoration="normal"
         x="145"
         y="202"
         text-anchor="start"
         dominant-baseline="alphabetic"
         fill-opacity="1"
         id="text23">0.8</text>
      <text
         fill="#252525"
         stroke="none"
         font-family="geogebra-sans-serif, sans-serif"
         font-size="12px"
         font-style="normal"
         font-weight="normal"
         text-decoration="normal"
         x="155"
         y="122"
         text-anchor="start"
         dominant-baseline="alphabetic"
         fill-opacity="1"
         id="text24">1</text>
      <text
         fill="#252525"
         stroke="none"
         font-family="geogebra-sans-serif, sans-serif"
         font-size="12px"
         font-style="normal"
         font-weight="normal"
         text-decoration="normal"
         x="145"
         y="42"
         text-anchor="start"
         dominant-baseline="alphabetic"
         fill-opacity="1"
         id="text25">1.2</text>
      <text
         fill="#252525"
         stroke="none"
         font-family="geogebra-sans-serif, sans-serif"
         font-size="12px"
         font-style="normal"
         font-weight="normal"
         text-decoration="normal"
         x="155"
         y="534"
         text-anchor="start"
         dominant-baseline="alphabetic"
         fill-opacity="1"
         id="text26">0</text>
      <path
         fill="#ff9900"
         stroke="none"
         paint-order="stroke fill markers"
         fill-rule="evenodd"
         d="M 569.67715,277.75247 V 518.00589 H 169.25479 Z"
         fill-opacity="0.0980392"
         id="path26" />
      <path
         fill="none"
         stroke="#000000"
         paint-order="fill stroke markers"
         d="M -5,117.58353 H 777"
         stroke-opacity="0.698039"
         stroke-linecap="round"
         stroke-linejoin="round"
         stroke-miterlimit="10"
         id="path27" />
      <path
         fill="none"
         stroke="#000000"
         paint-order="fill stroke markers"
         d="M 569.67715,689 V -5"
         stroke-opacity="0.698039"
         stroke-linecap="round"
         stroke-linejoin="round"
         stroke-miterlimit="10"
         id="path28" />
      <path
         fill="none"
         stroke="#000000"
         paint-order="fill stroke markers"
         d="m -5,622.55876 782,-469.2"
         stroke-opacity="0.698039"
         stroke-linecap="round"
         stroke-linejoin="round"
         stroke-miterlimit="10"
         stroke-width="2.5"
         id="path29" />
      <g
         transform="scale(19)"
         id="g37">
        <g
           transform="translate(15.894737,18.636297)"
           id="g30">
          <path
             fill="#000000"
             stroke="none"
             paint-order="stroke fill markers"
             d="M 0.486,-0.381 0.39,0.001 Q 0.366,0.099 0.283,0.16 0.222,0.205 0.156,0.205 0.089,0.205 0.061,0.159 0.05,0.14 0.05,0.118 0.05,0.067 0.091,0.055 0.099,0.053 0.106,0.053 q 0.032,0 0.036,0.028 0.001,0.003 0.001,0.007 0,0.023 -0.02,0.041 -0.014,0.012 -0.043,0.012 0.018,0.042 0.076,0.042 0.062,0 0.11,-0.063 0.039,-0.052 0.062,-0.141 0.001,-0.004 0.003,-0.013 -0.045,0.045 -0.101,0.045 -0.08,0 -0.109,-0.059 -0.013,-0.026 -0.013,-0.06 0,-0.055 0.053,-0.197 0.002,-0.006 0.005,-0.013 0.017,-0.046 0.017,-0.07 0,-0.032 -0.025,-0.032 -0.055,0 -0.09,0.091 v 0.001 q -0.006,0.015 -0.011,0.032 -0.011,0.017 -0.016,0.018 -0.012,0 -0.012,-0.01 0,-0.018 0.021,-0.063 0.044,-0.091 0.111,-0.091 0.053,0 0.074,0.045 0.008,0.017 0.008,0.037 0,0.021 -0.02,0.072 -0.051,0.132 -0.051,0.196 0,0.081 0.062,0.081 0.058,0 0.101,-0.062 0.01,-0.015 0.012,-0.023 l 0.045,-0.18 q 0.007,-0.033 0.02,-0.08 0.01,-0.043 0.014,-0.054 0.013,-0.021 0.035,-0.021 0.025,0.005 0.029,0.027 0,0.009 -0.004,0.023 z"
             id="path30" />
        </g>
        <g
           transform="translate(16.698515,18.636297)"
           id="g31">
          <path
             fill="#000000"
             stroke="none"
             paint-order="stroke fill markers"
             d="M 0.687,-0.327 H 0.09 q -0.032,0 -0.034,-0.02 0,-0.02 0.033,-0.02 h 0.599 q 0.032,0 0.033,0.02 0,0.02 -0.034,0.02 m 10e-4,0.194 H 0.089 q -0.032,0 -0.033,-0.02 0,-0.02 0.034,-0.02 h 0.597 q 0.032,0 0.034,0.02 0,0.02 -0.033,0.02 z"
             id="path31" />
        </g>
        <g
           transform="translate(17.817214,17.959789)"
           id="g32">
          <path
             fill="#000000"
             stroke="none"
             paint-order="stroke fill markers"
             d="m 0.294,-0.64 v 0.561 q 0,0.03 0.012,0.038 0.017,0.01 0.081,0.01 H 0.419 V 0 Q 0.384,-0.003 0.257,-0.003 0.13,-0.003 0.095,0 v -0.031 h 0.032 q 0.077,0 0.088,-0.018 L 0.216,-0.05 Q 0.22,-0.058 0.22,-0.079 v -0.518 q -0.052,0.026 -0.131,0.026 v -0.031 q 0.12,0 0.182,-0.064 0.019,0 0.022,0.007 v 0 0.001 q 0.001,0.003 0.001,0.018 z"
             id="path32" />
        </g>
        <g
           transform="translate(18.539437,17.959789)"
           id="g33">
          <path
             fill="#000000"
             stroke="none"
             paint-order="stroke fill markers"
             d="M 0.661,-0.23 H 0.116 q -0.032,0 -0.033,-0.02 0,-0.02 0.033,-0.02 h 0.545 q 0.032,0 0.033,0.02 0,0.02 -0.033,0.02 z"
             id="path33" />
        </g>
        <g
           transform="translate(19.539659,17.959789)"
           id="g34">
          <path
             fill="#000000"
             stroke="none"
             paint-order="stroke fill markers"
             d="m 0.133,-0.083 v 0 q 0.009,-0.003 0.027,-0.003 0.026,0 0.07,0.017 0.039,0.013 0.059,0.013 0.053,0 0.091,-0.038 0.02,-0.019 0.029,-0.046 0.006,-0.013 0.014,-0.013 0.012,0 0.012,0.01 0,0.026 -0.032,0.074 -0.054,0.08 -0.125,0.08 -0.034,0 -0.064,-0.037 -0.028,-0.033 -0.045,-0.037 -0.005,-0.001 -0.013,-0.001 -0.044,0 -0.085,0.062 -0.007,0.013 -0.016,0.013 -0.012,0 -0.012,-0.01 0,-0.012 0.046,-0.068 0.026,-0.032 0.057,-0.063 l 0.09,-0.084 q 0.099,-0.084 0.139,-0.131 -0.036,0 -0.077,-0.015 -0.043,-0.015 -0.063,-0.015 -0.058,0 -0.08,0.038 -0.003,0.004 -0.005,0.009 -0.004,0.011 -0.013,0.011 -0.012,0 -0.012,-0.011 0,-0.022 0.029,-0.06 0.04,-0.054 0.092,-0.054 0.033,0 0.062,0.035 l 0.001,10e-4 q 0.002,0.003 0.006,0.007 0.024,0.027 0.039,0.031 0.006,0.001 0.012,0.001 0.034,0 0.071,-0.058 l 0.004,-0.006 q 0.006,-0.011 0.015,-0.011 0.011,0 0.011,0.01 0,0.012 -0.042,0.064 -0.03,0.037 -0.075,0.081 -0.006,0.006 -0.095,0.087 l -0.003,0.003 q -0.065,0.056 -0.119,0.114 z"
             id="path34" />
        </g>
        <rect
           fill="#000000"
           stroke="none"
           x="17.817215"
           y="18.366299"
           width="2.2314444"
           height="0.039999001"
           id="rect34" />
        <g
           transform="translate(18.678437,19.322248)"
           id="g35">
          <path
             fill="#000000"
             stroke="none"
             paint-order="stroke fill markers"
             d="m 0.133,-0.083 v 0 q 0.009,-0.003 0.027,-0.003 0.026,0 0.07,0.017 0.039,0.013 0.059,0.013 0.053,0 0.091,-0.038 0.02,-0.019 0.029,-0.046 0.006,-0.013 0.014,-0.013 0.012,0 0.012,0.01 0,0.026 -0.032,0.074 -0.054,0.08 -0.125,0.08 -0.034,0 -0.064,-0.037 -0.028,-0.033 -0.045,-0.037 -0.005,-0.001 -0.013,-0.001 -0.044,0 -0.085,0.062 -0.007,0.013 -0.016,0.013 -0.012,0 -0.012,-0.01 0,-0.012 0.046,-0.068 0.026,-0.032 0.057,-0.063 l 0.09,-0.084 q 0.099,-0.084 0.139,-0.131 -0.036,0 -0.077,-0.015 -0.043,-0.015 -0.063,-0.015 -0.058,0 -0.08,0.038 -0.003,0.004 -0.005,0.009 -0.004,0.011 -0.013,0.011 -0.012,0 -0.012,-0.011 0,-0.022 0.029,-0.06 0.04,-0.054 0.092,-0.054 0.033,0 0.062,0.035 l 0.001,10e-4 q 0.002,0.003 0.006,0.007 0.024,0.027 0.039,0.031 0.006,0.001 0.012,0.001 0.034,0 0.071,-0.058 l 0.004,-0.006 q 0.006,-0.011 0.015,-0.011 0.011,0 0.011,0.01 0,0.012 -0.042,0.064 -0.03,0.037 -0.075,0.081 -0.006,0.006 -0.095,0.087 l -0.003,0.003 q -0.065,0.056 -0.119,0.114 z"
             id="path35" />
        </g>
        <g
           transform="translate(20.278247,18.636297)"
           id="g36">
          <path
             fill="#000000"
             stroke="none"
             paint-order="stroke fill markers"
             d="M 0.334,-0.302 0.3,-0.165 q -0.017,0.068 -0.017,0.088 0,0.052 0.037,0.063 0.008,0.003 0.018,0.003 0.05,0 0.091,-0.05 0.027,-0.032 0.042,-0.081 0.003,-0.011 0.013,-0.011 0.012,0 0.012,0.01 0,0.025 -0.031,0.072 Q 0.411,0.011 0.336,0.011 0.268,0.011 0.237,-0.046 0.231,-0.055 0.228,-0.065 0.204,-0.017 0.162,0.002 0.143,0.011 0.123,0.011 q -0.06,0 -0.084,-0.035 -0.01,-0.013 -0.01,-0.031 0,-0.037 0.032,-0.052 0.011,-0.006 0.023,-0.006 0.03,0 0.036,0.025 0.001,0.005 0.001,0.01 0,0.034 -0.034,0.05 -0.006,0.003 -0.013,0.004 0.021,0.013 0.05,0.013 0.053,0 0.084,-0.071 0.006,-0.015 0.011,-0.033 0.054,-0.204 0.054,-0.238 -0.006,-0.062 -0.054,-0.067 -0.052,0 -0.095,0.053 v 0.001 q 0,0.001 -0.001,0.001 -0.015,0.02 -0.027,0.046 -0.005,0.012 -0.009,0.024 l -0.002,0.006 q -0.002,0.011 -0.013,0.011 -0.012,0 -0.012,-0.01 0,-0.025 0.032,-0.072 0.054,-0.082 0.129,-0.082 0.077,0 0.108,0.076 0.032,-0.062 0.085,-0.074 0.01,-0.002 0.02,-0.002 0.059,0 0.083,0.033 0.01,0.014 0.01,0.033 0,0.041 -0.037,0.055 -0.009,0.003 -0.017,0.003 -0.031,0 -0.037,-0.027 -0.001,-0.004 -0.001,-0.008 0,-0.03 0.029,-0.047 0.009,-0.005 0.019,-0.007 -0.021,-0.013 -0.05,-0.013 -0.068,0 -0.096,0.106 -0.002,0.006 -0.003,0.012 z"
             id="path36" />
        </g>
      </g>
    </g>
  </g>
</svg>
