<?xml version="1.0" encoding="UTF-8" standalone="no"?>
<svg
   version="1.1"
   width="442.98758"
   height="391.22083"
   id="svg57"
   sodipodi:docname="geogebra-export (5).svg"
   inkscape:version="1.3.2 (091e20e, 2023-11-25, custom)"
   xmlns:inkscape="http://www.inkscape.org/namespaces/inkscape"
   xmlns:sodipodi="http://sodipodi.sourceforge.net/DTD/sodipodi-0.dtd"
   xmlns="http://www.w3.org/2000/svg"
   xmlns:svg="http://www.w3.org/2000/svg">
  <sodipodi:namedview
     id="namedview57"
     pagecolor="#ffffff"
     bordercolor="#000000"
     borderopacity="0.25"
     inkscape:showpageshadow="2"
     inkscape:pageopacity="0.0"
     inkscape:pagecheckerboard="0"
     inkscape:deskcolor="#d1d1d1"
     inkscape:zoom="1.1783626"
     inkscape:cx="544.39949"
     inkscape:cy="275.80645"
     inkscape:window-width="1920"
     inkscape:window-height="1002"
     inkscape:window-x="1912"
     inkscape:window-y="-8"
     inkscape:window-maximized="1"
     inkscape:current-layer="svg57" />
  <defs
     id="defs1">
    <clipPath
       id="nFShayPOyraH">
      <path
         fill="none"
         stroke="none"
         d="M 0,0 H 1148 V 684 H 0 Z"
         id="path1" />
    </clipPath>
    <clipPath
       clipPathUnits="userSpaceOnUse"
       id="clipPath2">
      <rect
         style="opacity:0.5;fill:#1a1a1a;stroke-width:27.809;stroke-opacity:0.235294"
         id="rect3"
         width="459.9603"
         height="460.80893"
         x="196.88336"
         y="113.71712" />
    </clipPath>
    <clipPath
       clipPathUnits="userSpaceOnUse"
       id="clipPath4">
      <rect
         style="opacity:0.5;fill:#1a1a1a;stroke-width:27.809;stroke-opacity:0.235294"
         id="rect5"
         width="442.98758"
         height="391.22083"
         x="208.76425"
         y="156.14888" />
    </clipPath>
  </defs>
  <g
     transform="translate(-208.76425,-156.14888)"
     clip-path="url(#clipPath4)"
     id="g57">
    <g
       id="g56">
      <rect
         fill="#ffffff"
         stroke="none"
         x="0"
         y="0"
         width="1148"
         height="684"
         fill-opacity="1"
         id="rect1" />
      <path
         fill="none"
         stroke="#c0c0c0"
         paint-order="fill stroke markers"
         d="m 52.5,0.5 v 684 m 0,-684 v 684 m 64,-684 v 684 m 65,-684 v 684 m 129,-684 v 684 m 65,-684 v 684 m 65,-684 v 684 m 64,-684 v 684 m 65,-684 v 684 m 65,-684 v 684 m 64,-684 v 684 m 65,-684 v 684 m 65,-684 v 684 m 65,-684 v 684 m 64,-684 v 684 m 65,-684 v 684 m 65,-684 v 684"
         stroke-opacity="1"
         stroke-linecap="round"
         stroke-linejoin="round"
         stroke-miterlimit="10"
         id="path2" />
      <path
         fill="none"
         stroke="#c0c0c0"
         paint-order="fill stroke markers"
         d="m 0.5,0.5 v 684 m 13,-684 v 684 m 13,-684 v 684 m 13,-684 v 684 m 26,-684 v 684 m 13,-684 v 684 m 13,-684 v 684 m 12,-684 v 684 m 26,-684 v 684 m 13,-684 v 684 m 13,-684 v 684 m 13,-684 v 684 m 26,-684 v 684 m 13,-684 v 684 m 13,-684 v 684 m 13,-684 v 684 m 26,-684 v 684 m 13,-684 v 684 m 13,-684 v 684 m 12,-684 v 684 m 26,-684 v 684 m 13,-684 v 684 m 13,-684 v 684 m 13,-684 v 684 m 26,-684 v 684 m 13,-684 v 684 m 13,-684 v 684 m 13,-684 v 684 m 26,-684 v 684 m 13,-684 v 684 m 13,-684 v 684 m 13,-684 v 684 m 25,-684 v 684 m 13,-684 v 684 m 13,-684 v 684 m 13,-684 v 684 m 26,-684 v 684 m 13,-684 v 684 m 13,-684 v 684 m 13,-684 v 684 m 26,-684 v 684 m 13,-684 v 684 m 13,-684 v 684 m 13,-684 v 684 m 25,-684 v 684 m 13,-684 v 684 m 13,-684 v 684 m 13,-684 v 684 m 26,-684 v 684 m 13,-684 v 684 m 13,-684 v 684 m 13,-684 v 684 m 26,-684 v 684 m 13,-684 v 684 m 13,-684 v 684 m 13,-684 v 684 m 25,-684 v 684 m 13,-684 v 684 m 13,-684 v 684 m 13,-684 v 684 m 26,-684 v 684 m 13,-684 v 684 m 13,-684 v 684 m 13,-684 v 684 m 26,-684 v 684 m 13,-684 v 684 m 13,-684 v 684 m 13,-684 v 684 m 25,-684 v 684 m 13,-684 v 684 m 13,-684 v 684 m 13,-684 v 684"
         stroke-opacity="0.235294"
         stroke-linecap="round"
         stroke-linejoin="round"
         stroke-miterlimit="10"
         id="path3" />
      <path
         fill="none"
         stroke="#c0c0c0"
         paint-order="fill stroke markers"
         d="m 0.5,0.5 h 1148 m -1148,0 h 1148 m -1148,65 h 1148 m -1148,65 h 1148 m -1148,64 h 1148 m -1148,65 h 1148 m -1148,65 h 1148 m -1148,64 h 1148 m -1148,65 h 1148 m -1148,130 h 1148 m -1148,64 h 1148"
         stroke-opacity="1"
         stroke-linecap="round"
         stroke-linejoin="round"
         stroke-miterlimit="10"
         id="path4" />
      <path
         fill="none"
         stroke="#c0c0c0"
         paint-order="fill stroke markers"
         d="m 0.5,0.5 h 1148 m -1148,13 h 1148 m -1148,13 h 1148 m -1148,13 h 1148 m -1148,13 h 1148 m -1148,26 h 1148 m -1148,13 h 1148 m -1148,13 h 1148 m -1148,13 h 1148 m -1148,26 h 1148 m -1148,13 h 1148 m -1148,13 h 1148 m -1148,13 h 1148 m -1148,25 h 1148 m -1148,13 h 1148 m -1148,13 h 1148 m -1148,13 h 1148 m -1148,26 h 1148 m -1148,13 h 1148 m -1148,13 h 1148 m -1148,13 h 1148 m -1148,26 h 1148 m -1148,13 h 1148 m -1148,13 h 1148 m -1148,13 h 1148 m -1148,25 h 1148 m -1148,13 h 1148 m -1148,13 h 1148 m -1148,13 h 1148 m -1148,26 h 1148 m -1148,13 h 1148 m -1148,13 h 1148 m -1148,13 h 1148 m -1148,26 h 1148 m -1148,13 h 1148 m -1148,13 h 1148 m -1148,13 h 1148 m -1148,25 h 1148 m -1148,13 h 1148 m -1148,13 h 1148 m -1148,13 h 1148 m -1148,26 h 1148 m -1148,13 h 1148"
         stroke-opacity="0.235294"
         stroke-linecap="round"
         stroke-linejoin="round"
         stroke-miterlimit="10"
         id="path5" />
      <path
         fill="none"
         stroke="#252525"
         paint-order="fill stroke markers"
         d="m 246.5,2.5 v 682"
         stroke-opacity="1"
         stroke-miterlimit="10"
         id="path6" />
      <path
         fill="none"
         stroke="#252525"
         paint-order="fill stroke markers"
         d="m 246.5,1.5 -4,4"
         stroke-opacity="1"
         stroke-miterlimit="10"
         id="path7" />
      <path
         fill="none"
         stroke="#252525"
         paint-order="fill stroke markers"
         d="m 246.5,1.5 4,4"
         stroke-opacity="1"
         stroke-miterlimit="10"
         id="path8" />
      <path
         fill="none"
         stroke="#252525"
         paint-order="fill stroke markers"
         d="m 0.5,518.5 h 1146"
         stroke-opacity="1"
         stroke-miterlimit="10"
         id="path9" />
      <path
         fill="none"
         stroke="#252525"
         paint-order="fill stroke markers"
         d="m 1147.5,518.5 -4,-4"
         stroke-opacity="1"
         stroke-miterlimit="10"
         id="path10" />
      <path
         fill="none"
         stroke="#252525"
         paint-order="fill stroke markers"
         d="m 1147.5,518.5 -4,4"
         stroke-opacity="1"
         stroke-miterlimit="10"
         id="path11" />
      <text
         fill="#252525"
         stroke="none"
         font-family="geogebra-sans-serif, sans-serif"
         font-size="12px"
         font-style="normal"
         font-weight="normal"
         text-decoration="normal"
         x="41"
         y="534"
         text-anchor="start"
         dominant-baseline="alphabetic"
         fill-opacity="1"
         id="text11">–0.6</text>
      <text
         fill="#252525"
         stroke="none"
         font-family="geogebra-sans-serif, sans-serif"
         font-size="12px"
         font-style="normal"
         font-weight="normal"
         text-decoration="normal"
         x="105"
         y="534"
         text-anchor="start"
         dominant-baseline="alphabetic"
         fill-opacity="1"
         id="text12">–0.4</text>
      <text
         fill="#252525"
         stroke="none"
         font-family="geogebra-sans-serif, sans-serif"
         font-size="12px"
         font-style="normal"
         font-weight="normal"
         text-decoration="normal"
         x="170"
         y="534"
         text-anchor="start"
         dominant-baseline="alphabetic"
         fill-opacity="1"
         id="text13">–0.2</text>
      <text
         fill="#252525"
         stroke="none"
         font-family="geogebra-sans-serif, sans-serif"
         font-size="12px"
         font-style="normal"
         font-weight="normal"
         text-decoration="normal"
         x="302"
         y="534"
         text-anchor="start"
         dominant-baseline="alphabetic"
         fill-opacity="1"
         id="text14">0.2</text>
      <text
         fill="#252525"
         stroke="none"
         font-family="geogebra-sans-serif, sans-serif"
         font-size="12px"
         font-style="normal"
         font-weight="normal"
         text-decoration="normal"
         x="367"
         y="534"
         text-anchor="start"
         dominant-baseline="alphabetic"
         fill-opacity="1"
         id="text15">0.4</text>
      <text
         fill="#252525"
         stroke="none"
         font-family="geogebra-sans-serif, sans-serif"
         font-size="12px"
         font-style="normal"
         font-weight="normal"
         text-decoration="normal"
         x="432"
         y="534"
         text-anchor="start"
         dominant-baseline="alphabetic"
         fill-opacity="1"
         id="text16">0.6</text>
      <text
         fill="#252525"
         stroke="none"
         font-family="geogebra-sans-serif, sans-serif"
         font-size="12px"
         font-style="normal"
         font-weight="normal"
         text-decoration="normal"
         x="496"
         y="534"
         text-anchor="start"
         dominant-baseline="alphabetic"
         fill-opacity="1"
         id="text17">0.8</text>
      <text
         fill="#252525"
         stroke="none"
         font-family="geogebra-sans-serif, sans-serif"
         font-size="12px"
         font-style="normal"
         font-weight="normal"
         text-decoration="normal"
         x="567"
         y="534"
         text-anchor="start"
         dominant-baseline="alphabetic"
         fill-opacity="1"
         id="text18">1</text>
      <text
         fill="#252525"
         stroke="none"
         font-family="geogebra-sans-serif, sans-serif"
         font-size="12px"
         font-style="normal"
         font-weight="normal"
         text-decoration="normal"
         x="626"
         y="534"
         text-anchor="start"
         dominant-baseline="alphabetic"
         fill-opacity="1"
         id="text19">1.2</text>
      <text
         fill="#252525"
         stroke="none"
         font-family="geogebra-sans-serif, sans-serif"
         font-size="12px"
         font-style="normal"
         font-weight="normal"
         text-decoration="normal"
         x="690"
         y="534"
         text-anchor="start"
         dominant-baseline="alphabetic"
         fill-opacity="1"
         id="text20">1.4</text>
      <text
         fill="#252525"
         stroke="none"
         font-family="geogebra-sans-serif, sans-serif"
         font-size="12px"
         font-style="normal"
         font-weight="normal"
         text-decoration="normal"
         x="755"
         y="534"
         text-anchor="start"
         dominant-baseline="alphabetic"
         fill-opacity="1"
         id="text21">1.6</text>
      <text
         fill="#252525"
         stroke="none"
         font-family="geogebra-sans-serif, sans-serif"
         font-size="12px"
         font-style="normal"
         font-weight="normal"
         text-decoration="normal"
         x="820"
         y="534"
         text-anchor="start"
         dominant-baseline="alphabetic"
         fill-opacity="1"
         id="text22">1.8</text>
      <text
         fill="#252525"
         stroke="none"
         font-family="geogebra-sans-serif, sans-serif"
         font-size="12px"
         font-style="normal"
         font-weight="normal"
         text-decoration="normal"
         x="891"
         y="534"
         text-anchor="start"
         dominant-baseline="alphabetic"
         fill-opacity="1"
         id="text23">2</text>
      <text
         fill="#252525"
         stroke="none"
         font-family="geogebra-sans-serif, sans-serif"
         font-size="12px"
         font-style="normal"
         font-weight="normal"
         text-decoration="normal"
         x="949"
         y="534"
         text-anchor="start"
         dominant-baseline="alphabetic"
         fill-opacity="1"
         id="text24">2.2</text>
      <text
         fill="#252525"
         stroke="none"
         font-family="geogebra-sans-serif, sans-serif"
         font-size="12px"
         font-style="normal"
         font-weight="normal"
         text-decoration="normal"
         x="1014"
         y="534"
         text-anchor="start"
         dominant-baseline="alphabetic"
         fill-opacity="1"
         id="text25">2.4</text>
      <text
         fill="#252525"
         stroke="none"
         font-family="geogebra-sans-serif, sans-serif"
         font-size="12px"
         font-style="normal"
         font-weight="normal"
         text-decoration="normal"
         x="1079"
         y="534"
         text-anchor="start"
         dominant-baseline="alphabetic"
         fill-opacity="1"
         id="text26">2.6</text>
      <text
         fill="#252525"
         stroke="none"
         font-family="geogebra-sans-serif, sans-serif"
         font-size="12px"
         font-style="normal"
         font-weight="normal"
         text-decoration="normal"
         x="216"
         y="652"
         text-anchor="start"
         dominant-baseline="alphabetic"
         fill-opacity="1"
         id="text27">–0.4</text>
      <text
         fill="#252525"
         stroke="none"
         font-family="geogebra-sans-serif, sans-serif"
         font-size="12px"
         font-style="normal"
         font-weight="normal"
         text-decoration="normal"
         x="216"
         y="588"
         text-anchor="start"
         dominant-baseline="alphabetic"
         fill-opacity="1"
         id="text28">–0.2</text>
      <text
         fill="#252525"
         stroke="none"
         font-family="geogebra-sans-serif, sans-serif"
         font-size="12px"
         font-style="normal"
         font-weight="normal"
         text-decoration="normal"
         x="222"
         y="458"
         text-anchor="start"
         dominant-baseline="alphabetic"
         fill-opacity="1"
         id="text29">0.2</text>
      <text
         fill="#252525"
         stroke="none"
         font-family="geogebra-sans-serif, sans-serif"
         font-size="12px"
         font-style="normal"
         font-weight="normal"
         text-decoration="normal"
         x="222"
         y="393"
         text-anchor="start"
         dominant-baseline="alphabetic"
         fill-opacity="1"
         id="text30">0.4</text>
      <text
         fill="#252525"
         stroke="none"
         font-family="geogebra-sans-serif, sans-serif"
         font-size="12px"
         font-style="normal"
         font-weight="normal"
         text-decoration="normal"
         x="222"
         y="329"
         text-anchor="start"
         dominant-baseline="alphabetic"
         fill-opacity="1"
         id="text31">0.6</text>
      <text
         fill="#252525"
         stroke="none"
         font-family="geogebra-sans-serif, sans-serif"
         font-size="12px"
         font-style="normal"
         font-weight="normal"
         text-decoration="normal"
         x="222"
         y="264"
         text-anchor="start"
         dominant-baseline="alphabetic"
         fill-opacity="1"
         id="text32">0.8</text>
      <text
         fill="#252525"
         stroke="none"
         font-family="geogebra-sans-serif, sans-serif"
         font-size="12px"
         font-style="normal"
         font-weight="normal"
         text-decoration="normal"
         x="232"
         y="199"
         text-anchor="start"
         dominant-baseline="alphabetic"
         fill-opacity="1"
         id="text33">1</text>
      <text
         fill="#252525"
         stroke="none"
         font-family="geogebra-sans-serif, sans-serif"
         font-size="12px"
         font-style="normal"
         font-weight="normal"
         text-decoration="normal"
         x="222"
         y="135"
         text-anchor="start"
         dominant-baseline="alphabetic"
         fill-opacity="1"
         id="text34">1.2</text>
      <text
         fill="#252525"
         stroke="none"
         font-family="geogebra-sans-serif, sans-serif"
         font-size="12px"
         font-style="normal"
         font-weight="normal"
         text-decoration="normal"
         x="222"
         y="70"
         text-anchor="start"
         dominant-baseline="alphabetic"
         fill-opacity="1"
         id="text35">1.4</text>
      <text
         fill="#252525"
         stroke="none"
         font-family="geogebra-sans-serif, sans-serif"
         font-size="12px"
         font-style="normal"
         font-weight="normal"
         text-decoration="normal"
         x="232"
         y="534"
         text-anchor="start"
         dominant-baseline="alphabetic"
         fill-opacity="1"
         id="text36">0</text>
      <path
         fill="none"
         stroke="#000000"
         paint-order="fill stroke markers"
         d="M 246.25296,194.94711 569.6329,518.32706"
         stroke-opacity="0.698039"
         stroke-linecap="round"
         stroke-linejoin="round"
         stroke-miterlimit="10"
         stroke-width="2.5"
         id="path36" />
      <path
         fill="#000080"
         stroke="none"
         paint-order="stroke fill markers"
         d="m 250.25296,194.94711 c 0,2.20914 -1.79086,4 -4,4 -2.20914,0 -4,-1.79086 -4,-4 0,-2.20914 1.79086,-4 4,-4 2.20914,0 4,1.79086 4,4 z"
         fill-opacity="1"
         id="path37" />
      <g
         transform="scale(19)"
         id="g43">
        <g
           transform="translate(13.368421,9.4342105)"
           id="g38">
          <path
             fill="#000080"
             stroke="none"
             paint-order="stroke fill markers"
             d="m 0.331,0.24 v 0 q 0,0.01 -0.01,0.01 Q 0.309,0.25 0.268,0.209 0.206,0.147 0.165,0.062 0.099,-0.074 0.099,-0.25 q 0,-0.169 0.063,-0.305 0.052,-0.111 0.132,-0.178 0.021,-0.017 0.027,-0.017 0.01,0 0.01,0.01 0,0.005 -0.013,0.017 -0.161,0.164 -0.161,0.473 0,0.308 0.157,0.468 0.017,0.017 0.017,0.022 z"
             id="path38" />
        </g>
        <g
           transform="translate(13.757421,9.4342105)"
           id="g39">
          <path
             fill="#000080"
             stroke="none"
             paint-order="stroke fill markers"
             d="m 0.46,-0.32 q 0,0.146 -0.037,0.226 Q 0.364,0.018 0.249,0.022 0.158,0.022 0.103,-0.05 0.092,-0.063 0.084,-0.079 0.039,-0.162 0.039,-0.32 q 0,-0.147 0.037,-0.227 0.05,-0.112 0.162,-0.119 H 0.25 q 0.089,0 0.145,0.071 v 0.001 q 0.014,0.018 0.025,0.04 0.04,0.085 0.04,0.234 M 0.249,0 v 0 q 0.063,0 0.097,-0.061 0.014,-0.027 0.02,-0.064 0.011,-0.064 0.011,-0.207 0,-0.139 -0.01,-0.195 -0.018,-0.095 -0.092,-0.114 -0.013,-0.003 -0.026,-0.003 -0.07,0 -0.102,0.07 -0.011,0.024 -0.017,0.058 -0.008,0.054 -0.008,0.184 0,0.151 0.011,0.211 0.018,0.096 0.088,0.117 Q 0.235,0 0.249,0 Z"
             id="path39" />
        </g>
        <g
           transform="translate(14.257421,9.4342105)"
           id="g40">
          <path
             fill="#000080"
             stroke="none"
             paint-order="stroke fill markers"
             d="m 0.203,-0.001 v 0 q 0,0.097 -0.063,0.17 -0.017,0.02 -0.028,0.024 -0.01,0 -0.01,-0.011 0,-0.005 0.011,-0.016 0.06,-0.06 0.067,-0.147 0.001,-0.01 0.001,-0.02 0,-0.015 -0.002,-0.015 -0.001,0 -0.005,0.003 Q 0.16,0 0.139,0 0.102,0 0.09,-0.034 0.086,-0.043 0.086,-0.053 q 0,-0.036 0.031,-0.049 0.01,-0.004 0.022,-0.004 0.044,0 0.059,0.058 0.005,0.021 0.005,0.047 z"
             id="path40" />
        </g>
        <g
           transform="translate(14.702088,9.4342105)"
           id="g41">
          <path
             fill="#000080"
             stroke="none"
             paint-order="stroke fill markers"
             d="m 0.294,-0.64 v 0.561 q 0,0.03 0.012,0.038 0.017,0.01 0.081,0.01 H 0.419 V 0 Q 0.384,-0.003 0.257,-0.003 0.13,-0.003 0.095,0 v -0.031 h 0.032 q 0.077,0 0.088,-0.018 L 0.216,-0.05 Q 0.22,-0.058 0.22,-0.079 v -0.518 q -0.052,0.026 -0.131,0.026 v -0.031 q 0.12,0 0.182,-0.064 0.019,0 0.022,0.007 v 0 0.001 q 0.001,0.003 0.001,0.018 z"
             id="path41" />
        </g>
        <g
           transform="translate(15.202088,9.4342105)"
           id="g42">
          <path
             fill="#000080"
             stroke="none"
             paint-order="stroke fill markers"
             d="m 0.289,-0.25 v 0 q 0,0.169 -0.063,0.305 Q 0.174,0.166 0.094,0.233 0.073,0.25 0.067,0.25 q -0.01,0 -0.01,-0.01 0,-0.005 0.013,-0.017 0.161,-0.164 0.161,-0.473 0,-0.305 -0.15,-0.462 L 0.076,-0.717 Q 0.057,-0.735 0.057,-0.74 q 0,-0.01 0.01,-0.01 0.012,0 0.053,0.041 0.062,0.062 0.103,0.147 0.066,0.136 0.066,0.312 z"
             id="path42" />
        </g>
      </g>
      <path
         fill="#000080"
         stroke="none"
         paint-order="stroke fill markers"
         d="m 573.6329,518.32706 c 0,2.20913 -1.79086,4 -4,4 -2.20914,0 -4,-1.79087 -4,-4 0,-2.20914 1.79086,-4 4,-4 2.20914,0 4,1.79086 4,4 z"
         fill-opacity="1"
         id="path43" />
      <g
         transform="scale(19)"
         id="g49">
        <g
           transform="translate(30.421053,26.434211)"
           id="g44">
          <path
             fill="#000080"
             stroke="none"
             paint-order="stroke fill markers"
             d="m 0.331,0.24 v 0 q 0,0.01 -0.01,0.01 Q 0.309,0.25 0.268,0.209 0.206,0.147 0.165,0.062 0.099,-0.074 0.099,-0.25 q 0,-0.169 0.063,-0.305 0.052,-0.111 0.132,-0.178 0.021,-0.017 0.027,-0.017 0.01,0 0.01,0.01 0,0.005 -0.013,0.017 -0.161,0.164 -0.161,0.473 0,0.308 0.157,0.468 0.017,0.017 0.017,0.022 z"
             id="path44" />
        </g>
        <g
           transform="translate(30.810053,26.434211)"
           id="g45">
          <path
             fill="#000080"
             stroke="none"
             paint-order="stroke fill markers"
             d="m 0.294,-0.64 v 0.561 q 0,0.03 0.012,0.038 0.017,0.01 0.081,0.01 H 0.419 V 0 Q 0.384,-0.003 0.257,-0.003 0.13,-0.003 0.095,0 v -0.031 h 0.032 q 0.077,0 0.088,-0.018 L 0.216,-0.05 Q 0.22,-0.058 0.22,-0.079 v -0.518 q -0.052,0.026 -0.131,0.026 v -0.031 q 0.12,0 0.182,-0.064 0.019,0 0.022,0.007 v 0 0.001 q 0.001,0.003 0.001,0.018 z"
             id="path45" />
        </g>
        <g
           transform="translate(31.310053,26.434211)"
           id="g46">
          <path
             fill="#000080"
             stroke="none"
             paint-order="stroke fill markers"
             d="m 0.203,-0.001 v 0 q 0,0.097 -0.063,0.17 -0.017,0.02 -0.028,0.024 -0.01,0 -0.01,-0.011 0,-0.005 0.011,-0.016 0.06,-0.06 0.067,-0.147 0.001,-0.01 0.001,-0.02 0,-0.015 -0.002,-0.015 -0.001,0 -0.005,0.003 Q 0.16,0 0.139,0 0.102,0 0.09,-0.034 0.086,-0.043 0.086,-0.053 q 0,-0.036 0.031,-0.049 0.01,-0.004 0.022,-0.004 0.044,0 0.059,0.058 0.005,0.021 0.005,0.047 z"
             id="path46" />
        </g>
        <g
           transform="translate(31.754719,26.434211)"
           id="g47">
          <path
             fill="#000080"
             stroke="none"
             paint-order="stroke fill markers"
             d="m 0.46,-0.32 q 0,0.146 -0.037,0.226 Q 0.364,0.018 0.249,0.022 0.158,0.022 0.103,-0.05 0.092,-0.063 0.084,-0.079 0.039,-0.162 0.039,-0.32 q 0,-0.147 0.037,-0.227 0.05,-0.112 0.162,-0.119 H 0.25 q 0.089,0 0.145,0.071 v 0.001 q 0.014,0.018 0.025,0.04 0.04,0.085 0.04,0.234 M 0.249,0 v 0 q 0.063,0 0.097,-0.061 0.014,-0.027 0.02,-0.064 0.011,-0.064 0.011,-0.207 0,-0.139 -0.01,-0.195 -0.018,-0.095 -0.092,-0.114 -0.013,-0.003 -0.026,-0.003 -0.07,0 -0.102,0.07 -0.011,0.024 -0.017,0.058 -0.008,0.054 -0.008,0.184 0,0.151 0.011,0.211 0.018,0.096 0.088,0.117 Q 0.235,0 0.249,0 Z"
             id="path47" />
        </g>
        <g
           transform="translate(32.254719,26.434211)"
           id="g48">
          <path
             fill="#000080"
             stroke="none"
             paint-order="stroke fill markers"
             d="m 0.289,-0.25 v 0 q 0,0.169 -0.063,0.305 Q 0.174,0.166 0.094,0.233 0.073,0.25 0.067,0.25 q -0.01,0 -0.01,-0.01 0,-0.005 0.013,-0.017 0.161,-0.164 0.161,-0.473 0,-0.305 -0.15,-0.462 L 0.076,-0.717 Q 0.057,-0.735 0.057,-0.74 q 0,-0.01 0.01,-0.01 0.012,0 0.053,0.041 0.062,0.062 0.103,0.147 0.066,0.136 0.066,0.312 z"
             id="path48" />
        </g>
      </g>
      <path
         fill="#800000"
         stroke="none"
         paint-order="stroke fill markers"
         d="m 480.62503,425.31918 c 0,2.20914 -1.79086,4 -4,4 -2.20914,0 -4,-1.79086 -4,-4 0,-2.20913 1.79086,-4 4,-4 2.20914,0 4,1.79087 4,4 z"
         fill-opacity="1"
         id="path49" />
      <g
         transform="scale(19)"
         id="g55">
        <g
           transform="translate(25.368421,21.802632)"
           id="g50">
          <path
             fill="#800000"
             stroke="none"
             paint-order="stroke fill markers"
             d="m 0.331,0.24 v 0 q 0,0.01 -0.01,0.01 Q 0.309,0.25 0.268,0.209 0.206,0.147 0.165,0.062 0.099,-0.074 0.099,-0.25 q 0,-0.169 0.063,-0.305 0.052,-0.111 0.132,-0.178 0.021,-0.017 0.027,-0.017 0.01,0 0.01,0.01 0,0.005 -0.013,0.017 -0.161,0.164 -0.161,0.473 0,0.308 0.157,0.468 0.017,0.017 0.017,0.022 z"
             id="path50" />
        </g>
        <g
           transform="translate(25.757421,21.802632)"
           id="g51">
          <path
             fill="#800000"
             stroke="none"
             paint-order="stroke fill markers"
             d="m 0.35,-0.056 v 0 q -0.052,0.067 -0.119,0.067 -0.081,0 -0.11,-0.059 -0.013,-0.026 -0.013,-0.061 0,-0.054 0.053,-0.196 0.002,-0.007 0.005,-0.014 0.017,-0.043 0.017,-0.068 0,-0.033 -0.025,-0.033 -0.056,0 -0.091,0.095 -0.001,0 -0.001,0.001 v 0.001 q -0.005,0.013 -0.009,0.027 -0.011,0.017 -0.016,0.018 -0.012,0 -0.012,-0.01 0,-0.018 0.021,-0.063 0.044,-0.091 0.111,-0.091 0.053,0 0.074,0.045 0.008,0.017 0.008,0.037 0,0.02 -0.017,0.063 -0.054,0.143 -0.054,0.204 0,0.082 0.062,0.082 0.063,0 0.106,-0.069 0.006,-0.009 0.008,-0.015 0.022,-0.099 0.075,-0.301 0.008,-0.035 0.039,-0.035 0.025,0.005 0.029,0.027 0,-0.002 -0.015,0.067 -0.014,0.051 -0.017,0.068 l -0.028,0.108 q -0.02,0.087 -0.02,0.104 0,0.046 0.031,0.046 0.042,0 0.069,-0.1 0.003,-0.01 0.006,-0.024 0.008,-0.017 0.014,-0.018 0.012,0 0.012,0.01 0,0.015 -0.018,0.07 Q 0.519,-0.056 0.513,-0.044 0.486,0.011 0.439,0.011 0.382,0.011 0.358,-0.037 0.353,-0.046 0.35,-0.056 Z"
             id="path51" />
        </g>
        <g
           transform="translate(26.329421,21.802632)"
           id="g52">
          <path
             fill="#800000"
             stroke="none"
             paint-order="stroke fill markers"
             d="m 0.203,-0.001 v 0 q 0,0.097 -0.063,0.17 -0.017,0.02 -0.028,0.024 -0.01,0 -0.01,-0.011 0,-0.005 0.011,-0.016 0.06,-0.06 0.067,-0.147 0.001,-0.01 0.001,-0.02 0,-0.015 -0.002,-0.015 -0.001,0 -0.005,0.003 Q 0.16,0 0.139,0 0.102,0 0.09,-0.034 0.086,-0.043 0.086,-0.053 q 0,-0.036 0.031,-0.049 0.01,-0.004 0.022,-0.004 0.044,0 0.059,0.058 0.005,0.021 0.005,0.047 z"
             id="path52" />
        </g>
        <g
           transform="translate(26.774088,21.802632)"
           id="g53">
          <path
             fill="#800000"
             stroke="none"
             paint-order="stroke fill markers"
             d="m 0.468,-0.372 q 0,0.055 -0.03,0.154 -0.058,0.194 -0.161,0.224 -0.016,0.005 -0.034,0.005 -0.091,0 -0.121,-0.063 -0.013,-0.026 -0.013,-0.061 0,-0.052 0.046,-0.176 l 0.011,-0.029 q 0.017,-0.044 0.017,-0.07 0,-0.032 -0.025,-0.032 -0.054,0 -0.089,0.089 -0.007,0.016 -0.012,0.035 -0.011,0.017 -0.016,0.018 -0.012,0 -0.012,-0.01 0,-0.018 0.022,-0.063 0.043,-0.091 0.11,-0.091 0.053,0 0.074,0.045 0.008,0.017 0.008,0.037 0,0.021 -0.012,0.05 -0.054,0.144 -0.058,0.199 v 0.013 q 0,0.08 0.064,0.087 h 0.01 q 0.081,0 0.14,-0.136 0.035,-0.08 0.038,-0.135 0,-0.05 -0.034,-0.082 -0.016,-0.016 -0.016,-0.03 0,-0.025 0.026,-0.041 0.011,-0.007 0.023,-0.007 0.029,0 0.04,0.037 0.004,0.014 0.004,0.033 z"
             id="path53" />
        </g>
        <g
           transform="translate(27.295088,21.802632)"
           id="g54">
          <path
             fill="#800000"
             stroke="none"
             paint-order="stroke fill markers"
             d="m 0.289,-0.25 v 0 q 0,0.169 -0.063,0.305 Q 0.174,0.166 0.094,0.233 0.073,0.25 0.067,0.25 q -0.01,0 -0.01,-0.01 0,-0.005 0.013,-0.017 0.161,-0.164 0.161,-0.473 0,-0.305 -0.15,-0.462 L 0.076,-0.717 Q 0.057,-0.735 0.057,-0.74 q 0,-0.01 0.01,-0.01 0.012,0 0.053,0.041 0.062,0.062 0.103,0.147 0.066,0.136 0.066,0.312 z"
             id="path54" />
        </g>
      </g>
    </g>
  </g>
</svg>
