<?xml version="1.0" encoding="UTF-8" standalone="no"?>
<svg
   version="1.1"
   width="373.98999"
   height="26.635"
   id="svg18"
   sodipodi:docname="geogebra-export (5).svg"
   inkscape:version="1.3.2 (091e20e, 2023-11-25, custom)"
   xmlns:inkscape="http://www.inkscape.org/namespaces/inkscape"
   xmlns:sodipodi="http://sodipodi.sourceforge.net/DTD/sodipodi-0.dtd"
   xmlns="http://www.w3.org/2000/svg"
   xmlns:svg="http://www.w3.org/2000/svg">
  <sodipodi:namedview
     id="namedview18"
     pagecolor="#ffffff"
     bordercolor="#000000"
     borderopacity="0.25"
     inkscape:showpageshadow="2"
     inkscape:pageopacity="0.0"
     inkscape:pagecheckerboard="0"
     inkscape:deskcolor="#d1d1d1"
     inkscape:zoom="1.1783626"
     inkscape:cx="354.30521"
     inkscape:cy="64.496278"
     inkscape:window-width="1920"
     inkscape:window-height="1002"
     inkscape:window-x="1912"
     inkscape:window-y="-8"
     inkscape:window-maximized="1"
     inkscape:current-layer="g17" />
  <defs
     id="defs1">
    <clipPath
       id="CIAwudCgeQQU">
      <path
         fill="none"
         stroke="none"
         d="M 0,0 H 1148 V 684 H 0 Z"
         id="path1" />
    </clipPath>
  </defs>
  <g
     clip-path="url(#CIAwudCgeQQU)"
     id="g18"
     transform="translate(-219.83849,-277.88089)">
    <g
       id="g17"
       transform="translate(7.6377186,11.880894)">
      <path
         fill="none"
         stroke="#000000"
         paint-order="fill stroke markers"
         d="M 217.20077,287.63464 H 581.19122"
         stroke-opacity="0.698039"
         stroke-linecap="round"
         stroke-linejoin="round"
         stroke-miterlimit="10"
         stroke-width="2.5"
         id="path2" />
      <path
         fill="#000080"
         stroke="none"
         paint-order="stroke fill markers"
         d="m 221.20077,287.63464 c 0,2.20914 -1.79086,4 -4,4 -2.20914,0 -4,-1.79086 -4,-4 0,-2.20914 1.79086,-4 4,-4 2.20914,0 4,1.79086 4,4 z"
         fill-opacity="1"
         id="path3" />
      <path
         fill="#000080"
         stroke="none"
         paint-order="stroke fill markers"
         d="m 585.19122,287.63464 c 0,2.20914 -1.79086,4 -4,4 -2.20914,0 -4,-1.79086 -4,-4 0,-2.20914 1.79086,-4 4,-4 2.20914,0 4,1.79086 4,4 z"
         fill-opacity="1"
         id="path4" />
      <path
         fill="#800000"
         stroke="none"
         paint-order="stroke fill markers"
         d="m 314.70248,287.63464 c 0,2.20914 -1.79087,4 -4,4 -2.20914,0 -4,-1.79086 -4,-4 0,-2.20914 1.79086,-4 4,-4 2.20913,0 4,1.79086 4,4 z"
         fill-opacity="1"
         id="path5" />
      <path
         fill="#800000"
         stroke="none"
         paint-order="stroke fill markers"
         d="m 463.84027,287.63464 c 0,2.20914 -1.79086,4 -4,4 -2.20914,0 -4,-1.79086 -4,-4 0,-2.20914 1.79086,-4 4,-4 2.20914,0 4,1.79086 4,4 z"
         fill-opacity="1"
         id="path6" />
      <g
         transform="matrix(19,0,0,19,1.0000014,0.999996)"
         id="g8">
        <g
           transform="translate(13.684211,14.641526)"
           id="g7">
          <path
             fill="#000000"
             stroke="none"
             paint-order="stroke fill markers"
             d="m 0.373,-0.378 q 0.005,-0.034 0.031,-0.042 0.005,-0.002 0.011,-0.002 0.026,0 0.029,0.027 0,0.006 -0.007,0.034 l -0.036,0.14 q -0.015,0.063 -0.022,0.09 -0.013,0.052 -0.013,0.074 0,0.046 0.03,0.046 0.038,0 0.064,-0.08 0.005,-0.017 0.012,-0.044 0.008,-0.017 0.014,-0.018 0.012,0 0.012,0.01 0,0.015 -0.018,0.07 Q 0.474,-0.056 0.468,-0.044 0.44,0.011 0.394,0.011 0.338,0.011 0.313,-0.037 0.306,-0.049 0.303,-0.064 0.24,0.011 0.173,0.011 0.098,0.011 0.062,-0.057 0.04,-0.097 0.04,-0.149 q 0,-0.108 0.075,-0.2 0.07,-0.084 0.152,-0.092 0.007,-0.001 0.014,-0.001 0.061,0 0.092,0.064 m -0.065,0.259 v 0 l 0.05,-0.196 q 0.003,-0.015 0.003,-0.017 0,-0.021 -0.018,-0.051 -0.022,-0.037 -0.061,-0.037 -0.052,0 -0.099,0.068 -0.009,0.013 -0.017,0.028 -0.029,0.058 -0.049,0.165 -0.006,0.034 -0.006,0.054 0,0.068 0.038,0.088 0.011,0.006 0.026,0.006 0.056,0 0.113,-0.071 0.014,-0.016 0.019,-0.033 v -0.001 q 0.001,-0.002 0.001,-0.003 z"
             id="path7" />
        </g>
      </g>
      <g
         transform="matrix(19,0,0,19,1.0000014,0.999996)"
         id="g12">
        <g
           transform="translate(19.368421,14.694)"
           id="g9">
          <path
             fill="#000000"
             stroke="none"
             paint-order="stroke fill markers"
             d="m 0.239,-0.683 -0.074,0.301 q 0.058,-0.06 0.117,-0.06 0.075,0 0.112,0.069 0.021,0.04 0.021,0.091 0,0.106 -0.074,0.198 Q 0.272,0.001 0.189,0.01 0.181,0.011 0.174,0.011 q -0.072,0 -0.107,-0.067 -0.02,-0.038 -0.02,-0.09 0,-0.034 0.016,-0.101 l 0.082,-0.326 q 0.014,-0.059 0.014,-0.062 0,-0.011 -0.014,-0.014 v 0 q -0.012,-0.003 -0.036,-0.003 -0.022,0 -0.024,-0.012 0,-0.017 0.019,-0.02 l 0.122,-0.01 q 0.013,0 0.013,0.011 m -0.094,0.378 -0.022,0.092 q -0.016,0.063 -0.016,0.101 0,0.086 0.052,0.099 0.007,0.002 0.015,0.002 0.053,0 0.099,-0.07 0.01,-0.015 0.019,-0.033 0.027,-0.057 0.045,-0.154 0.006,-0.035 0.006,-0.058 0,-0.08 -0.049,-0.092 L 0.293,-0.419 Q 0.287,-0.42 0.28,-0.42 q -0.06,0 -0.12,0.08 -0.008,0.01 -0.015,0.035 z"
             id="path8" />
        </g>
        <g
           transform="translate(20.019643,14.694)"
           id="g10">
          <path
             fill="#000000"
             stroke="none"
             paint-order="stroke fill markers"
             d="M 0.661,-0.23 H 0.116 q -0.032,0 -0.033,-0.02 0,-0.02 0.033,-0.02 h 0.545 q 0.032,0 0.033,0.02 0,0.02 -0.033,0.02 z"
             id="path9" />
        </g>
        <g
           transform="translate(21.019865,14.694)"
           id="g11">
          <path
             fill="#000000"
             stroke="none"
             paint-order="stroke fill markers"
             d="m 0.373,-0.378 q 0.005,-0.034 0.031,-0.042 0.005,-0.002 0.011,-0.002 0.026,0 0.029,0.027 0,0.006 -0.007,0.034 l -0.036,0.14 q -0.015,0.063 -0.022,0.09 -0.013,0.052 -0.013,0.074 0,0.046 0.03,0.046 0.038,0 0.064,-0.08 0.005,-0.017 0.012,-0.044 0.008,-0.017 0.014,-0.018 0.012,0 0.012,0.01 0,0.015 -0.018,0.07 Q 0.474,-0.056 0.468,-0.044 0.44,0.011 0.394,0.011 0.338,0.011 0.313,-0.037 0.306,-0.049 0.303,-0.064 0.24,0.011 0.173,0.011 0.098,0.011 0.062,-0.057 0.04,-0.097 0.04,-0.149 q 0,-0.108 0.075,-0.2 0.07,-0.084 0.152,-0.092 0.007,-0.001 0.014,-0.001 0.061,0 0.092,0.064 m -0.065,0.259 v 0 l 0.05,-0.196 q 0.003,-0.015 0.003,-0.017 0,-0.021 -0.018,-0.051 -0.022,-0.037 -0.061,-0.037 -0.052,0 -0.099,0.068 -0.009,0.013 -0.017,0.028 -0.029,0.058 -0.049,0.165 -0.006,0.034 -0.006,0.054 0,0.068 0.038,0.088 0.011,0.006 0.026,0.006 0.056,0 0.113,-0.071 0.014,-0.016 0.019,-0.033 v -0.001 q 0.001,-0.002 0.001,-0.003 z"
             id="path10" />
        </g>
      </g>
      <g
         transform="matrix(19,0,0,19,1.0000014,0.999996)"
         id="g16">
        <g
           transform="translate(26.684211,14.746632)"
           id="g13">
          <path
             fill="#000000"
             stroke="none"
             paint-order="stroke fill markers"
             d="m 0.294,-0.64 v 0.561 q 0,0.03 0.012,0.038 0.017,0.01 0.081,0.01 H 0.419 V 0 Q 0.384,-0.003 0.257,-0.003 0.13,-0.003 0.095,0 v -0.031 h 0.032 q 0.077,0 0.088,-0.018 L 0.216,-0.05 Q 0.22,-0.058 0.22,-0.079 v -0.518 q -0.052,0.026 -0.131,0.026 v -0.031 q 0.12,0 0.182,-0.064 0.019,0 0.022,0.007 v 0 0.001 q 0.001,0.003 0.001,0.018 z"
             id="path12" />
        </g>
        <g
           transform="translate(27.406433,14.746632)"
           id="g14">
          <path
             fill="#000000"
             stroke="none"
             paint-order="stroke fill markers"
             d="M 0.661,-0.23 H 0.116 q -0.032,0 -0.033,-0.02 0,-0.02 0.033,-0.02 h 0.545 q 0.032,0 0.033,0.02 0,0.02 -0.033,0.02 z"
             id="path13" />
        </g>
        <g
           transform="translate(28.406655,14.746632)"
           id="g15">
          <path
             fill="#000000"
             stroke="none"
             paint-order="stroke fill markers"
             d="m 0.239,-0.683 -0.074,0.301 q 0.058,-0.06 0.117,-0.06 0.075,0 0.112,0.069 0.021,0.04 0.021,0.091 0,0.106 -0.074,0.198 Q 0.272,0.001 0.189,0.01 0.181,0.011 0.174,0.011 q -0.072,0 -0.107,-0.067 -0.02,-0.038 -0.02,-0.09 0,-0.034 0.016,-0.101 l 0.082,-0.326 q 0.014,-0.059 0.014,-0.062 0,-0.011 -0.014,-0.014 v 0 q -0.012,-0.003 -0.036,-0.003 -0.022,0 -0.024,-0.012 0,-0.017 0.019,-0.02 l 0.122,-0.01 q 0.013,0 0.013,0.011 m -0.094,0.378 -0.022,0.092 q -0.016,0.063 -0.016,0.101 0,0.086 0.052,0.099 0.007,0.002 0.015,0.002 0.053,0 0.099,-0.07 0.01,-0.015 0.019,-0.033 0.027,-0.057 0.045,-0.154 0.006,-0.035 0.006,-0.058 0,-0.08 -0.049,-0.092 L 0.293,-0.419 Q 0.287,-0.42 0.28,-0.42 q -0.06,0 -0.12,0.08 -0.008,0.01 -0.015,0.035 z"
             id="path14" />
        </g>
      </g>
    </g>
  </g>
</svg>
