<?xml version="1.0" encoding="UTF-8" standalone="no"?>
<svg
   version="1.1"
   width="413.90601"
   height="37.217999"
   id="svg15"
   sodipodi:docname="geogebra-export (5).svg"
   inkscape:version="1.3.2 (091e20e, 2023-11-25, custom)"
   xmlns:inkscape="http://www.inkscape.org/namespaces/inkscape"
   xmlns:sodipodi="http://sodipodi.sourceforge.net/DTD/sodipodi-0.dtd"
   xmlns="http://www.w3.org/2000/svg"
   xmlns:svg="http://www.w3.org/2000/svg">
  <sodipodi:namedview
     id="namedview15"
     pagecolor="#ffffff"
     bordercolor="#000000"
     borderopacity="0.25"
     inkscape:showpageshadow="true"
     inkscape:pageopacity="0.0"
     inkscape:pagecheckerboard="false"
     inkscape:deskcolor="#d1d1d1"
     borderlayer="true"
     inkscape:zoom="1.1783626"
     inkscape:cx="233.799"
     inkscape:cy="79.77171"
     inkscape:window-width="1920"
     inkscape:window-height="1002"
     inkscape:window-x="1912"
     inkscape:window-y="-8"
     inkscape:window-maximized="1"
     inkscape:current-layer="g15" />
  <defs
     id="defs1">
    <clipPath
       id="EtkThXxFPLnp">
      <path
         fill="none"
         stroke="none"
         d="M 0,0 H 756 V 684 H 0 Z"
         id="path1" />
    </clipPath>
  </defs>
  <g
     transform="translate(-10.334992,-71.387726)"
     clip-path="url(#EtkThXxFPLnp)"
     id="g15">
    <g
       id="g14"
       transform="translate(-75.377168,-85.560791)">
      <path
         fill="none"
         stroke="#000000"
         paint-order="fill stroke markers"
         d="M 90.71216,189.16691 H 494.61864"
         stroke-opacity="0.698039"
         stroke-linecap="round"
         stroke-linejoin="round"
         stroke-miterlimit="10"
         stroke-width="2.5"
         id="path2" />
      <path
         fill="#000080"
         stroke="none"
         paint-order="stroke fill markers"
         d="m 94.71216,189.16691 c 0,2.20914 -1.79086,4 -4,4 -2.20914,0 -4,-1.79086 -4,-4 0,-2.20913 1.79086,-4 4,-4 2.20914,0 4,1.79087 4,4 z"
         fill-opacity="1"
         id="path3" />
      <path
         fill="#000080"
         stroke="none"
         paint-order="stroke fill markers"
         d="m 498.61864,189.16691 c 0,2.20914 -1.79086,4 -4,4 -2.20914,0 -4,-1.79086 -4,-4 0,-2.20913 1.79086,-4 4,-4 2.20914,0 4,1.79087 4,4 z"
         fill-opacity="1"
         id="path4" />
      <path
         fill="#800000"
         stroke="none"
         paint-order="stroke fill markers"
         d="m 218.71128,189.16691 c 0,2.20914 -1.79086,4 -4,4 -2.20914,0 -4,-1.79086 -4,-4 0,-2.20913 1.79086,-4 4,-4 2.20914,0 4,1.79087 4,4 z"
         fill-opacity="1"
         id="path5" />
      <text
         fill="#800000"
         stroke="none"
         font-family="geogebra-sans-serif, sans-serif"
         font-size="16px"
         font-style="normal"
         font-weight="normal"
         text-decoration="normal"
         x="194.71129"
         y="170.10477"
         text-anchor="start"
         dominant-baseline="alphabetic"
         fill-opacity="1"
         id="text5">pick a point</text>
      <g
         transform="matrix(19,0,0,19,-118.28872,-95.895228)"
         id="g7">
        <g
           transform="translate(14.052632,14.483632)"
           id="g6">
          <path
             fill="#000000"
             stroke="none"
             paint-order="stroke fill markers"
             d="m 0.10205078,-0.02880859 q 0.0166016,0.01367187 0.0429688,0.01367187 0.0302734,0 0.0507813,-0.0300293 0.0205078,-0.03002929 0.0292969,-0.06567382 l 0.0449219,-0.17919922 q 0.0107422,-0.0419922 0.0107422,-0.0668945 0,-0.0244141 -0.0112305,-0.041748 -0.0112305,-0.017334 -0.0336914,-0.017334 -0.0292969,0 -0.0546875,0.0205078 -0.0253906,0.0205078 -0.0419922,0.0510254 -0.0166016,0.0305176 -0.0239258,0.0603027 -0.00293,0.006348 -0.008301,0.006348 h -0.0180664 q -0.0078125,0 -0.0078125,-0.009277 v -0.00293 q 0.0092773,-0.0361328 0.03173828,-0.0715332 0.0224609,-0.0354004 0.0546875,-0.0578613 0.0322266,-0.0224609 0.0693359,-0.0224609 0.0322266,0 0.0583496,0.0170898 0.026123,0.0170898 0.0388184,0.046875 0.0166016,-0.027832 0.0412598,-0.0458984 0.0246582,-0.0180664 0.0529785,-0.0180664 0.0170898,0 0.0322266,0.003906 0.0151367,0.003906 0.027832,0.012207 0.0126953,0.008301 0.0207519,0.020752 0.008057,0.0124512 0.008057,0.0300293 0,0.0234375 -0.0148926,0.0402832 -0.0148926,0.0168457 -0.0383301,0.0168457 -0.0141602,0 -0.0244141,-0.009277 -0.0102539,-0.009277 -0.0102539,-0.0239258 0,-0.0180664 0.0117188,-0.0322266 0.0117188,-0.0141602 0.0283203,-0.0185547 -0.015625,-0.0141602 -0.043457,-0.0141602 -0.0292969,0 -0.050293,0.0305176 -0.0209961,0.0305176 -0.0292969,0.0656738 l -0.0454102,0.17871094 q -0.003418,0.0166016 -0.00708,0.0349121 -0.003662,0.01831055 -0.003662,0.03198242 0,0.02392578 0.0117188,0.04150391 0.0117188,0.01757812 0.0341797,0.01757812 0.0297852,0 0.0549316,-0.02050781 0.0251465,-0.02050781 0.0415039,-0.05053711 0.0163574,-0.0300293 0.0236816,-0.06079102 0.001953,-0.005859 0.007813,-0.005859 h 0.0180664 q 0.003906,0 0.006592,0.002441 0.002686,0.002441 0.002686,0.006348 0,9.7656e-4 -9.7656e-4,0.00293 -0.009277,0.0371094 -0.03125,0.07226562 -0.0219727,0.03515625 -0.0549317,0.05761719 -0.032959,0.02246094 -0.0700684,0.02246094 -0.0322266,0 -0.0578613,-0.01733399 Q 0.2504896,-0.02343643 0.2377943,-0.05322159 0.2211927,-0.02538956 0.197267,-0.00707901 0.1733412,0.01123154 0.1440443,0.01123154 q -0.0341797,0 -0.06152344,-0.01733399 -0.02734375,-0.01733398 -0.02734375,-0.05004882 0,-0.02294922 0.01489258,-0.03979493 0.01489258,-0.0168457 0.03686523,-0.0168457 0.015625,0 0.0258789,0.009033 0.0102539,0.0090332 0.0102539,0.02368165 0,0.01757812 -0.0117188,0.03173828 -0.0117188,0.01416015 -0.0292969,0.01953125 z"
             id="path6" />
        </g>
      </g>
      <g
         transform="matrix(19,0,0,19,-118.28872,-95.895228)"
         id="g13">
        <g
           transform="translate(23.578947,14.275579)"
           id="g8">
          <path
             fill="#000000"
             stroke="none"
             paint-order="stroke fill markers"
             d="M 0.486,-0.381 0.39,0.001 Q 0.366,0.099 0.283,0.16 0.222,0.205 0.156,0.205 0.089,0.205 0.061,0.159 0.05,0.14 0.05,0.118 0.05,0.067 0.091,0.055 0.099,0.053 0.106,0.053 q 0.032,0 0.036,0.028 0.001,0.003 0.001,0.007 0,0.023 -0.02,0.041 -0.014,0.012 -0.043,0.012 0.018,0.042 0.076,0.042 0.062,0 0.11,-0.063 0.039,-0.052 0.062,-0.141 0.001,-0.004 0.003,-0.013 -0.045,0.045 -0.101,0.045 -0.08,0 -0.109,-0.059 -0.013,-0.026 -0.013,-0.06 0,-0.055 0.053,-0.197 0.002,-0.006 0.005,-0.013 0.017,-0.046 0.017,-0.07 0,-0.032 -0.025,-0.032 -0.055,0 -0.09,0.091 v 0.001 q -0.006,0.015 -0.011,0.032 -0.011,0.017 -0.016,0.018 -0.012,0 -0.012,-0.01 0,-0.018 0.021,-0.063 0.044,-0.091 0.111,-0.091 0.053,0 0.074,0.045 0.008,0.017 0.008,0.037 0,0.021 -0.02,0.072 -0.051,0.132 -0.051,0.196 0,0.081 0.062,0.081 0.058,0 0.101,-0.062 0.01,-0.015 0.012,-0.023 l 0.045,-0.18 q 0.007,-0.033 0.02,-0.08 0.01,-0.043 0.014,-0.054 0.013,-0.021 0.035,-0.021 0.025,0.005 0.029,0.027 0,0.009 -0.004,0.023 z"
             id="path7" />
        </g>
        <g
           transform="translate(24.382725,14.275579)"
           id="g9">
          <path
             fill="#000000"
             stroke="none"
             paint-order="stroke fill markers"
             d="M 0.687,-0.327 H 0.09 q -0.032,0 -0.034,-0.02 0,-0.02 0.033,-0.02 h 0.599 q 0.032,0 0.033,0.02 0,0.02 -0.034,0.02 m 10e-4,0.194 H 0.089 q -0.032,0 -0.033,-0.02 0,-0.02 0.034,-0.02 h 0.597 q 0.032,0 0.034,0.02 0,0.02 -0.033,0.02 z"
             id="path8" />
        </g>
        <g
           transform="translate(25.438503,14.275579)"
           id="g10">
          <path
             fill="#000000"
             stroke="none"
             paint-order="stroke fill markers"
             d="m 0.294,-0.64 v 0.561 q 0,0.03 0.012,0.038 0.017,0.01 0.081,0.01 H 0.419 V 0 Q 0.384,-0.003 0.257,-0.003 0.13,-0.003 0.095,0 v -0.031 h 0.032 q 0.077,0 0.088,-0.018 L 0.216,-0.05 Q 0.22,-0.058 0.22,-0.079 v -0.518 q -0.052,0.026 -0.131,0.026 v -0.031 q 0.12,0 0.182,-0.064 0.019,0 0.022,0.007 v 0 0.001 q 0.001,0.003 0.001,0.018 z"
             id="path9" />
        </g>
        <g
           transform="translate(26.160725,14.275579)"
           id="g11">
          <path
             fill="#000000"
             stroke="none"
             paint-order="stroke fill markers"
             d="M 0.661,-0.23 H 0.116 q -0.032,0 -0.033,-0.02 0,-0.02 0.033,-0.02 h 0.545 q 0.032,0 0.033,0.02 0,0.02 -0.033,0.02 z"
             id="path10" />
        </g>
        <g
           transform="translate(27.160947,14.275579)"
           id="g12">
          <path
             fill="#000000"
             stroke="none"
             paint-order="stroke fill markers"
             d="M 0.334,-0.302 0.3,-0.165 q -0.017,0.068 -0.017,0.088 0,0.052 0.037,0.063 0.008,0.003 0.018,0.003 0.05,0 0.091,-0.05 0.027,-0.032 0.042,-0.081 0.003,-0.011 0.013,-0.011 0.012,0 0.012,0.01 0,0.025 -0.031,0.072 Q 0.411,0.011 0.336,0.011 0.268,0.011 0.237,-0.046 0.231,-0.055 0.228,-0.065 0.204,-0.017 0.162,0.002 0.143,0.011 0.123,0.011 q -0.06,0 -0.084,-0.035 -0.01,-0.013 -0.01,-0.031 0,-0.037 0.032,-0.052 0.011,-0.006 0.023,-0.006 0.03,0 0.036,0.025 0.001,0.005 0.001,0.01 0,0.034 -0.034,0.05 -0.006,0.003 -0.013,0.004 0.021,0.013 0.05,0.013 0.053,0 0.084,-0.071 0.006,-0.015 0.011,-0.033 0.054,-0.204 0.054,-0.238 -0.006,-0.062 -0.054,-0.067 -0.052,0 -0.095,0.053 v 0.001 q 0,0.001 -0.001,0.001 -0.015,0.02 -0.027,0.046 -0.005,0.012 -0.009,0.024 l -0.002,0.006 q -0.002,0.011 -0.013,0.011 -0.012,0 -0.012,-0.01 0,-0.025 0.032,-0.072 0.054,-0.082 0.129,-0.082 0.077,0 0.108,0.076 0.032,-0.062 0.085,-0.074 0.01,-0.002 0.02,-0.002 0.059,0 0.083,0.033 0.01,0.014 0.01,0.033 0,0.041 -0.037,0.055 -0.009,0.003 -0.017,0.003 -0.031,0 -0.037,-0.027 -0.001,-0.004 -0.001,-0.008 0,-0.03 0.029,-0.047 0.009,-0.005 0.019,-0.007 -0.021,-0.013 -0.05,-0.013 -0.068,0 -0.096,0.106 -0.002,0.006 -0.003,0.012 z"
             id="path11" />
        </g>
      </g>
    </g>
  </g>
</svg>
