<?xml version="1.0" encoding="UTF-8" standalone="no"?>
<svg
   version="1.1"
   width="500"
   height="250"
   id="svg33"
   sodipodi:docname="geogebra-export.svg"
   inkscape:version="1.3.2 (091e20e, 2023-11-25, custom)"
   xmlns:inkscape="http://www.inkscape.org/namespaces/inkscape"
   xmlns:sodipodi="http://sodipodi.sourceforge.net/DTD/sodipodi-0.dtd"
   xmlns="http://www.w3.org/2000/svg"
   xmlns:svg="http://www.w3.org/2000/svg">
  <sodipodi:namedview
     id="namedview33"
     pagecolor="#ffffff"
     bordercolor="#000000"
     borderopacity="0.25"
     inkscape:showpageshadow="2"
     inkscape:pageopacity="0.0"
     inkscape:pagecheckerboard="0"
     inkscape:deskcolor="#d1d1d1"
     inkscape:zoom="1.1994048"
     inkscape:cx="569.86599"
     inkscape:cy="202.60049"
     inkscape:window-width="1920"
     inkscape:window-height="1002"
     inkscape:window-x="1912"
     inkscape:window-y="-8"
     inkscape:window-maximized="1"
     inkscape:current-layer="g32" />
  <defs
     id="defs1">
    <clipPath
       id="LEbRacwovnza">
      <path
         fill="none"
         stroke="none"
         d="M 0,0 H 1140 V 672 H 0 Z"
         id="path1" />
    </clipPath>
  </defs>
  <g
     clip-path="url(#LEbRacwovnza)"
     id="g33">
    <g
       id="g32">
      <path
         fill="none"
         stroke="#000000"
         paint-order="fill stroke markers"
         d="M 303.81891,483.07196 76.152246,-199.92803"
         stroke-opacity="0.698039"
         stroke-linejoin="round"
         stroke-miterlimit="10"
         stroke-dasharray="9, 8"
         id="path2" />
      <path
         fill="#000000"
         stroke="none"
         paint-order="stroke fill markers"
         d="m 491.41989,81.540665 -17.47158,1.34397 0.94868,2.84605 L 8.8575,241.07719 c -0.65493,0.21831 -1.0088799,0.92621 -0.79057,1.58114 0.17459,0.52378 0.66233,0.85505 1.18568,0.85505 0.13104,0 0.26431,-0.0208 0.39546,-0.0645 L 475.68756,88.102395 v 0 l 0.94868,2.84605 z"
         fill-opacity="0.698039"
         id="path3" />
      <g
         transform="matrix(19,0,0,19,-237.95037,-194.92803)"
         id="g6">
        <g
           transform="translate(29.1275,18.871895)"
           id="g4">
          <path
             fill="#000000"
             stroke="none"
             paint-order="stroke fill markers"
             d="m 0.537,-0.595 h -0.32 q -0.031,0 -0.034,-0.014 -0.001,-0.003 -0.001,-0.006 0.006,-0.02 0.035,-0.02 h 0.337 q -0.02,-0.026 -0.024,-0.058 0,-0.016 0.014,-0.02 0.003,-0.001 0.006,-0.001 0.015,0 0.02,0.022 0.013,0.038 0.041,0.057 0.014,0.01 0.014,0.02 0,0.011 -0.017,0.021 -0.045,0.022 -0.079,0.065 -0.011,0.013 -0.019,0.013 -0.014,0 -0.019,-0.014 -0.001,-0.003 -0.001,-0.006 0,-0.016 0.047,-0.059 z"
             fill-opacity="1"
             id="path4" />
        </g>
        <g
           transform="translate(29,18.871895)"
           id="g5">
          <path
             fill="#000000"
             stroke="none"
             paint-order="stroke fill markers"
             d="M 0.462,-0.339 0.42,-0.171 q -0.011,0.039 -0.011,0.073 0.008,0.082 0.074,0.087 0.067,0 0.11,-0.088 0.034,-0.068 0.051,-0.153 0.004,-0.019 0.004,-0.03 0,-0.049 -0.036,-0.085 -0.015,-0.013 -0.015,-0.027 0,-0.025 0.027,-0.041 0.011,-0.007 0.023,-0.007 0.028,0 0.039,0.035 0.005,0.015 0.005,0.035 0,0.062 -0.04,0.189 -0.013,0.041 -0.026,0.071 -0.053,0.123 -0.145,0.123 -0.097,0 -0.125,-0.07 -0.04,0.07 -0.104,0.07 -0.098,0 -0.13,-0.067 -0.012,-0.026 -0.012,-0.059 0,-0.051 0.053,-0.195 0.002,-0.003 0.003,-0.007 0.018,-0.044 0.018,-0.07 0,-0.033 -0.025,-0.033 -0.061,0 -0.097,0.111 -0.002,0.006 -0.004,0.013 -0.011,0.017 -0.016,0.018 -0.012,0 -0.012,-0.01 0,-0.018 0.021,-0.063 0.044,-0.091 0.111,-0.091 0.052,0 0.073,0.044 0.009,0.017 0.009,0.038 0,0.018 -0.017,0.064 -0.052,0.136 -0.052,0.194 0,0.089 0.08,0.091 0.056,0 0.092,-0.084 -0.001,-0.005 -0.001,-0.018 0,-0.027 0.009,-0.066 l 0.057,-0.224 q 0.009,-0.026 0.037,-0.028 0.025,0.005 0.029,0.027 0,-0.001 -0.015,0.065 z"
             fill-opacity="1"
             id="path5" />
        </g>
      </g>
      <path
         fill="#000000"
         stroke="none"
         paint-order="stroke fill markers"
         d="m 169.97515,81.540665 -15.02602,9.01562 2.12132,2.12132 L 8.3689,241.37916 c -0.4881599,0.48816 -0.4881599,1.27961 0,1.76777 0.24408,0.24408 0.56398,0.36611 0.88388,0.36611 0.3199,0 0.63981,-0.12203 0.88388,-0.36611 l 148.70156,-148.701565 2.12132,2.121325 z"
         fill-opacity="0.698039"
         id="path6" />
      <g
         transform="matrix(19,0,0,19,-237.95037,-194.92803)"
         id="g10">
        <g
           transform="translate(19.763961,14.714)"
           id="g7">
          <path
             fill="#000000"
             stroke="none"
             paint-order="stroke fill markers"
             d="m 0.537,-0.595 h -0.32 q -0.031,0 -0.034,-0.014 -0.001,-0.003 -0.001,-0.006 0.006,-0.02 0.035,-0.02 h 0.337 q -0.02,-0.026 -0.024,-0.058 0,-0.016 0.014,-0.02 0.003,-0.001 0.006,-0.001 0.015,0 0.02,0.022 0.013,0.038 0.041,0.057 0.014,0.01 0.014,0.02 0,0.011 -0.017,0.021 -0.045,0.022 -0.079,0.065 -0.011,0.013 -0.019,0.013 -0.014,0 -0.019,-0.014 -0.001,-0.003 -0.001,-0.006 0,-0.016 0.047,-0.059 z"
             fill-opacity="1"
             id="path7" />
        </g>
        <g
           transform="translate(19.684211,14.714)"
           id="g8">
          <path
             fill="#000000"
             stroke="none"
             paint-order="stroke fill markers"
             d="M 0.334,-0.302 0.3,-0.165 q -0.017,0.068 -0.017,0.088 0,0.052 0.037,0.063 0.008,0.003 0.018,0.003 0.05,0 0.091,-0.05 0.027,-0.032 0.042,-0.081 0.003,-0.011 0.013,-0.011 0.012,0 0.012,0.01 0,0.025 -0.031,0.072 Q 0.411,0.011 0.336,0.011 0.268,0.011 0.237,-0.046 0.231,-0.055 0.228,-0.065 0.204,-0.017 0.162,0.002 0.143,0.011 0.123,0.011 q -0.06,0 -0.084,-0.035 -0.01,-0.013 -0.01,-0.031 0,-0.037 0.032,-0.052 0.011,-0.006 0.023,-0.006 0.03,0 0.036,0.025 0.001,0.005 0.001,0.01 0,0.034 -0.034,0.05 -0.006,0.003 -0.013,0.004 0.021,0.013 0.05,0.013 0.053,0 0.084,-0.071 0.006,-0.015 0.011,-0.033 0.054,-0.204 0.054,-0.238 -0.006,-0.062 -0.054,-0.067 -0.052,0 -0.095,0.053 v 0.001 q 0,0.001 -0.001,0.001 -0.015,0.02 -0.027,0.046 -0.005,0.012 -0.009,0.024 l -0.002,0.006 q -0.002,0.011 -0.013,0.011 -0.012,0 -0.012,-0.01 0,-0.025 0.032,-0.072 0.054,-0.082 0.129,-0.082 0.077,0 0.108,0.076 0.032,-0.062 0.085,-0.074 0.01,-0.002 0.02,-0.002 0.059,0 0.083,0.033 0.01,0.014 0.01,0.033 0,0.041 -0.037,0.055 -0.009,0.003 -0.017,0.003 -0.031,0 -0.037,-0.027 -0.001,-0.004 -0.001,-0.008 0,-0.03 0.029,-0.047 0.009,-0.005 0.019,-0.007 -0.021,-0.013 -0.05,-0.013 -0.068,0 -0.096,0.106 -0.002,0.006 -0.003,0.012 z"
             fill-opacity="1"
             id="path8" />
        </g>
        <g
           transform="matrix(0.7,0,0,0.7,20.256211,14.864)"
           id="g9">
          <path
             fill="#000000"
             stroke="none"
             paint-order="stroke fill markers"
             d="m 0.284,-0.625 q 0,0.031 -0.031,0.047 -0.011,0.006 -0.022,0.006 -0.03,0 -0.037,-0.027 -0.001,-0.005 -0.001,-0.009 0,-0.028 0.028,-0.045 0.013,-0.008 0.026,-0.008 0.03,0 0.036,0.027 v 0.001 q 0.001,0.004 0.001,0.008 m -0.076,0.376 -0.039,0.105 q -0.028,0.081 -0.029,0.1 0,0.033 0.024,0.033 0.063,0 0.098,-0.112 l 0.004,-0.012 q 0.005,-0.016 0.01,-0.017 v -0.001 h 0.005 q 0.012,0 0.012,0.01 0,0.018 -0.022,0.064 -0.043,0.09 -0.109,0.09 -0.053,0 -0.074,-0.044 -0.008,-0.018 -0.008,-0.038 0,-0.02 0.023,-0.08 0.07,-0.188 0.069,-0.185 0.011,-0.028 0.011,-0.052 0,-0.032 -0.025,-0.032 -0.055,0 -0.09,0.091 v 0.001 q -0.006,0.015 -0.011,0.032 -0.011,0.017 -0.016,0.018 -0.012,0 -0.012,-0.01 0,-0.018 0.022,-0.063 0.043,-0.091 0.11,-0.091 0.053,0 0.074,0.045 0.008,0.017 0.008,0.037 0,0.02 -0.013,0.053 -0.017,0.046 -0.022,0.058 z"
             fill-opacity="1"
             id="path9" />
        </g>
      </g>
      <path
         fill="#000080"
         stroke="none"
         paint-order="stroke fill markers"
         d="m 202.11963,177.9741 -17.47159,1.34396 0.94869,2.84605 L 8.8575,241.07719 c -0.65493,0.21831 -1.0088799,0.92621 -0.79057,1.58114 0.17459,0.52378 0.66233,0.85505 1.18568,0.85505 0.13104,0 0.26431,-0.0208 0.39546,-0.0645 l 176.73922,-58.91308 0.94869,2.84605 z"
         fill-opacity="0.698039"
         id="path10" />
      <g
         transform="matrix(19,0,0,19,-237.95037,-194.92803)"
         id="g18">
        <g
           transform="translate(18.395539,22.345579)"
           id="g11">
          <path
             fill="#000080"
             stroke="none"
             paint-order="stroke fill markers"
             d="m 0.537,-0.595 h -0.32 q -0.031,0 -0.034,-0.014 -0.001,-0.003 -0.001,-0.006 0.006,-0.02 0.035,-0.02 h 0.337 q -0.02,-0.026 -0.024,-0.058 0,-0.016 0.014,-0.02 0.003,-0.001 0.006,-0.001 0.015,0 0.02,0.022 0.013,0.038 0.041,0.057 0.014,0.01 0.014,0.02 0,0.011 -0.017,0.021 -0.045,0.022 -0.079,0.065 -0.011,0.013 -0.019,0.013 -0.014,0 -0.019,-0.014 -0.001,-0.003 -0.001,-0.006 0,-0.016 0.047,-0.059 z"
             fill-opacity="1"
             id="path11" />
        </g>
        <g
           transform="translate(18.315789,22.345579)"
           id="g12">
          <path
             fill="#000080"
             stroke="none"
             paint-order="stroke fill markers"
             d="M 0.334,-0.302 0.3,-0.165 q -0.017,0.068 -0.017,0.088 0,0.052 0.037,0.063 0.008,0.003 0.018,0.003 0.05,0 0.091,-0.05 0.027,-0.032 0.042,-0.081 0.003,-0.011 0.013,-0.011 0.012,0 0.012,0.01 0,0.025 -0.031,0.072 Q 0.411,0.011 0.336,0.011 0.268,0.011 0.237,-0.046 0.231,-0.055 0.228,-0.065 0.204,-0.017 0.162,0.002 0.143,0.011 0.123,0.011 q -0.06,0 -0.084,-0.035 -0.01,-0.013 -0.01,-0.031 0,-0.037 0.032,-0.052 0.011,-0.006 0.023,-0.006 0.03,0 0.036,0.025 0.001,0.005 0.001,0.01 0,0.034 -0.034,0.05 -0.006,0.003 -0.013,0.004 0.021,0.013 0.05,0.013 0.053,0 0.084,-0.071 0.006,-0.015 0.011,-0.033 0.054,-0.204 0.054,-0.238 -0.006,-0.062 -0.054,-0.067 -0.052,0 -0.095,0.053 v 0.001 q 0,0.001 -0.001,0.001 -0.015,0.02 -0.027,0.046 -0.005,0.012 -0.009,0.024 l -0.002,0.006 q -0.002,0.011 -0.013,0.011 -0.012,0 -0.012,-0.01 0,-0.025 0.032,-0.072 0.054,-0.082 0.129,-0.082 0.077,0 0.108,0.076 0.032,-0.062 0.085,-0.074 0.01,-0.002 0.02,-0.002 0.059,0 0.083,0.033 0.01,0.014 0.01,0.033 0,0.041 -0.037,0.055 -0.009,0.003 -0.017,0.003 -0.031,0 -0.037,-0.027 -0.001,-0.004 -0.001,-0.008 0,-0.03 0.029,-0.047 0.009,-0.005 0.019,-0.007 -0.021,-0.013 -0.05,-0.013 -0.068,0 -0.096,0.106 -0.002,0.006 -0.003,0.012 z"
             fill-opacity="1"
             id="path12" />
        </g>
        <g
           transform="matrix(0.7,0,0,0.7,18.887789,22.495579)"
           id="g13">
          <path
             fill="#000080"
             stroke="none"
             paint-order="stroke fill markers"
             d="m 0.284,-0.625 q 0,0.031 -0.031,0.047 -0.011,0.006 -0.022,0.006 -0.03,0 -0.037,-0.027 -0.001,-0.005 -0.001,-0.009 0,-0.028 0.028,-0.045 0.013,-0.008 0.026,-0.008 0.03,0 0.036,0.027 v 0.001 q 0.001,0.004 0.001,0.008 m -0.076,0.376 -0.039,0.105 q -0.028,0.081 -0.029,0.1 0,0.033 0.024,0.033 0.063,0 0.098,-0.112 l 0.004,-0.012 q 0.005,-0.016 0.01,-0.017 v -0.001 h 0.005 q 0.012,0 0.012,0.01 0,0.018 -0.022,0.064 -0.043,0.09 -0.109,0.09 -0.053,0 -0.074,-0.044 -0.008,-0.018 -0.008,-0.038 0,-0.02 0.023,-0.08 0.07,-0.188 0.069,-0.185 0.011,-0.028 0.011,-0.052 0,-0.032 -0.025,-0.032 -0.055,0 -0.09,0.091 v 0.001 q -0.006,0.015 -0.011,0.032 -0.011,0.017 -0.016,0.018 -0.012,0 -0.012,-0.01 0,-0.018 0.022,-0.063 0.043,-0.091 0.11,-0.091 0.053,0 0.074,0.045 0.008,0.017 0.008,0.037 0,0.02 -0.013,0.053 -0.017,0.046 -0.022,0.058 z"
             fill-opacity="1"
             id="path13" />
        </g>
        <g
           transform="translate(19.256789,22.345579)"
           id="g14">
          <path
             fill="#000080"
             stroke="none"
             paint-order="stroke fill markers"
             d="m 0.537,-0.595 h -0.32 q -0.031,0 -0.034,-0.014 -0.001,-0.003 -0.001,-0.006 0.006,-0.02 0.035,-0.02 h 0.337 q -0.02,-0.026 -0.024,-0.058 0,-0.016 0.014,-0.02 0.003,-0.001 0.006,-0.001 0.015,0 0.02,0.022 0.013,0.038 0.041,0.057 0.014,0.01 0.014,0.02 0,0.011 -0.017,0.021 -0.045,0.022 -0.079,0.065 -0.011,0.013 -0.019,0.013 -0.014,0 -0.019,-0.014 -0.001,-0.003 -0.001,-0.006 0,-0.016 0.047,-0.059 z"
             fill-opacity="1"
             id="path14" />
        </g>
        <g
           transform="translate(19.129289,22.345579)"
           id="g15">
          <path
             fill="#000080"
             stroke="none"
             paint-order="stroke fill markers"
             d="M 0.462,-0.339 0.42,-0.171 q -0.011,0.039 -0.011,0.073 0.008,0.082 0.074,0.087 0.067,0 0.11,-0.088 0.034,-0.068 0.051,-0.153 0.004,-0.019 0.004,-0.03 0,-0.049 -0.036,-0.085 -0.015,-0.013 -0.015,-0.027 0,-0.025 0.027,-0.041 0.011,-0.007 0.023,-0.007 0.028,0 0.039,0.035 0.005,0.015 0.005,0.035 0,0.062 -0.04,0.189 -0.013,0.041 -0.026,0.071 -0.053,0.123 -0.145,0.123 -0.097,0 -0.125,-0.07 -0.04,0.07 -0.104,0.07 -0.098,0 -0.13,-0.067 -0.012,-0.026 -0.012,-0.059 0,-0.051 0.053,-0.195 0.002,-0.003 0.003,-0.007 0.018,-0.044 0.018,-0.07 0,-0.033 -0.025,-0.033 -0.061,0 -0.097,0.111 -0.002,0.006 -0.004,0.013 -0.011,0.017 -0.016,0.018 -0.012,0 -0.012,-0.01 0,-0.018 0.021,-0.063 0.044,-0.091 0.111,-0.091 0.052,0 0.073,0.044 0.009,0.017 0.009,0.038 0,0.018 -0.017,0.064 -0.052,0.136 -0.052,0.194 0,0.089 0.08,0.091 0.056,0 0.092,-0.084 -0.001,-0.005 -0.001,-0.018 0,-0.027 0.009,-0.066 l 0.057,-0.224 q 0.009,-0.026 0.037,-0.028 0.025,0.005 0.029,0.027 0,-0.001 -0.015,0.065 z"
             fill-opacity="1"
             id="path15" />
        </g>
        <g
           transform="translate(19.999789,22.345579)"
           id="g16">
          <path
             fill="#000080"
             stroke="none"
             paint-order="stroke fill markers"
             d="m 0.537,-0.595 h -0.32 q -0.031,0 -0.034,-0.014 -0.001,-0.003 -0.001,-0.006 0.006,-0.02 0.035,-0.02 h 0.337 q -0.02,-0.026 -0.024,-0.058 0,-0.016 0.014,-0.02 0.003,-0.001 0.006,-0.001 0.015,0 0.02,0.022 0.013,0.038 0.041,0.057 0.014,0.01 0.014,0.02 0,0.011 -0.017,0.021 -0.045,0.022 -0.079,0.065 -0.011,0.013 -0.019,0.013 -0.014,0 -0.019,-0.014 -0.001,-0.003 -0.001,-0.006 0,-0.016 0.047,-0.059 z"
             fill-opacity="1"
             id="path16" />
        </g>
        <g
           transform="translate(19.872289,22.345579)"
           id="g17">
          <path
             fill="#000080"
             stroke="none"
             paint-order="stroke fill markers"
             d="M 0.462,-0.339 0.42,-0.171 q -0.011,0.039 -0.011,0.073 0.008,0.082 0.074,0.087 0.067,0 0.11,-0.088 0.034,-0.068 0.051,-0.153 0.004,-0.019 0.004,-0.03 0,-0.049 -0.036,-0.085 -0.015,-0.013 -0.015,-0.027 0,-0.025 0.027,-0.041 0.011,-0.007 0.023,-0.007 0.028,0 0.039,0.035 0.005,0.015 0.005,0.035 0,0.062 -0.04,0.189 -0.013,0.041 -0.026,0.071 -0.053,0.123 -0.145,0.123 -0.097,0 -0.125,-0.07 -0.04,0.07 -0.104,0.07 -0.098,0 -0.13,-0.067 -0.012,-0.026 -0.012,-0.059 0,-0.051 0.053,-0.195 0.002,-0.003 0.003,-0.007 0.018,-0.044 0.018,-0.07 0,-0.033 -0.025,-0.033 -0.061,0 -0.097,0.111 -0.002,0.006 -0.004,0.013 -0.011,0.017 -0.016,0.018 -0.012,0 -0.012,-0.01 0,-0.018 0.021,-0.063 0.044,-0.091 0.111,-0.091 0.052,0 0.073,0.044 0.009,0.017 0.009,0.038 0,0.018 -0.017,0.064 -0.052,0.136 -0.052,0.194 0,0.089 0.08,0.091 0.056,0 0.092,-0.084 -0.001,-0.005 -0.001,-0.018 0,-0.027 0.009,-0.066 l 0.057,-0.224 q 0.009,-0.026 0.037,-0.028 0.025,0.005 0.029,0.027 0,-0.001 -0.015,0.065 z"
             fill-opacity="1"
             id="path17" />
        </g>
      </g>
      <path
         fill="#800000"
         stroke="none"
         paint-order="stroke fill markers"
         d="m 169.97515,81.540665 1.34397,17.471595 2.84605,-0.94868 v 0 l 26.7686,80.3058 c 0.1746,0.52378 0.66233,0.85506 1.18568,0.85506 0.13104,0 0.26431,-0.0208 0.39546,-0.0645 0.65493,-0.21831 1.00888,-0.92621 0.79057,-1.58114 L 176.53688,97.273 v 0 l 2.84605,-0.94869 -9.40778,-14.783655 z"
         fill-opacity="0.698039"
         id="path18" />
      <g
         transform="matrix(19,0,0,19,-237.95037,-194.92803)"
         id="g31">
        <g
           transform="translate(22.553434,16.606035)"
           id="g19">
          <path
             fill="#800000"
             stroke="none"
             paint-order="stroke fill markers"
             d="m 0.537,-0.595 h -0.32 q -0.031,0 -0.034,-0.014 -0.001,-0.003 -0.001,-0.006 0.006,-0.02 0.035,-0.02 h 0.337 q -0.02,-0.026 -0.024,-0.058 0,-0.016 0.014,-0.02 0.003,-0.001 0.006,-0.001 0.015,0 0.02,0.022 0.013,0.038 0.041,0.057 0.014,0.01 0.014,0.02 0,0.011 -0.017,0.021 -0.045,0.022 -0.079,0.065 -0.011,0.013 -0.019,0.013 -0.014,0 -0.019,-0.014 -0.001,-0.003 -0.001,-0.006 0,-0.016 0.047,-0.059 z"
             fill-opacity="1"
             id="path19" />
        </g>
        <g
           transform="translate(22.473684,16.606035)"
           id="g20">
          <path
             fill="#800000"
             stroke="none"
             paint-order="stroke fill markers"
             d="M 0.334,-0.302 0.3,-0.165 q -0.017,0.068 -0.017,0.088 0,0.052 0.037,0.063 0.008,0.003 0.018,0.003 0.05,0 0.091,-0.05 0.027,-0.032 0.042,-0.081 0.003,-0.011 0.013,-0.011 0.012,0 0.012,0.01 0,0.025 -0.031,0.072 Q 0.411,0.011 0.336,0.011 0.268,0.011 0.237,-0.046 0.231,-0.055 0.228,-0.065 0.204,-0.017 0.162,0.002 0.143,0.011 0.123,0.011 q -0.06,0 -0.084,-0.035 -0.01,-0.013 -0.01,-0.031 0,-0.037 0.032,-0.052 0.011,-0.006 0.023,-0.006 0.03,0 0.036,0.025 0.001,0.005 0.001,0.01 0,0.034 -0.034,0.05 -0.006,0.003 -0.013,0.004 0.021,0.013 0.05,0.013 0.053,0 0.084,-0.071 0.006,-0.015 0.011,-0.033 0.054,-0.204 0.054,-0.238 -0.006,-0.062 -0.054,-0.067 -0.052,0 -0.095,0.053 v 0.001 q 0,0.001 -0.001,0.001 -0.015,0.02 -0.027,0.046 -0.005,0.012 -0.009,0.024 l -0.002,0.006 q -0.002,0.011 -0.013,0.011 -0.012,0 -0.012,-0.01 0,-0.025 0.032,-0.072 0.054,-0.082 0.129,-0.082 0.077,0 0.108,0.076 0.032,-0.062 0.085,-0.074 0.01,-0.002 0.02,-0.002 0.059,0 0.083,0.033 0.01,0.014 0.01,0.033 0,0.041 -0.037,0.055 -0.009,0.003 -0.017,0.003 -0.031,0 -0.037,-0.027 -0.001,-0.004 -0.001,-0.008 0,-0.03 0.029,-0.047 0.009,-0.005 0.019,-0.007 -0.021,-0.013 -0.05,-0.013 -0.068,0 -0.096,0.106 -0.002,0.006 -0.003,0.012 z"
             fill-opacity="1"
             id="path20" />
        </g>
        <g
           transform="matrix(0.7,0,0,0.7,23.045684,16.756035)"
           id="g21">
          <path
             fill="#800000"
             stroke="none"
             paint-order="stroke fill markers"
             d="m 0.284,-0.625 q 0,0.031 -0.031,0.047 -0.011,0.006 -0.022,0.006 -0.03,0 -0.037,-0.027 -0.001,-0.005 -0.001,-0.009 0,-0.028 0.028,-0.045 0.013,-0.008 0.026,-0.008 0.03,0 0.036,0.027 v 0.001 q 0.001,0.004 0.001,0.008 m -0.076,0.376 -0.039,0.105 q -0.028,0.081 -0.029,0.1 0,0.033 0.024,0.033 0.063,0 0.098,-0.112 l 0.004,-0.012 q 0.005,-0.016 0.01,-0.017 v -0.001 h 0.005 q 0.012,0 0.012,0.01 0,0.018 -0.022,0.064 -0.043,0.09 -0.109,0.09 -0.053,0 -0.074,-0.044 -0.008,-0.018 -0.008,-0.038 0,-0.02 0.023,-0.08 0.07,-0.188 0.069,-0.185 0.011,-0.028 0.011,-0.052 0,-0.032 -0.025,-0.032 -0.055,0 -0.09,0.091 v 0.001 q -0.006,0.015 -0.011,0.032 -0.011,0.017 -0.016,0.018 -0.012,0 -0.012,-0.01 0,-0.018 0.022,-0.063 0.043,-0.091 0.11,-0.091 0.053,0 0.074,0.045 0.008,0.017 0.008,0.037 0,0.02 -0.013,0.053 -0.017,0.046 -0.022,0.058 z"
             fill-opacity="1"
             id="path21" />
        </g>
        <g
           transform="matrix(0.7,0,0,0.7,23.287184,16.162311)"
           id="g22">
          <path
             fill="#800000"
             stroke="none"
             paint-order="stroke fill markers"
             d="m 0.427,-0.607 -0.133,0.531 q -0.004,0.015 -0.004,0.021 0,0.015 0.016,0.019 h 0.001 q 0.007,0.002 0.02,0.003 0.026,0.002 0.064,0.002 0.031,0 0.033,0.006 0.001,0.002 0.001,0.005 Q 0.421,-0.001 0.403,0 L 0.317,-0.002 H 0.316 L 0.235,-0.003 H 0.233 L 0.15,-0.002 H 0.148 L 0.067,0 H 0.066 q -0.017,0 -0.017,-0.012 0,-0.015 0.011,-0.018 0.007,-0.001 0.031,-0.001 0.089,0 0.106,-0.017 0.006,-0.006 0.01,-0.018 0,-0.002 0.001,-0.005 v -0.002 h 0.001 v -0.001 q 0,-0.001 0.001,-0.005 l 0.134,-0.534 q 0.004,-0.012 0.004,-0.021 0,-0.009 -0.009,-0.011 Q 0.333,-0.646 0.32,-0.646 H 0.281 q -0.103,0 -0.141,0.023 -0.021,0.012 -0.037,0.037 l -0.001,0.001 v 0.001 H 0.101 q -0.021,0.033 -0.048,0.111 -0.007,0.019 -0.012,0.02 -0.002,0.001 -0.005,0.001 -0.012,0 -0.012,-0.011 0,-0.006 0.006,-0.018 l 0.06,-0.176 q 0.006,-0.017 0.014,-0.019 0.005,-0.001 0.018,-0.001 h 0.555 q 0.025,0 0.027,0.011 0,0.009 -0.002,0.017 l -0.027,0.174 q -0.003,0.021 -0.015,0.023 -0.012,0 -0.012,-0.013 0,-0.007 0.003,-0.019 0.008,-0.052 0.008,-0.08 0,-0.058 -0.041,-0.073 -0.026,-0.009 -0.105,-0.009 -0.054,0 -0.063,0.002 -0.013,0.003 -0.019,0.022 v 0.001 q -0.002,0.005 -0.004,0.014 z"
             fill-opacity="1"
             id="path22" />
        </g>
        <g
           transform="translate(24.041724,16.606035)"
           id="g23">
          <path
             fill="#800000"
             stroke="none"
             paint-order="stroke fill markers"
             d="M 0.661,-0.23 H 0.116 q -0.032,0 -0.033,-0.02 0,-0.02 0.033,-0.02 h 0.545 q 0.032,0 0.033,0.02 0,0.02 -0.033,0.02 z"
             fill-opacity="1"
             id="path23" />
        </g>
        <g
           transform="translate(25.121696,16.606035)"
           id="g24">
          <path
             fill="#800000"
             stroke="none"
             paint-order="stroke fill markers"
             d="m 0.537,-0.595 h -0.32 q -0.031,0 -0.034,-0.014 -0.001,-0.003 -0.001,-0.006 0.006,-0.02 0.035,-0.02 h 0.337 q -0.02,-0.026 -0.024,-0.058 0,-0.016 0.014,-0.02 0.003,-0.001 0.006,-0.001 0.015,0 0.02,0.022 0.013,0.038 0.041,0.057 0.014,0.01 0.014,0.02 0,0.011 -0.017,0.021 -0.045,0.022 -0.079,0.065 -0.011,0.013 -0.019,0.013 -0.014,0 -0.019,-0.014 -0.001,-0.003 -0.001,-0.006 0,-0.016 0.047,-0.059 z"
             fill-opacity="1"
             id="path24" />
        </g>
        <g
           transform="translate(25.041946,16.606035)"
           id="g25">
          <path
             fill="#800000"
             stroke="none"
             paint-order="stroke fill markers"
             d="M 0.334,-0.302 0.3,-0.165 q -0.017,0.068 -0.017,0.088 0,0.052 0.037,0.063 0.008,0.003 0.018,0.003 0.05,0 0.091,-0.05 0.027,-0.032 0.042,-0.081 0.003,-0.011 0.013,-0.011 0.012,0 0.012,0.01 0,0.025 -0.031,0.072 Q 0.411,0.011 0.336,0.011 0.268,0.011 0.237,-0.046 0.231,-0.055 0.228,-0.065 0.204,-0.017 0.162,0.002 0.143,0.011 0.123,0.011 q -0.06,0 -0.084,-0.035 -0.01,-0.013 -0.01,-0.031 0,-0.037 0.032,-0.052 0.011,-0.006 0.023,-0.006 0.03,0 0.036,0.025 0.001,0.005 0.001,0.01 0,0.034 -0.034,0.05 -0.006,0.003 -0.013,0.004 0.021,0.013 0.05,0.013 0.053,0 0.084,-0.071 0.006,-0.015 0.011,-0.033 0.054,-0.204 0.054,-0.238 -0.006,-0.062 -0.054,-0.067 -0.052,0 -0.095,0.053 v 0.001 q 0,0.001 -0.001,0.001 -0.015,0.02 -0.027,0.046 -0.005,0.012 -0.009,0.024 l -0.002,0.006 q -0.002,0.011 -0.013,0.011 -0.012,0 -0.012,-0.01 0,-0.025 0.032,-0.072 0.054,-0.082 0.129,-0.082 0.077,0 0.108,0.076 0.032,-0.062 0.085,-0.074 0.01,-0.002 0.02,-0.002 0.059,0 0.083,0.033 0.01,0.014 0.01,0.033 0,0.041 -0.037,0.055 -0.009,0.003 -0.017,0.003 -0.031,0 -0.037,-0.027 -0.001,-0.004 -0.001,-0.008 0,-0.03 0.029,-0.047 0.009,-0.005 0.019,-0.007 -0.021,-0.013 -0.05,-0.013 -0.068,0 -0.096,0.106 -0.002,0.006 -0.003,0.012 z"
             fill-opacity="1"
             id="path25" />
        </g>
        <g
           transform="matrix(0.7,0,0,0.7,25.613946,16.756035)"
           id="g26">
          <path
             fill="#800000"
             stroke="none"
             paint-order="stroke fill markers"
             d="m 0.284,-0.625 q 0,0.031 -0.031,0.047 -0.011,0.006 -0.022,0.006 -0.03,0 -0.037,-0.027 -0.001,-0.005 -0.001,-0.009 0,-0.028 0.028,-0.045 0.013,-0.008 0.026,-0.008 0.03,0 0.036,0.027 v 0.001 q 0.001,0.004 0.001,0.008 m -0.076,0.376 -0.039,0.105 q -0.028,0.081 -0.029,0.1 0,0.033 0.024,0.033 0.063,0 0.098,-0.112 l 0.004,-0.012 q 0.005,-0.016 0.01,-0.017 v -0.001 h 0.005 q 0.012,0 0.012,0.01 0,0.018 -0.022,0.064 -0.043,0.09 -0.109,0.09 -0.053,0 -0.074,-0.044 -0.008,-0.018 -0.008,-0.038 0,-0.02 0.023,-0.08 0.07,-0.188 0.069,-0.185 0.011,-0.028 0.011,-0.052 0,-0.032 -0.025,-0.032 -0.055,0 -0.09,0.091 v 0.001 q -0.006,0.015 -0.011,0.032 -0.011,0.017 -0.016,0.018 -0.012,0 -0.012,-0.01 0,-0.018 0.022,-0.063 0.043,-0.091 0.11,-0.091 0.053,0 0.074,0.045 0.008,0.017 0.008,0.037 0,0.02 -0.013,0.053 -0.017,0.046 -0.022,0.058 z"
             fill-opacity="1"
             id="path26" />
        </g>
        <g
           transform="translate(25.982946,16.606035)"
           id="g27">
          <path
             fill="#800000"
             stroke="none"
             paint-order="stroke fill markers"
             d="m 0.537,-0.595 h -0.32 q -0.031,0 -0.034,-0.014 -0.001,-0.003 -0.001,-0.006 0.006,-0.02 0.035,-0.02 h 0.337 q -0.02,-0.026 -0.024,-0.058 0,-0.016 0.014,-0.02 0.003,-0.001 0.006,-0.001 0.015,0 0.02,0.022 0.013,0.038 0.041,0.057 0.014,0.01 0.014,0.02 0,0.011 -0.017,0.021 -0.045,0.022 -0.079,0.065 -0.011,0.013 -0.019,0.013 -0.014,0 -0.019,-0.014 -0.001,-0.003 -0.001,-0.006 0,-0.016 0.047,-0.059 z"
             fill-opacity="1"
             id="path27" />
        </g>
        <g
           transform="translate(25.855446,16.606035)"
           id="g28">
          <path
             fill="#800000"
             stroke="none"
             paint-order="stroke fill markers"
             d="M 0.462,-0.339 0.42,-0.171 q -0.011,0.039 -0.011,0.073 0.008,0.082 0.074,0.087 0.067,0 0.11,-0.088 0.034,-0.068 0.051,-0.153 0.004,-0.019 0.004,-0.03 0,-0.049 -0.036,-0.085 -0.015,-0.013 -0.015,-0.027 0,-0.025 0.027,-0.041 0.011,-0.007 0.023,-0.007 0.028,0 0.039,0.035 0.005,0.015 0.005,0.035 0,0.062 -0.04,0.189 -0.013,0.041 -0.026,0.071 -0.053,0.123 -0.145,0.123 -0.097,0 -0.125,-0.07 -0.04,0.07 -0.104,0.07 -0.098,0 -0.13,-0.067 -0.012,-0.026 -0.012,-0.059 0,-0.051 0.053,-0.195 0.002,-0.003 0.003,-0.007 0.018,-0.044 0.018,-0.07 0,-0.033 -0.025,-0.033 -0.061,0 -0.097,0.111 -0.002,0.006 -0.004,0.013 -0.011,0.017 -0.016,0.018 -0.012,0 -0.012,-0.01 0,-0.018 0.021,-0.063 0.044,-0.091 0.111,-0.091 0.052,0 0.073,0.044 0.009,0.017 0.009,0.038 0,0.018 -0.017,0.064 -0.052,0.136 -0.052,0.194 0,0.089 0.08,0.091 0.056,0 0.092,-0.084 -0.001,-0.005 -0.001,-0.018 0,-0.027 0.009,-0.066 l 0.057,-0.224 q 0.009,-0.026 0.037,-0.028 0.025,0.005 0.029,0.027 0,-0.001 -0.015,0.065 z"
             fill-opacity="1"
             id="path28" />
        </g>
        <g
           transform="translate(26.725946,16.606035)"
           id="g29">
          <path
             fill="#800000"
             stroke="none"
             paint-order="stroke fill markers"
             d="m 0.537,-0.595 h -0.32 q -0.031,0 -0.034,-0.014 -0.001,-0.003 -0.001,-0.006 0.006,-0.02 0.035,-0.02 h 0.337 q -0.02,-0.026 -0.024,-0.058 0,-0.016 0.014,-0.02 0.003,-0.001 0.006,-0.001 0.015,0 0.02,0.022 0.013,0.038 0.041,0.057 0.014,0.01 0.014,0.02 0,0.011 -0.017,0.021 -0.045,0.022 -0.079,0.065 -0.011,0.013 -0.019,0.013 -0.014,0 -0.019,-0.014 -0.001,-0.003 -0.001,-0.006 0,-0.016 0.047,-0.059 z"
             fill-opacity="1"
             id="path29" />
        </g>
        <g
           transform="translate(26.598446,16.606035)"
           id="g30">
          <path
             fill="#800000"
             stroke="none"
             paint-order="stroke fill markers"
             d="M 0.462,-0.339 0.42,-0.171 q -0.011,0.039 -0.011,0.073 0.008,0.082 0.074,0.087 0.067,0 0.11,-0.088 0.034,-0.068 0.051,-0.153 0.004,-0.019 0.004,-0.03 0,-0.049 -0.036,-0.085 -0.015,-0.013 -0.015,-0.027 0,-0.025 0.027,-0.041 0.011,-0.007 0.023,-0.007 0.028,0 0.039,0.035 0.005,0.015 0.005,0.035 0,0.062 -0.04,0.189 -0.013,0.041 -0.026,0.071 -0.053,0.123 -0.145,0.123 -0.097,0 -0.125,-0.07 -0.04,0.07 -0.104,0.07 -0.098,0 -0.13,-0.067 -0.012,-0.026 -0.012,-0.059 0,-0.051 0.053,-0.195 0.002,-0.003 0.003,-0.007 0.018,-0.044 0.018,-0.07 0,-0.033 -0.025,-0.033 -0.061,0 -0.097,0.111 -0.002,0.006 -0.004,0.013 -0.011,0.017 -0.016,0.018 -0.012,0 -0.012,-0.01 0,-0.018 0.021,-0.063 0.044,-0.091 0.111,-0.091 0.052,0 0.073,0.044 0.009,0.017 0.009,0.038 0,0.018 -0.017,0.064 -0.052,0.136 -0.052,0.194 0,0.089 0.08,0.091 0.056,0 0.092,-0.084 -0.001,-0.005 -0.001,-0.018 0,-0.027 0.009,-0.066 l 0.057,-0.224 q 0.009,-0.026 0.037,-0.028 0.025,0.005 0.029,0.027 0,-0.001 -0.015,0.065 z"
             fill-opacity="1"
             id="path30" />
        </g>
      </g>
    </g>
  </g>
</svg>
