<svg version="1.1" xmlns="http://www.w3.org/2000/svg" xmlns:xlink="http://www.w3.org/1999/xlink" width="1464" height="672"><defs><clipPath id="TEJxMTOFcSnI"><path fill="none" stroke="none" d=" M 0 0 L 1464 0 L 1464 672 L 0 672 L 0 0 Z"/></clipPath></defs><g transform="scale(1,1)" clip-path="url(#TEJxMTOFcSnI)"><g><rect fill="rgb(255,255,255)" stroke="none" x="0" y="0" width="1464" height="673" fill-opacity="1"/><path fill="none" stroke="rgb(192,192,192)" paint-order="fill stroke markers" d=" M -18.5 0.5 L -18.5 672.5 M -18.5 0.5 L -18.5 672.5 M 51.5 0.5 L 51.5 672.5 M 121.5 0.5 L 121.5 672.5 M 191.5 0.5 L 191.5 672.5 M 261.5 0.5 L 261.5 672.5 M 331.5 0.5 L 331.5 672.5 M 401.5 0.5 L 401.5 672.5 M 471.5 0.5 L 471.5 672.5 M 540.5 0.5 L 540.5 672.5 M 610.5 0.5 L 610.5 672.5 M 680.5 0.5 L 680.5 672.5 M 750.5 0.5 L 750.5 672.5 M 820.5 0.5 L 820.5 672.5 M 890.5 0.5 L 890.5 672.5 M 960.5 0.5 L 960.5 672.5 M 1030.5 0.5 L 1030.5 672.5 M 1100.5 0.5 L 1100.5 672.5 M 1169.5 0.5 L 1169.5 672.5 M 1239.5 0.5 L 1239.5 672.5 M 1309.5 0.5 L 1309.5 672.5 M 1379.5 0.5 L 1379.5 672.5 M 1449.5 0.5 L 1449.5 672.5" stroke-opacity="1" stroke-linecap="round" stroke-linejoin="round" stroke-miterlimit="10"/><path fill="none" stroke="rgb(192,192,192)" paint-order="fill stroke markers" d=" M -4.5 0.5 L -4.5 672.5 M 9.5 0.5 L 9.5 672.5 M 23.5 0.5 L 23.5 672.5 M 37.5 0.5 L 37.5 672.5 M 65.5 0.5 L 65.5 672.5 M 79.5 0.5 L 79.5 672.5 M 93.5 0.5 L 93.5 672.5 M 107.5 0.5 L 107.5 672.5 M 135.5 0.5 L 135.5 672.5 M 149.5 0.5 L 149.5 672.5 M 163.5 0.5 L 163.5 672.5 M 177.5 0.5 L 177.5 672.5 M 205.5 0.5 L 205.5 672.5 M 219.5 0.5 L 219.5 672.5 M 233.5 0.5 L 233.5 672.5 M 247.5 0.5 L 247.5 672.5 M 275.5 0.5 L 275.5 672.5 M 289.5 0.5 L 289.5 672.5 M 303.5 0.5 L 303.5 672.5 M 317.5 0.5 L 317.5 672.5 M 345.5 0.5 L 345.5 672.5 M 359.5 0.5 L 359.5 672.5 M 373.5 0.5 L 373.5 672.5 M 387.5 0.5 L 387.5 672.5 M 415.5 0.5 L 415.5 672.5 M 429.5 0.5 L 429.5 672.5 M 443.5 0.5 L 443.5 672.5 M 457.5 0.5 L 457.5 672.5 M 485.5 0.5 L 485.5 672.5 M 498.5 0.5 L 498.5 672.5 M 512.5 0.5 L 512.5 672.5 M 526.5 0.5 L 526.5 672.5 M 554.5 0.5 L 554.5 672.5 M 568.5 0.5 L 568.5 672.5 M 582.5 0.5 L 582.5 672.5 M 596.5 0.5 L 596.5 672.5 M 624.5 0.5 L 624.5 672.5 M 638.5 0.5 L 638.5 672.5 M 652.5 0.5 L 652.5 672.5 M 666.5 0.5 L 666.5 672.5 M 694.5 0.5 L 694.5 672.5 M 708.5 0.5 L 708.5 672.5 M 722.5 0.5 L 722.5 672.5 M 736.5 0.5 L 736.5 672.5 M 764.5 0.5 L 764.5 672.5 M 778.5 0.5 L 778.5 672.5 M 792.5 0.5 L 792.5 672.5 M 806.5 0.5 L 806.5 672.5 M 834.5 0.5 L 834.5 672.5 M 848.5 0.5 L 848.5 672.5 M 862.5 0.5 L 862.5 672.5 M 876.5 0.5 L 876.5 672.5 M 904.5 0.5 L 904.5 672.5 M 918.5 0.5 L 918.5 672.5 M 932.5 0.5 L 932.5 672.5 M 946.5 0.5 L 946.5 672.5 M 974.5 0.5 L 974.5 672.5 M 988.5 0.5 L 988.5 672.5 M 1002.5 0.5 L 1002.5 672.5 M 1016.5 0.5 L 1016.5 672.5 M 1044.5 0.5 L 1044.5 672.5 M 1058.5 0.5 L 1058.5 672.5 M 1072.5 0.5 L 1072.5 672.5 M 1086.5 0.5 L 1086.5 672.5 M 1114.5 0.5 L 1114.5 672.5 M 1128.5 0.5 L 1128.5 672.5 M 1141.5 0.5 L 1141.5 672.5 M 1155.5 0.5 L 1155.5 672.5 M 1183.5 0.5 L 1183.5 672.5 M 1197.5 0.5 L 1197.5 672.5 M 1211.5 0.5 L 1211.5 672.5 M 1225.5 0.5 L 1225.5 672.5 M 1253.5 0.5 L 1253.5 672.5 M 1267.5 0.5 L 1267.5 672.5 M 1281.5 0.5 L 1281.5 672.5 M 1295.5 0.5 L 1295.5 672.5 M 1323.5 0.5 L 1323.5 672.5 M 1337.5 0.5 L 1337.5 672.5 M 1351.5 0.5 L 1351.5 672.5 M 1365.5 0.5 L 1365.5 672.5 M 1393.5 0.5 L 1393.5 672.5 M 1407.5 0.5 L 1407.5 672.5 M 1421.5 0.5 L 1421.5 672.5 M 1435.5 0.5 L 1435.5 672.5 M 1463.5 0.5 L 1463.5 672.5" stroke-opacity="0.23529411764705882" stroke-linecap="round" stroke-linejoin="round" stroke-miterlimit="10"/><path fill="none" stroke="rgb(192,192,192)" paint-order="fill stroke markers" d=" M 0.5 0.5 L 1464.5 0.5 M 0.5 0.5 L 1464.5 0.5 M 0.5 56.5 L 1464.5 56.5 M 0.5 113.5 L 1464.5 113.5 M 0.5 170.5 L 1464.5 170.5 M 0.5 227.5 L 1464.5 227.5 M 0.5 284.5 L 1464.5 284.5 M 0.5 341.5 L 1464.5 341.5 M 0.5 398.5 L 1464.5 398.5 M 0.5 455.5 L 1464.5 455.5 M 0.5 511.5 L 1464.5 511.5 M 0.5 568.5 L 1464.5 568.5 M 0.5 625.5 L 1464.5 625.5" stroke-opacity="1" stroke-linecap="round" stroke-linejoin="round" stroke-miterlimit="10"/><path fill="none" stroke="rgb(192,192,192)" paint-order="fill stroke markers" d=" M 0.5 0.5 L 1464.5 0.5 M 0.5 11.5 L 1464.5 11.5 M 0.5 22.5 L 1464.5 22.5 M 0.5 34.5 L 1464.5 34.5 M 0.5 45.5 L 1464.5 45.5 M 0.5 68.5 L 1464.5 68.5 M 0.5 79.5 L 1464.5 79.5 M 0.5 91.5 L 1464.5 91.5 M 0.5 102.5 L 1464.5 102.5 M 0.5 125.5 L 1464.5 125.5 M 0.5 136.5 L 1464.5 136.5 M 0.5 147.5 L 1464.5 147.5 M 0.5 159.5 L 1464.5 159.5 M 0.5 182.5 L 1464.5 182.5 M 0.5 193.5 L 1464.5 193.5 M 0.5 204.5 L 1464.5 204.5 M 0.5 216.5 L 1464.5 216.5 M 0.5 238.5 L 1464.5 238.5 M 0.5 250.5 L 1464.5 250.5 M 0.5 261.5 L 1464.5 261.5 M 0.5 273.5 L 1464.5 273.5 M 0.5 295.5 L 1464.5 295.5 M 0.5 307.5 L 1464.5 307.5 M 0.5 318.5 L 1464.5 318.5 M 0.5 329.5 L 1464.5 329.5 M 0.5 352.5 L 1464.5 352.5 M 0.5 364.5 L 1464.5 364.5 M 0.5 375.5 L 1464.5 375.5 M 0.5 386.5 L 1464.5 386.5 M 0.5 409.5 L 1464.5 409.5 M 0.5 420.5 L 1464.5 420.5 M 0.5 432.5 L 1464.5 432.5 M 0.5 443.5 L 1464.5 443.5 M 0.5 466.5 L 1464.5 466.5 M 0.5 477.5 L 1464.5 477.5 M 0.5 489.5 L 1464.5 489.5 M 0.5 500.5 L 1464.5 500.5 M 0.5 523.5 L 1464.5 523.5 M 0.5 534.5 L 1464.5 534.5 M 0.5 546.5 L 1464.5 546.5 M 0.5 557.5 L 1464.5 557.5 M 0.5 580.5 L 1464.5 580.5 M 0.5 591.5 L 1464.5 591.5 M 0.5 602.5 L 1464.5 602.5 M 0.5 614.5 L 1464.5 614.5 M 0.5 637.5 L 1464.5 637.5 M 0.5 648.5 L 1464.5 648.5 M 0.5 659.5 L 1464.5 659.5 M 0.5 671.5 L 1464.5 671.5" stroke-opacity="0.23529411764705882" stroke-linecap="round" stroke-linejoin="round" stroke-miterlimit="10"/><path fill="none" stroke="rgb(37,37,37)" paint-order="fill stroke markers" d=" M 0.5 796.5 L 1462.5 796.5" stroke-opacity="1" stroke-miterlimit="10"/><path fill="none" stroke="rgb(37,37,37)" paint-order="fill stroke markers" d=" M 1463.5 796.5 L 1459.5 792.5" stroke-opacity="1" stroke-miterlimit="10"/><path fill="none" stroke="rgb(37,37,37)" paint-order="fill stroke markers" d=" M 1463.5 796.5 L 1459.5 800.5" stroke-opacity="1" stroke-miterlimit="10"/><text fill="rgb(37,37,37)" stroke="none" font-family="geogebra-sans-serif, sans-serif" font-size="12px" font-style="normal" font-weight="normal" text-decoration="normal" x="40" y="666" text-anchor="start" dominant-baseline="alphabetic" fill-opacity="1">1969</text><text fill="none" stroke="rgb(255,255,255)" font-family="geogebra-sans-serif, sans-serif" font-size="12px" font-style="normal" font-weight="normal" text-decoration="normal" x="40" y="666" text-anchor="start" dominant-baseline="alphabetic" stroke-opacity="1" stroke-linejoin="bevel" stroke-miterlimit="10" stroke-width="3">1969</text><text fill="rgb(37,37,37)" stroke="none" font-family="geogebra-sans-serif, sans-serif" font-size="12px" font-style="normal" font-weight="normal" text-decoration="normal" x="40" y="666" text-anchor="start" dominant-baseline="alphabetic" fill-opacity="1">1969</text><text fill="rgb(37,37,37)" stroke="none" font-family="geogebra-sans-serif, sans-serif" font-size="12px" font-style="normal" font-weight="normal" text-decoration="normal" x="110" y="666" text-anchor="start" dominant-baseline="alphabetic" fill-opacity="1">1970</text><text fill="none" stroke="rgb(255,255,255)" font-family="geogebra-sans-serif, sans-serif" font-size="12px" font-style="normal" font-weight="normal" text-decoration="normal" x="110" y="666" text-anchor="start" dominant-baseline="alphabetic" stroke-opacity="1" stroke-linejoin="bevel" stroke-miterlimit="10" stroke-width="3">1970</text><text fill="rgb(37,37,37)" stroke="none" font-family="geogebra-sans-serif, sans-serif" font-size="12px" font-style="normal" font-weight="normal" text-decoration="normal" x="110" y="666" text-anchor="start" dominant-baseline="alphabetic" fill-opacity="1">1970</text><text fill="rgb(37,37,37)" stroke="none" font-family="geogebra-sans-serif, sans-serif" font-size="12px" font-style="normal" font-weight="normal" text-decoration="normal" x="180" y="666" text-anchor="start" dominant-baseline="alphabetic" fill-opacity="1">1971</text><text fill="none" stroke="rgb(255,255,255)" font-family="geogebra-sans-serif, sans-serif" font-size="12px" font-style="normal" font-weight="normal" text-decoration="normal" x="180" y="666" text-anchor="start" dominant-baseline="alphabetic" stroke-opacity="1" stroke-linejoin="bevel" stroke-miterlimit="10" stroke-width="3">1971</text><text fill="rgb(37,37,37)" stroke="none" font-family="geogebra-sans-serif, sans-serif" font-size="12px" font-style="normal" font-weight="normal" text-decoration="normal" x="180" y="666" text-anchor="start" dominant-baseline="alphabetic" fill-opacity="1">1971</text><text fill="rgb(37,37,37)" stroke="none" font-family="geogebra-sans-serif, sans-serif" font-size="12px" font-style="normal" font-weight="normal" text-decoration="normal" x="250" y="666" text-anchor="start" dominant-baseline="alphabetic" fill-opacity="1">1972</text><text fill="none" stroke="rgb(255,255,255)" font-family="geogebra-sans-serif, sans-serif" font-size="12px" font-style="normal" font-weight="normal" text-decoration="normal" x="250" y="666" text-anchor="start" dominant-baseline="alphabetic" stroke-opacity="1" stroke-linejoin="bevel" stroke-miterlimit="10" stroke-width="3">1972</text><text fill="rgb(37,37,37)" stroke="none" font-family="geogebra-sans-serif, sans-serif" font-size="12px" font-style="normal" font-weight="normal" text-decoration="normal" x="250" y="666" text-anchor="start" dominant-baseline="alphabetic" fill-opacity="1">1972</text><text fill="rgb(37,37,37)" stroke="none" font-family="geogebra-sans-serif, sans-serif" font-size="12px" font-style="normal" font-weight="normal" text-decoration="normal" x="320" y="666" text-anchor="start" dominant-baseline="alphabetic" fill-opacity="1">1973</text><text fill="none" stroke="rgb(255,255,255)" font-family="geogebra-sans-serif, sans-serif" font-size="12px" font-style="normal" font-weight="normal" text-decoration="normal" x="320" y="666" text-anchor="start" dominant-baseline="alphabetic" stroke-opacity="1" stroke-linejoin="bevel" stroke-miterlimit="10" stroke-width="3">1973</text><text fill="rgb(37,37,37)" stroke="none" font-family="geogebra-sans-serif, sans-serif" font-size="12px" font-style="normal" font-weight="normal" text-decoration="normal" x="320" y="666" text-anchor="start" dominant-baseline="alphabetic" fill-opacity="1">1973</text><text fill="rgb(37,37,37)" stroke="none" font-family="geogebra-sans-serif, sans-serif" font-size="12px" font-style="normal" font-weight="normal" text-decoration="normal" x="390" y="666" text-anchor="start" dominant-baseline="alphabetic" fill-opacity="1">1974</text><text fill="none" stroke="rgb(255,255,255)" font-family="geogebra-sans-serif, sans-serif" font-size="12px" font-style="normal" font-weight="normal" text-decoration="normal" x="390" y="666" text-anchor="start" dominant-baseline="alphabetic" stroke-opacity="1" stroke-linejoin="bevel" stroke-miterlimit="10" stroke-width="3">1974</text><text fill="rgb(37,37,37)" stroke="none" font-family="geogebra-sans-serif, sans-serif" font-size="12px" font-style="normal" font-weight="normal" text-decoration="normal" x="390" y="666" text-anchor="start" dominant-baseline="alphabetic" fill-opacity="1">1974</text><text fill="rgb(37,37,37)" stroke="none" font-family="geogebra-sans-serif, sans-serif" font-size="12px" font-style="normal" font-weight="normal" text-decoration="normal" x="460" y="666" text-anchor="start" dominant-baseline="alphabetic" fill-opacity="1">1975</text><text fill="none" stroke="rgb(255,255,255)" font-family="geogebra-sans-serif, sans-serif" font-size="12px" font-style="normal" font-weight="normal" text-decoration="normal" x="460" y="666" text-anchor="start" dominant-baseline="alphabetic" stroke-opacity="1" stroke-linejoin="bevel" stroke-miterlimit="10" stroke-width="3">1975</text><text fill="rgb(37,37,37)" stroke="none" font-family="geogebra-sans-serif, sans-serif" font-size="12px" font-style="normal" font-weight="normal" text-decoration="normal" x="460" y="666" text-anchor="start" dominant-baseline="alphabetic" fill-opacity="1">1975</text><text fill="rgb(37,37,37)" stroke="none" font-family="geogebra-sans-serif, sans-serif" font-size="12px" font-style="normal" font-weight="normal" text-decoration="normal" x="529" y="666" text-anchor="start" dominant-baseline="alphabetic" fill-opacity="1">1976</text><text fill="none" stroke="rgb(255,255,255)" font-family="geogebra-sans-serif, sans-serif" font-size="12px" font-style="normal" font-weight="normal" text-decoration="normal" x="529" y="666" text-anchor="start" dominant-baseline="alphabetic" stroke-opacity="1" stroke-linejoin="bevel" stroke-miterlimit="10" stroke-width="3">1976</text><text fill="rgb(37,37,37)" stroke="none" font-family="geogebra-sans-serif, sans-serif" font-size="12px" font-style="normal" font-weight="normal" text-decoration="normal" x="529" y="666" text-anchor="start" dominant-baseline="alphabetic" fill-opacity="1">1976</text><text fill="rgb(37,37,37)" stroke="none" font-family="geogebra-sans-serif, sans-serif" font-size="12px" font-style="normal" font-weight="normal" text-decoration="normal" x="599" y="666" text-anchor="start" dominant-baseline="alphabetic" fill-opacity="1">1977</text><text fill="none" stroke="rgb(255,255,255)" font-family="geogebra-sans-serif, sans-serif" font-size="12px" font-style="normal" font-weight="normal" text-decoration="normal" x="599" y="666" text-anchor="start" dominant-baseline="alphabetic" stroke-opacity="1" stroke-linejoin="bevel" stroke-miterlimit="10" stroke-width="3">1977</text><text fill="rgb(37,37,37)" stroke="none" font-family="geogebra-sans-serif, sans-serif" font-size="12px" font-style="normal" font-weight="normal" text-decoration="normal" x="599" y="666" text-anchor="start" dominant-baseline="alphabetic" fill-opacity="1">1977</text><text fill="rgb(37,37,37)" stroke="none" font-family="geogebra-sans-serif, sans-serif" font-size="12px" font-style="normal" font-weight="normal" text-decoration="normal" x="669" y="666" text-anchor="start" dominant-baseline="alphabetic" fill-opacity="1">1978</text><text fill="none" stroke="rgb(255,255,255)" font-family="geogebra-sans-serif, sans-serif" font-size="12px" font-style="normal" font-weight="normal" text-decoration="normal" x="669" y="666" text-anchor="start" dominant-baseline="alphabetic" stroke-opacity="1" stroke-linejoin="bevel" stroke-miterlimit="10" stroke-width="3">1978</text><text fill="rgb(37,37,37)" stroke="none" font-family="geogebra-sans-serif, sans-serif" font-size="12px" font-style="normal" font-weight="normal" text-decoration="normal" x="669" y="666" text-anchor="start" dominant-baseline="alphabetic" fill-opacity="1">1978</text><text fill="rgb(37,37,37)" stroke="none" font-family="geogebra-sans-serif, sans-serif" font-size="12px" font-style="normal" font-weight="normal" text-decoration="normal" x="739" y="666" text-anchor="start" dominant-baseline="alphabetic" fill-opacity="1">1979</text><text fill="none" stroke="rgb(255,255,255)" font-family="geogebra-sans-serif, sans-serif" font-size="12px" font-style="normal" font-weight="normal" text-decoration="normal" x="739" y="666" text-anchor="start" dominant-baseline="alphabetic" stroke-opacity="1" stroke-linejoin="bevel" stroke-miterlimit="10" stroke-width="3">1979</text><text fill="rgb(37,37,37)" stroke="none" font-family="geogebra-sans-serif, sans-serif" font-size="12px" font-style="normal" font-weight="normal" text-decoration="normal" x="739" y="666" text-anchor="start" dominant-baseline="alphabetic" fill-opacity="1">1979</text><text fill="rgb(37,37,37)" stroke="none" font-family="geogebra-sans-serif, sans-serif" font-size="12px" font-style="normal" font-weight="normal" text-decoration="normal" x="809" y="666" text-anchor="start" dominant-baseline="alphabetic" fill-opacity="1">1980</text><text fill="none" stroke="rgb(255,255,255)" font-family="geogebra-sans-serif, sans-serif" font-size="12px" font-style="normal" font-weight="normal" text-decoration="normal" x="809" y="666" text-anchor="start" dominant-baseline="alphabetic" stroke-opacity="1" stroke-linejoin="bevel" stroke-miterlimit="10" stroke-width="3">1980</text><text fill="rgb(37,37,37)" stroke="none" font-family="geogebra-sans-serif, sans-serif" font-size="12px" font-style="normal" font-weight="normal" text-decoration="normal" x="809" y="666" text-anchor="start" dominant-baseline="alphabetic" fill-opacity="1">1980</text><text fill="rgb(37,37,37)" stroke="none" font-family="geogebra-sans-serif, sans-serif" font-size="12px" font-style="normal" font-weight="normal" text-decoration="normal" x="879" y="666" text-anchor="start" dominant-baseline="alphabetic" fill-opacity="1">1981</text><text fill="none" stroke="rgb(255,255,255)" font-family="geogebra-sans-serif, sans-serif" font-size="12px" font-style="normal" font-weight="normal" text-decoration="normal" x="879" y="666" text-anchor="start" dominant-baseline="alphabetic" stroke-opacity="1" stroke-linejoin="bevel" stroke-miterlimit="10" stroke-width="3">1981</text><text fill="rgb(37,37,37)" stroke="none" font-family="geogebra-sans-serif, sans-serif" font-size="12px" font-style="normal" font-weight="normal" text-decoration="normal" x="879" y="666" text-anchor="start" dominant-baseline="alphabetic" fill-opacity="1">1981</text><text fill="rgb(37,37,37)" stroke="none" font-family="geogebra-sans-serif, sans-serif" font-size="12px" font-style="normal" font-weight="normal" text-decoration="normal" x="949" y="666" text-anchor="start" dominant-baseline="alphabetic" fill-opacity="1">1982</text><text fill="none" stroke="rgb(255,255,255)" font-family="geogebra-sans-serif, sans-serif" font-size="12px" font-style="normal" font-weight="normal" text-decoration="normal" x="949" y="666" text-anchor="start" dominant-baseline="alphabetic" stroke-opacity="1" stroke-linejoin="bevel" stroke-miterlimit="10" stroke-width="3">1982</text><text fill="rgb(37,37,37)" stroke="none" font-family="geogebra-sans-serif, sans-serif" font-size="12px" font-style="normal" font-weight="normal" text-decoration="normal" x="949" y="666" text-anchor="start" dominant-baseline="alphabetic" fill-opacity="1">1982</text><text fill="rgb(37,37,37)" stroke="none" font-family="geogebra-sans-serif, sans-serif" font-size="12px" font-style="normal" font-weight="normal" text-decoration="normal" x="1019" y="666" text-anchor="start" dominant-baseline="alphabetic" fill-opacity="1">1983</text><text fill="none" stroke="rgb(255,255,255)" font-family="geogebra-sans-serif, sans-serif" font-size="12px" font-style="normal" font-weight="normal" text-decoration="normal" x="1019" y="666" text-anchor="start" dominant-baseline="alphabetic" stroke-opacity="1" stroke-linejoin="bevel" stroke-miterlimit="10" stroke-width="3">1983</text><text fill="rgb(37,37,37)" stroke="none" font-family="geogebra-sans-serif, sans-serif" font-size="12px" font-style="normal" font-weight="normal" text-decoration="normal" x="1019" y="666" text-anchor="start" dominant-baseline="alphabetic" fill-opacity="1">1983</text><text fill="rgb(37,37,37)" stroke="none" font-family="geogebra-sans-serif, sans-serif" font-size="12px" font-style="normal" font-weight="normal" text-decoration="normal" x="1089" y="666" text-anchor="start" dominant-baseline="alphabetic" fill-opacity="1">1984</text><text fill="none" stroke="rgb(255,255,255)" font-family="geogebra-sans-serif, sans-serif" font-size="12px" font-style="normal" font-weight="normal" text-decoration="normal" x="1089" y="666" text-anchor="start" dominant-baseline="alphabetic" stroke-opacity="1" stroke-linejoin="bevel" stroke-miterlimit="10" stroke-width="3">1984</text><text fill="rgb(37,37,37)" stroke="none" font-family="geogebra-sans-serif, sans-serif" font-size="12px" font-style="normal" font-weight="normal" text-decoration="normal" x="1089" y="666" text-anchor="start" dominant-baseline="alphabetic" fill-opacity="1">1984</text><text fill="rgb(37,37,37)" stroke="none" font-family="geogebra-sans-serif, sans-serif" font-size="12px" font-style="normal" font-weight="normal" text-decoration="normal" x="1158" y="666" text-anchor="start" dominant-baseline="alphabetic" fill-opacity="1">1985</text><text fill="none" stroke="rgb(255,255,255)" font-family="geogebra-sans-serif, sans-serif" font-size="12px" font-style="normal" font-weight="normal" text-decoration="normal" x="1158" y="666" text-anchor="start" dominant-baseline="alphabetic" stroke-opacity="1" stroke-linejoin="bevel" stroke-miterlimit="10" stroke-width="3">1985</text><text fill="rgb(37,37,37)" stroke="none" font-family="geogebra-sans-serif, sans-serif" font-size="12px" font-style="normal" font-weight="normal" text-decoration="normal" x="1158" y="666" text-anchor="start" dominant-baseline="alphabetic" fill-opacity="1">1985</text><text fill="rgb(37,37,37)" stroke="none" font-family="geogebra-sans-serif, sans-serif" font-size="12px" font-style="normal" font-weight="normal" text-decoration="normal" x="1228" y="666" text-anchor="start" dominant-baseline="alphabetic" fill-opacity="1">1986</text><text fill="none" stroke="rgb(255,255,255)" font-family="geogebra-sans-serif, sans-serif" font-size="12px" font-style="normal" font-weight="normal" text-decoration="normal" x="1228" y="666" text-anchor="start" dominant-baseline="alphabetic" stroke-opacity="1" stroke-linejoin="bevel" stroke-miterlimit="10" stroke-width="3">1986</text><text fill="rgb(37,37,37)" stroke="none" font-family="geogebra-sans-serif, sans-serif" font-size="12px" font-style="normal" font-weight="normal" text-decoration="normal" x="1228" y="666" text-anchor="start" dominant-baseline="alphabetic" fill-opacity="1">1986</text><text fill="rgb(37,37,37)" stroke="none" font-family="geogebra-sans-serif, sans-serif" font-size="12px" font-style="normal" font-weight="normal" text-decoration="normal" x="1298" y="666" text-anchor="start" dominant-baseline="alphabetic" fill-opacity="1">1987</text><text fill="none" stroke="rgb(255,255,255)" font-family="geogebra-sans-serif, sans-serif" font-size="12px" font-style="normal" font-weight="normal" text-decoration="normal" x="1298" y="666" text-anchor="start" dominant-baseline="alphabetic" stroke-opacity="1" stroke-linejoin="bevel" stroke-miterlimit="10" stroke-width="3">1987</text><text fill="rgb(37,37,37)" stroke="none" font-family="geogebra-sans-serif, sans-serif" font-size="12px" font-style="normal" font-weight="normal" text-decoration="normal" x="1298" y="666" text-anchor="start" dominant-baseline="alphabetic" fill-opacity="1">1987</text><text fill="rgb(37,37,37)" stroke="none" font-family="geogebra-sans-serif, sans-serif" font-size="12px" font-style="normal" font-weight="normal" text-decoration="normal" x="1368" y="666" text-anchor="start" dominant-baseline="alphabetic" fill-opacity="1">1988</text><text fill="none" stroke="rgb(255,255,255)" font-family="geogebra-sans-serif, sans-serif" font-size="12px" font-style="normal" font-weight="normal" text-decoration="normal" x="1368" y="666" text-anchor="start" dominant-baseline="alphabetic" stroke-opacity="1" stroke-linejoin="bevel" stroke-miterlimit="10" stroke-width="3">1988</text><text fill="rgb(37,37,37)" stroke="none" font-family="geogebra-sans-serif, sans-serif" font-size="12px" font-style="normal" font-weight="normal" text-decoration="normal" x="1368" y="666" text-anchor="start" dominant-baseline="alphabetic" fill-opacity="1">1988</text><text fill="rgb(37,37,37)" stroke="none" font-family="geogebra-sans-serif, sans-serif" font-size="12px" font-style="normal" font-weight="normal" text-decoration="normal" x="1438" y="666" text-anchor="start" dominant-baseline="alphabetic" fill-opacity="1">1989</text><text fill="none" stroke="rgb(255,255,255)" font-family="geogebra-sans-serif, sans-serif" font-size="12px" font-style="normal" font-weight="normal" text-decoration="normal" x="1438" y="666" text-anchor="start" dominant-baseline="alphabetic" stroke-opacity="1" stroke-linejoin="bevel" stroke-miterlimit="10" stroke-width="3">1989</text><text fill="rgb(37,37,37)" stroke="none" font-family="geogebra-sans-serif, sans-serif" font-size="12px" font-style="normal" font-weight="normal" text-decoration="normal" x="1438" y="666" text-anchor="start" dominant-baseline="alphabetic" fill-opacity="1">1989</text><text fill="rgb(37,37,37)" stroke="none" font-family="geogebra-sans-serif, sans-serif" font-size="12px" font-style="normal" font-weight="normal" text-decoration="normal" x="3" y="630" text-anchor="start" dominant-baseline="alphabetic" fill-opacity="1">1.5</text><text fill="none" stroke="rgb(255,255,255)" font-family="geogebra-sans-serif, sans-serif" font-size="12px" font-style="normal" font-weight="normal" text-decoration="normal" x="3" y="630" text-anchor="start" dominant-baseline="alphabetic" stroke-opacity="1" stroke-linejoin="bevel" stroke-miterlimit="10" stroke-width="3">1.5</text><text fill="rgb(37,37,37)" stroke="none" font-family="geogebra-sans-serif, sans-serif" font-size="12px" font-style="normal" font-weight="normal" text-decoration="normal" x="3" y="630" text-anchor="start" dominant-baseline="alphabetic" fill-opacity="1">1.5</text><text fill="rgb(37,37,37)" stroke="none" font-family="geogebra-sans-serif, sans-serif" font-size="12px" font-style="normal" font-weight="normal" text-decoration="normal" x="13" y="573" text-anchor="start" dominant-baseline="alphabetic" fill-opacity="1">2</text><text fill="none" stroke="rgb(255,255,255)" font-family="geogebra-sans-serif, sans-serif" font-size="12px" font-style="normal" font-weight="normal" text-decoration="normal" x="13" y="573" text-anchor="start" dominant-baseline="alphabetic" stroke-opacity="1" stroke-linejoin="bevel" stroke-miterlimit="10" stroke-width="3">2</text><text fill="rgb(37,37,37)" stroke="none" font-family="geogebra-sans-serif, sans-serif" font-size="12px" font-style="normal" font-weight="normal" text-decoration="normal" x="13" y="573" text-anchor="start" dominant-baseline="alphabetic" fill-opacity="1">2</text><text fill="rgb(37,37,37)" stroke="none" font-family="geogebra-sans-serif, sans-serif" font-size="12px" font-style="normal" font-weight="normal" text-decoration="normal" x="3" y="516" text-anchor="start" dominant-baseline="alphabetic" fill-opacity="1">2.5</text><text fill="none" stroke="rgb(255,255,255)" font-family="geogebra-sans-serif, sans-serif" font-size="12px" font-style="normal" font-weight="normal" text-decoration="normal" x="3" y="516" text-anchor="start" dominant-baseline="alphabetic" stroke-opacity="1" stroke-linejoin="bevel" stroke-miterlimit="10" stroke-width="3">2.5</text><text fill="rgb(37,37,37)" stroke="none" font-family="geogebra-sans-serif, sans-serif" font-size="12px" font-style="normal" font-weight="normal" text-decoration="normal" x="3" y="516" text-anchor="start" dominant-baseline="alphabetic" fill-opacity="1">2.5</text><text fill="rgb(37,37,37)" stroke="none" font-family="geogebra-sans-serif, sans-serif" font-size="12px" font-style="normal" font-weight="normal" text-decoration="normal" x="13" y="460" text-anchor="start" dominant-baseline="alphabetic" fill-opacity="1">3</text><text fill="none" stroke="rgb(255,255,255)" font-family="geogebra-sans-serif, sans-serif" font-size="12px" font-style="normal" font-weight="normal" text-decoration="normal" x="13" y="460" text-anchor="start" dominant-baseline="alphabetic" stroke-opacity="1" stroke-linejoin="bevel" stroke-miterlimit="10" stroke-width="3">3</text><text fill="rgb(37,37,37)" stroke="none" font-family="geogebra-sans-serif, sans-serif" font-size="12px" font-style="normal" font-weight="normal" text-decoration="normal" x="13" y="460" text-anchor="start" dominant-baseline="alphabetic" fill-opacity="1">3</text><text fill="rgb(37,37,37)" stroke="none" font-family="geogebra-sans-serif, sans-serif" font-size="12px" font-style="normal" font-weight="normal" text-decoration="normal" x="3" y="403" text-anchor="start" dominant-baseline="alphabetic" fill-opacity="1">3.5</text><text fill="none" stroke="rgb(255,255,255)" font-family="geogebra-sans-serif, sans-serif" font-size="12px" font-style="normal" font-weight="normal" text-decoration="normal" x="3" y="403" text-anchor="start" dominant-baseline="alphabetic" stroke-opacity="1" stroke-linejoin="bevel" stroke-miterlimit="10" stroke-width="3">3.5</text><text fill="rgb(37,37,37)" stroke="none" font-family="geogebra-sans-serif, sans-serif" font-size="12px" font-style="normal" font-weight="normal" text-decoration="normal" x="3" y="403" text-anchor="start" dominant-baseline="alphabetic" fill-opacity="1">3.5</text><text fill="rgb(37,37,37)" stroke="none" font-family="geogebra-sans-serif, sans-serif" font-size="12px" font-style="normal" font-weight="normal" text-decoration="normal" x="13" y="346" text-anchor="start" dominant-baseline="alphabetic" fill-opacity="1">4</text><text fill="none" stroke="rgb(255,255,255)" font-family="geogebra-sans-serif, sans-serif" font-size="12px" font-style="normal" font-weight="normal" text-decoration="normal" x="13" y="346" text-anchor="start" dominant-baseline="alphabetic" stroke-opacity="1" stroke-linejoin="bevel" stroke-miterlimit="10" stroke-width="3">4</text><text fill="rgb(37,37,37)" stroke="none" font-family="geogebra-sans-serif, sans-serif" font-size="12px" font-style="normal" font-weight="normal" text-decoration="normal" x="13" y="346" text-anchor="start" dominant-baseline="alphabetic" fill-opacity="1">4</text><text fill="rgb(37,37,37)" stroke="none" font-family="geogebra-sans-serif, sans-serif" font-size="12px" font-style="normal" font-weight="normal" text-decoration="normal" x="3" y="289" text-anchor="start" dominant-baseline="alphabetic" fill-opacity="1">4.5</text><text fill="none" stroke="rgb(255,255,255)" font-family="geogebra-sans-serif, sans-serif" font-size="12px" font-style="normal" font-weight="normal" text-decoration="normal" x="3" y="289" text-anchor="start" dominant-baseline="alphabetic" stroke-opacity="1" stroke-linejoin="bevel" stroke-miterlimit="10" stroke-width="3">4.5</text><text fill="rgb(37,37,37)" stroke="none" font-family="geogebra-sans-serif, sans-serif" font-size="12px" font-style="normal" font-weight="normal" text-decoration="normal" x="3" y="289" text-anchor="start" dominant-baseline="alphabetic" fill-opacity="1">4.5</text><text fill="rgb(37,37,37)" stroke="none" font-family="geogebra-sans-serif, sans-serif" font-size="12px" font-style="normal" font-weight="normal" text-decoration="normal" x="13" y="232" text-anchor="start" dominant-baseline="alphabetic" fill-opacity="1">5</text><text fill="none" stroke="rgb(255,255,255)" font-family="geogebra-sans-serif, sans-serif" font-size="12px" font-style="normal" font-weight="normal" text-decoration="normal" x="13" y="232" text-anchor="start" dominant-baseline="alphabetic" stroke-opacity="1" stroke-linejoin="bevel" stroke-miterlimit="10" stroke-width="3">5</text><text fill="rgb(37,37,37)" stroke="none" font-family="geogebra-sans-serif, sans-serif" font-size="12px" font-style="normal" font-weight="normal" text-decoration="normal" x="13" y="232" text-anchor="start" dominant-baseline="alphabetic" fill-opacity="1">5</text><text fill="rgb(37,37,37)" stroke="none" font-family="geogebra-sans-serif, sans-serif" font-size="12px" font-style="normal" font-weight="normal" text-decoration="normal" x="3" y="175" text-anchor="start" dominant-baseline="alphabetic" fill-opacity="1">5.5</text><text fill="none" stroke="rgb(255,255,255)" font-family="geogebra-sans-serif, sans-serif" font-size="12px" font-style="normal" font-weight="normal" text-decoration="normal" x="3" y="175" text-anchor="start" dominant-baseline="alphabetic" stroke-opacity="1" stroke-linejoin="bevel" stroke-miterlimit="10" stroke-width="3">5.5</text><text fill="rgb(37,37,37)" stroke="none" font-family="geogebra-sans-serif, sans-serif" font-size="12px" font-style="normal" font-weight="normal" text-decoration="normal" x="3" y="175" text-anchor="start" dominant-baseline="alphabetic" fill-opacity="1">5.5</text><text fill="rgb(37,37,37)" stroke="none" font-family="geogebra-sans-serif, sans-serif" font-size="12px" font-style="normal" font-weight="normal" text-decoration="normal" x="13" y="118" text-anchor="start" dominant-baseline="alphabetic" fill-opacity="1">6</text><text fill="none" stroke="rgb(255,255,255)" font-family="geogebra-sans-serif, sans-serif" font-size="12px" font-style="normal" font-weight="normal" text-decoration="normal" x="13" y="118" text-anchor="start" dominant-baseline="alphabetic" stroke-opacity="1" stroke-linejoin="bevel" stroke-miterlimit="10" stroke-width="3">6</text><text fill="rgb(37,37,37)" stroke="none" font-family="geogebra-sans-serif, sans-serif" font-size="12px" font-style="normal" font-weight="normal" text-decoration="normal" x="13" y="118" text-anchor="start" dominant-baseline="alphabetic" fill-opacity="1">6</text><text fill="rgb(37,37,37)" stroke="none" font-family="geogebra-sans-serif, sans-serif" font-size="12px" font-style="normal" font-weight="normal" text-decoration="normal" x="3" y="61" text-anchor="start" dominant-baseline="alphabetic" fill-opacity="1">6.5</text><text fill="none" stroke="rgb(255,255,255)" font-family="geogebra-sans-serif, sans-serif" font-size="12px" font-style="normal" font-weight="normal" text-decoration="normal" x="3" y="61" text-anchor="start" dominant-baseline="alphabetic" stroke-opacity="1" stroke-linejoin="bevel" stroke-miterlimit="10" stroke-width="3">6.5</text><text fill="rgb(37,37,37)" stroke="none" font-family="geogebra-sans-serif, sans-serif" font-size="12px" font-style="normal" font-weight="normal" text-decoration="normal" x="3" y="61" text-anchor="start" dominant-baseline="alphabetic" fill-opacity="1">6.5</text><path fill="none" stroke="rgb(128,128,128)" paint-order="fill stroke markers" d=" M 121.57435348280706 640.0220680122402 L 121.57435348280706 568.8463482049219" stroke-opacity="1" stroke-linejoin="round" stroke-miterlimit="10" stroke-width="3" stroke-dasharray="11,8"/><path fill="none" stroke="rgb(128,128,128)" paint-order="fill stroke markers" d=" M 191.4655715150293 549.0245165238861 L 191.4655715150293 475.35983198569625" stroke-opacity="1" stroke-linejoin="round" stroke-miterlimit="10" stroke-width="3" stroke-dasharray="11,8"/><path fill="none" stroke="rgb(128,128,128)" paint-order="fill stroke markers" d=" M 261.35678954722243 455.0770785639375 L 261.35678954722243 377.86245539103186" stroke-opacity="1" stroke-linejoin="round" stroke-miterlimit="10" stroke-width="3" stroke-dasharray="11,8"/><path fill="none" stroke="rgb(128,128,128)" paint-order="fill stroke markers" d=" M 331.2480075794447 421.19462276643696 L 331.2480075794447 306.3643792216082" stroke-opacity="1" stroke-linejoin="round" stroke-miterlimit="10" stroke-width="3" stroke-dasharray="11,8"/><path fill="none" stroke="rgb(128,128,128)" paint-order="fill stroke markers" d=" M 401.1392256116669 471.02661524815227 L 401.1392256116669 258.69899510865923" stroke-opacity="1" stroke-linejoin="round" stroke-miterlimit="10" stroke-width="3" stroke-dasharray="11,8"/><path fill="none" stroke="rgb(128,128,128)" paint-order="fill stroke markers" d=" M 471.03044364386005 406.0283641850389 L 471.03044364386005 271.6986453212796" stroke-opacity="1" stroke-linejoin="round" stroke-miterlimit="10" stroke-width="3" stroke-dasharray="11,8"/><path fill="none" stroke="rgb(128,128,128)" paint-order="fill stroke markers" d=" M 540.9216616760823 386.5288888661083 L 540.9216616760823 278.19847042758977" stroke-opacity="1" stroke-linejoin="round" stroke-miterlimit="10" stroke-width="3" stroke-dasharray="11,8"/><path fill="none" stroke="rgb(128,128,128)" paint-order="fill stroke markers" d=" M 610.8128797083045 306.3643792216082 L 610.8128797083045 260.86560347742545" stroke-opacity="1" stroke-linejoin="round" stroke-miterlimit="10" stroke-width="3" stroke-dasharray="11,8"/><path fill="none" stroke="rgb(128,128,128)" paint-order="fill stroke markers" d=" M 680.7040977405268 295.53133737775414 L 680.7040977405268 250.03256163357128" stroke-opacity="1" stroke-linejoin="round" stroke-miterlimit="10" stroke-width="3" stroke-dasharray="11,8"/><path fill="none" stroke="rgb(128,128,128)" paint-order="fill stroke markers" d=" M 750.5953157727199 227.53853928196872 L 750.5953157727199 161.20161851399484" stroke-opacity="1" stroke-linejoin="round" stroke-miterlimit="10" stroke-width="3" stroke-dasharray="11,8"/><path fill="none" stroke="rgb(128,128,128)" paint-order="fill stroke markers" d=" M 820.4865338049422 202.36717752063373 L 820.4865338049422 154.7017934076846" stroke-opacity="1" stroke-linejoin="round" stroke-miterlimit="10" stroke-width="3" stroke-dasharray="11,8"/><path fill="none" stroke="rgb(128,128,128)" paint-order="fill stroke markers" d=" M 890.3777518371644 191.53413567677956 L 890.3777518371644 141.70214319505283" stroke-opacity="1" stroke-linejoin="round" stroke-miterlimit="10" stroke-width="3" stroke-dasharray="11,8"/><path fill="none" stroke="rgb(128,128,128)" paint-order="fill stroke markers" d=" M 960.2689698693575 293.36472900898787 L 960.2689698693575 178.53448546415916" stroke-opacity="1" stroke-linejoin="round" stroke-miterlimit="10" stroke-width="3" stroke-dasharray="11,8"/><path fill="none" stroke="rgb(128,128,128)" paint-order="fill stroke markers" d=" M 1030.1601879015798 341.30780892295314 L 1030.1601879015798 193.70074404554578" stroke-opacity="1" stroke-linejoin="round" stroke-miterlimit="10" stroke-width="3" stroke-dasharray="11,8"/><path fill="none" stroke="rgb(128,128,128)" paint-order="fill stroke markers" d=" M 1100.051405933802 341.30780892295314 L 1100.051405933802 208.86700262694387" stroke-opacity="1" stroke-linejoin="round" stroke-miterlimit="10" stroke-width="3" stroke-dasharray="11,8"/><path fill="none" stroke="rgb(128,128,128)" paint-order="fill stroke markers" d=" M 1169.9426239659952 410.3615809225828 L 1169.9426239659952 150.36857667014067" stroke-opacity="1" stroke-linejoin="round" stroke-miterlimit="10" stroke-width="3" stroke-dasharray="11,8"/><path fill="none" stroke="rgb(128,128,128)" paint-order="fill stroke markers" d=" M 1239.8338419982174 425.5278395039809 L 1239.8338419982174 146.03535993259675" stroke-opacity="1" stroke-linejoin="round" stroke-miterlimit="10" stroke-width="3" stroke-dasharray="11,8"/><path fill="none" stroke="rgb(128,128,128)" paint-order="fill stroke markers" d=" M 1309.7250600304396 427.69444787274716 L 1309.7250600304396 128.70249298243243" stroke-opacity="1" stroke-linejoin="round" stroke-miterlimit="10" stroke-width="3" stroke-dasharray="11,8"/><path fill="none" stroke="rgb(128,128,128)" paint-order="fill stroke markers" d=" M 1379.6162780626328 403.86175581627265 L 1379.6162780626328 31.205116387768044" stroke-opacity="1" stroke-linejoin="round" stroke-miterlimit="10" stroke-width="3" stroke-dasharray="11,8"/><path fill="rgb(128,0,0)" stroke="none" paint-order="stroke fill markers" d=" M 126.57435348280706 568.8463482049219 C 126.57435348280706 571.6077719540759 124.33577723196102 573.8463482049219 121.57435348280706 573.8463482049219 C 118.81292973365309 573.8463482049219 116.57435348280706 571.6077719540759 116.57435348280706 568.8463482049219 C 116.57435348280706 566.0849244557679 118.81292973365309 563.8463482049219 121.57435348280706 563.8463482049219 C 124.33577723196102 563.8463482049219 126.57435348280706 566.0849244557679 126.57435348280706 568.8463482049219 Z" fill-opacity="1"/><path fill="rgb(128,0,0)" stroke="none" paint-order="stroke fill markers" d=" M 196.4655715150293 475.35983198569625 C 196.4655715150293 478.1212557348502 194.22699526418327 480.35983198569625 191.4655715150293 480.35983198569625 C 188.70414776587532 480.35983198569625 186.4655715150293 478.1212557348502 186.4655715150293 475.35983198569625 C 186.4655715150293 472.5984082365423 188.70414776587532 470.35983198569625 191.4655715150293 470.35983198569625 C 194.22699526418327 470.35983198569625 196.4655715150293 472.5984082365423 196.4655715150293 475.35983198569625 Z" fill-opacity="1"/><path fill="rgb(128,0,0)" stroke="none" paint-order="stroke fill markers" d=" M 266.35678954722243 455.0770785639375 C 266.35678954722243 457.83850231309145 264.1182132963764 460.0770785639375 261.35678954722243 460.0770785639375 C 258.5953657980685 460.0770785639375 256.35678954722243 457.83850231309145 256.35678954722243 455.0770785639375 C 256.35678954722243 452.31565481478356 258.5953657980685 450.0770785639375 261.35678954722243 450.0770785639375 C 264.1182132963764 450.0770785639375 266.35678954722243 452.31565481478356 266.35678954722243 455.0770785639375 Z" fill-opacity="1"/><path fill="rgb(128,0,0)" stroke="none" paint-order="stroke fill markers" d=" M 336.2480075794447 421.19462276643696 C 336.2480075794447 423.9560465155909 334.0094313285986 426.19462276643696 331.2480075794447 426.19462276643696 C 328.4865838302907 426.19462276643696 326.2480075794447 423.9560465155909 326.2480075794447 421.19462276643696 C 326.2480075794447 418.433199017283 328.4865838302907 416.19462276643696 331.2480075794447 416.19462276643696 C 334.0094313285986 416.19462276643696 336.2480075794447 418.433199017283 336.2480075794447 421.19462276643696 Z" fill-opacity="1"/><path fill="rgb(128,0,0)" stroke="none" paint-order="stroke fill markers" d=" M 406.1392256116669 471.02661524815227 C 406.1392256116669 473.7880389973062 403.90064936082086 476.02661524815227 401.1392256116669 476.02661524815227 C 398.37780186251297 476.02661524815227 396.1392256116669 473.7880389973062 396.1392256116669 471.02661524815227 C 396.1392256116669 468.2651914989983 398.37780186251297 466.02661524815227 401.1392256116669 466.02661524815227 C 403.90064936082086 466.02661524815227 406.1392256116669 468.2651914989983 406.1392256116669 471.02661524815227 Z" fill-opacity="1"/><path fill="rgb(128,0,0)" stroke="none" paint-order="stroke fill markers" d=" M 476.03044364386005 406.0283641850389 C 476.03044364386005 408.7897879341929 473.791867393014 411.0283641850389 471.03044364386005 411.0283641850389 C 468.2690198947061 411.0283641850389 466.03044364386005 408.7897879341929 466.03044364386005 406.0283641850389 C 466.03044364386005 403.266940435885 468.2690198947061 401.0283641850389 471.03044364386005 401.0283641850389 C 473.791867393014 401.0283641850389 476.03044364386005 403.266940435885 476.03044364386005 406.0283641850389 Z" fill-opacity="1"/><path fill="rgb(128,0,0)" stroke="none" paint-order="stroke fill markers" d=" M 545.9216616760823 386.5288888661083 C 545.9216616760823 389.2903126152622 543.6830854252363 391.5288888661083 540.9216616760823 391.5288888661083 C 538.1602379269283 391.5288888661083 535.9216616760823 389.2903126152622 535.9216616760823 386.5288888661083 C 535.9216616760823 383.7674651169543 538.1602379269283 381.5288888661083 540.9216616760823 381.5288888661083 C 543.6830854252363 381.5288888661083 545.9216616760823 383.7674651169543 545.9216616760823 386.5288888661083 Z" fill-opacity="1"/><path fill="rgb(128,0,0)" stroke="none" paint-order="stroke fill markers" d=" M 615.8128797083045 306.3643792216082 C 615.8128797083045 309.12580297076215 613.5743034574585 311.3643792216082 610.8128797083045 311.3643792216082 C 608.0514559591505 311.3643792216082 605.8128797083045 309.12580297076215 605.8128797083045 306.3643792216082 C 605.8128797083045 303.60295547245425 608.0514559591505 301.3643792216082 610.8128797083045 301.3643792216082 C 613.5743034574585 301.3643792216082 615.8128797083045 303.60295547245425 615.8128797083045 306.3643792216082 Z" fill-opacity="1"/><path fill="rgb(128,0,0)" stroke="none" paint-order="stroke fill markers" d=" M 685.7040977405268 250.03256163357128 C 685.7040977405268 252.79398538272525 683.4655214896808 255.03256163357128 680.7040977405268 255.03256163357128 C 677.9426739913728 255.03256163357128 675.7040977405268 252.79398538272525 675.7040977405268 250.03256163357128 C 675.7040977405268 247.2711378844173 677.9426739913728 245.03256163357128 680.7040977405268 245.03256163357128 C 683.4655214896808 245.03256163357128 685.7040977405268 247.2711378844173 685.7040977405268 250.03256163357128 Z" fill-opacity="1"/><path fill="rgb(128,0,0)" stroke="none" paint-order="stroke fill markers" d=" M 755.5953157727199 227.53853928196872 C 755.5953157727199 230.2999630311227 753.3567395218739 232.53853928196872 750.5953157727199 232.53853928196872 C 747.8338920235659 232.53853928196872 745.5953157727199 230.2999630311227 745.5953157727199 227.53853928196872 C 745.5953157727199 224.77711553281475 747.8338920235659 222.53853928196872 750.5953157727199 222.53853928196872 C 753.3567395218739 222.53853928196872 755.5953157727199 224.77711553281475 755.5953157727199 227.53853928196872 Z" fill-opacity="1"/><path fill="rgb(128,0,0)" stroke="none" paint-order="stroke fill markers" d=" M 825.4865338049422 202.36717752063373 C 825.4865338049422 205.1286012697877 823.2479575540962 207.36717752063373 820.4865338049422 207.36717752063373 C 817.7251100557882 207.36717752063373 815.4865338049422 205.1286012697877 815.4865338049422 202.36717752063373 C 815.4865338049422 199.60575377147975 817.7251100557882 197.36717752063373 820.4865338049422 197.36717752063373 C 823.2479575540962 197.36717752063373 825.4865338049422 199.60575377147975 825.4865338049422 202.36717752063373 Z" fill-opacity="1"/><path fill="rgb(128,0,0)" stroke="none" paint-order="stroke fill markers" d=" M 895.3777518371644 191.53413567677956 C 895.3777518371644 194.29555942593353 893.1391755863184 196.53413567677956 890.3777518371644 196.53413567677956 C 887.6163280880104 196.53413567677956 885.3777518371644 194.29555942593353 885.3777518371644 191.53413567677956 C 885.3777518371644 188.77271192762558 887.6163280880104 186.53413567677956 890.3777518371644 186.53413567677956 C 893.1391755863184 186.53413567677956 895.3777518371644 188.77271192762558 895.3777518371644 191.53413567677956 Z" fill-opacity="1"/><path fill="rgb(128,0,0)" stroke="none" paint-order="stroke fill markers" d=" M 965.2689698693575 178.53448546415916 C 965.2689698693575 181.29590921331314 963.0303936185115 183.53448546415916 960.2689698693575 183.53448546415916 C 957.5075461202035 183.53448546415916 955.2689698693575 181.29590921331314 955.2689698693575 178.53448546415916 C 955.2689698693575 175.77306171500518 957.5075461202035 173.53448546415916 960.2689698693575 173.53448546415916 C 963.0303936185115 173.53448546415916 965.2689698693575 175.77306171500518 965.2689698693575 178.53448546415916 Z" fill-opacity="1"/><path fill="rgb(128,0,0)" stroke="none" paint-order="stroke fill markers" d=" M 1035.1601879015798 193.70074404554578 C 1035.1601879015798 196.46216779469975 1032.9216116507337 198.70074404554578 1030.1601879015798 198.70074404554578 C 1027.3987641524259 198.70074404554578 1025.1601879015798 196.46216779469975 1025.1601879015798 193.70074404554578 C 1025.1601879015798 190.9393202963918 1027.3987641524259 188.70074404554578 1030.1601879015798 188.70074404554578 C 1032.9216116507337 188.70074404554578 1035.1601879015798 190.9393202963918 1035.1601879015798 193.70074404554578 Z" fill-opacity="1"/><path fill="rgb(128,0,0)" stroke="none" paint-order="stroke fill markers" d=" M 1105.051405933802 208.86700262694387 C 1105.051405933802 211.62842637609785 1102.812829682956 213.86700262694387 1100.051405933802 213.86700262694387 C 1097.2899821846481 213.86700262694387 1095.051405933802 211.62842637609785 1095.051405933802 208.86700262694387 C 1095.051405933802 206.1055788777899 1097.2899821846481 203.86700262694387 1100.051405933802 203.86700262694387 C 1102.812829682956 203.86700262694387 1105.051405933802 206.1055788777899 1105.051405933802 208.86700262694387 Z" fill-opacity="1"/><path fill="rgb(128,0,0)" stroke="none" paint-order="stroke fill markers" d=" M 1174.9426239659952 150.36857667014067 C 1174.9426239659952 153.13000041929465 1172.704047715149 155.36857667014067 1169.9426239659952 155.36857667014067 C 1167.1812002168413 155.36857667014067 1164.9426239659952 153.13000041929465 1164.9426239659952 150.36857667014067 C 1164.9426239659952 147.6071529209867 1167.1812002168413 145.36857667014067 1169.9426239659952 145.36857667014067 C 1172.704047715149 145.36857667014067 1174.9426239659952 147.6071529209867 1174.9426239659952 150.36857667014067 Z" fill-opacity="1"/><path fill="rgb(128,0,0)" stroke="none" paint-order="stroke fill markers" d=" M 1244.8338419982174 146.03535993259675 C 1244.8338419982174 148.79678368175072 1242.5952657473713 151.03535993259675 1239.8338419982174 151.03535993259675 C 1237.0724182490635 151.03535993259675 1234.8338419982174 148.79678368175072 1234.8338419982174 146.03535993259675 C 1234.8338419982174 143.27393618344277 1237.0724182490635 141.03535993259675 1239.8338419982174 141.03535993259675 C 1242.5952657473713 141.03535993259675 1244.8338419982174 143.27393618344277 1244.8338419982174 146.03535993259675 Z" fill-opacity="1"/><path fill="rgb(128,0,0)" stroke="none" paint-order="stroke fill markers" d=" M 1314.7250600304396 128.70249298243243 C 1314.7250600304396 131.4639167315864 1312.4864837795935 133.70249298243243 1309.7250600304396 133.70249298243243 C 1306.9636362812857 133.70249298243243 1304.7250600304396 131.4639167315864 1304.7250600304396 128.70249298243243 C 1304.7250600304396 125.94106923327847 1306.9636362812857 123.70249298243243 1309.7250600304396 123.70249298243243 C 1312.4864837795935 123.70249298243243 1314.7250600304396 125.94106923327847 1314.7250600304396 128.70249298243243 Z" fill-opacity="1"/><path fill="rgb(128,0,0)" stroke="none" paint-order="stroke fill markers" d=" M 1384.6162780626328 31.205116387768044 C 1384.6162780626328 33.966540136922006 1382.3777018117867 36.205116387768044 1379.6162780626328 36.205116387768044 C 1376.8548543134789 36.205116387768044 1374.6162780626328 33.966540136922006 1374.6162780626328 31.205116387768044 C 1374.6162780626328 28.443692638614078 1376.8548543134789 26.205116387768044 1379.6162780626328 26.205116387768044 C 1382.3777018117867 26.205116387768044 1384.6162780626328 28.443692638614078 1384.6162780626328 31.205116387768044 Z" fill-opacity="1"/><path fill="rgb(0,0,128)" stroke="none" paint-order="stroke fill markers" d=" M 126.57435348280706 640.0220680122402 C 126.57435348280706 642.7834917613942 124.33577723196102 645.0220680122402 121.57435348280706 645.0220680122402 C 118.81292973365309 645.0220680122402 116.57435348280706 642.7834917613942 116.57435348280706 640.0220680122402 C 116.57435348280706 637.2606442630862 118.81292973365309 635.0220680122402 121.57435348280706 635.0220680122402 C 124.33577723196102 635.0220680122402 126.57435348280706 637.2606442630862 126.57435348280706 640.0220680122402 Z" fill-opacity="1"/><path fill="none" stroke="rgb(0,0,0)" paint-order="fill stroke markers" d=" M 126.57435348280706 640.0220680122402 C 126.57435348280706 642.7834917613942 124.33577723196102 645.0220680122402 121.57435348280706 645.0220680122402 C 118.81292973365309 645.0220680122402 116.57435348280706 642.7834917613942 116.57435348280706 640.0220680122402 C 116.57435348280706 637.2606442630862 118.81292973365309 635.0220680122402 121.57435348280706 635.0220680122402 C 124.33577723196102 635.0220680122402 126.57435348280706 637.2606442630862 126.57435348280706 640.0220680122402 Z" stroke-opacity="1" stroke-linecap="round" stroke-linejoin="round" stroke-miterlimit="10"/><path fill="rgb(0,0,128)" stroke="none" paint-order="stroke fill markers" d=" M 196.4655715150293 549.0245165238861 C 196.4655715150293 551.7859402730401 194.22699526418327 554.0245165238861 191.4655715150293 554.0245165238861 C 188.70414776587532 554.0245165238861 186.4655715150293 551.7859402730401 186.4655715150293 549.0245165238861 C 186.4655715150293 546.2630927747321 188.70414776587532 544.0245165238861 191.4655715150293 544.0245165238861 C 194.22699526418327 544.0245165238861 196.4655715150293 546.2630927747321 196.4655715150293 549.0245165238861 Z" fill-opacity="1"/><path fill="none" stroke="rgb(0,0,0)" paint-order="fill stroke markers" d=" M 196.4655715150293 549.0245165238861 C 196.4655715150293 551.7859402730401 194.22699526418327 554.0245165238861 191.4655715150293 554.0245165238861 C 188.70414776587532 554.0245165238861 186.4655715150293 551.7859402730401 186.4655715150293 549.0245165238861 C 186.4655715150293 546.2630927747321 188.70414776587532 544.0245165238861 191.4655715150293 544.0245165238861 C 194.22699526418327 544.0245165238861 196.4655715150293 546.2630927747321 196.4655715150293 549.0245165238861 Z" stroke-opacity="1" stroke-linecap="round" stroke-linejoin="round" stroke-miterlimit="10"/><path fill="rgb(0,0,128)" stroke="none" paint-order="stroke fill markers" d=" M 266.35678954722243 377.86245539103186 C 266.35678954722243 380.6238791401858 264.1182132963764 382.86245539103186 261.35678954722243 382.86245539103186 C 258.5953657980685 382.86245539103186 256.35678954722243 380.6238791401858 256.35678954722243 377.86245539103186 C 256.35678954722243 375.1010316418779 258.5953657980685 372.86245539103186 261.35678954722243 372.86245539103186 C 264.1182132963764 372.86245539103186 266.35678954722243 375.1010316418779 266.35678954722243 377.86245539103186 Z" fill-opacity="1"/><path fill="none" stroke="rgb(0,0,0)" paint-order="fill stroke markers" d=" M 266.35678954722243 377.86245539103186 C 266.35678954722243 380.6238791401858 264.1182132963764 382.86245539103186 261.35678954722243 382.86245539103186 C 258.5953657980685 382.86245539103186 256.35678954722243 380.6238791401858 256.35678954722243 377.86245539103186 C 256.35678954722243 375.1010316418779 258.5953657980685 372.86245539103186 261.35678954722243 372.86245539103186 C 264.1182132963764 372.86245539103186 266.35678954722243 375.1010316418779 266.35678954722243 377.86245539103186 Z" stroke-opacity="1" stroke-linecap="round" stroke-linejoin="round" stroke-miterlimit="10"/><path fill="rgb(0,0,128)" stroke="none" paint-order="stroke fill markers" d=" M 336.2480075794447 306.3643792216082 C 336.2480075794447 309.12580297076215 334.0094313285986 311.3643792216082 331.2480075794447 311.3643792216082 C 328.4865838302907 311.3643792216082 326.2480075794447 309.12580297076215 326.2480075794447 306.3643792216082 C 326.2480075794447 303.60295547245425 328.4865838302907 301.3643792216082 331.2480075794447 301.3643792216082 C 334.0094313285986 301.3643792216082 336.2480075794447 303.60295547245425 336.2480075794447 306.3643792216082 Z" fill-opacity="1"/><path fill="none" stroke="rgb(0,0,0)" paint-order="fill stroke markers" d=" M 336.2480075794447 306.3643792216082 C 336.2480075794447 309.12580297076215 334.0094313285986 311.3643792216082 331.2480075794447 311.3643792216082 C 328.4865838302907 311.3643792216082 326.2480075794447 309.12580297076215 326.2480075794447 306.3643792216082 C 326.2480075794447 303.60295547245425 328.4865838302907 301.3643792216082 331.2480075794447 301.3643792216082 C 334.0094313285986 301.3643792216082 336.2480075794447 303.60295547245425 336.2480075794447 306.3643792216082 Z" stroke-opacity="1" stroke-linecap="round" stroke-linejoin="round" stroke-miterlimit="10"/><path fill="rgb(0,0,128)" stroke="none" paint-order="stroke fill markers" d=" M 406.1392256116669 258.69899510865923 C 406.1392256116669 261.4604188578132 403.90064936082086 263.69899510865923 401.1392256116669 263.69899510865923 C 398.37780186251297 263.69899510865923 396.1392256116669 261.4604188578132 396.1392256116669 258.69899510865923 C 396.1392256116669 255.93757135950526 398.37780186251297 253.69899510865923 401.1392256116669 253.69899510865923 C 403.90064936082086 253.69899510865923 406.1392256116669 255.93757135950526 406.1392256116669 258.69899510865923 Z" fill-opacity="1"/><path fill="none" stroke="rgb(0,0,0)" paint-order="fill stroke markers" d=" M 406.1392256116669 258.69899510865923 C 406.1392256116669 261.4604188578132 403.90064936082086 263.69899510865923 401.1392256116669 263.69899510865923 C 398.37780186251297 263.69899510865923 396.1392256116669 261.4604188578132 396.1392256116669 258.69899510865923 C 396.1392256116669 255.93757135950526 398.37780186251297 253.69899510865923 401.1392256116669 253.69899510865923 C 403.90064936082086 253.69899510865923 406.1392256116669 255.93757135950526 406.1392256116669 258.69899510865923 Z" stroke-opacity="1" stroke-linecap="round" stroke-linejoin="round" stroke-miterlimit="10"/><path fill="rgb(0,0,128)" stroke="none" paint-order="stroke fill markers" d=" M 476.03044364386005 271.6986453212796 C 476.03044364386005 274.4600690704336 473.791867393014 276.6986453212796 471.03044364386005 276.6986453212796 C 468.2690198947061 276.6986453212796 466.03044364386005 274.4600690704336 466.03044364386005 271.6986453212796 C 466.03044364386005 268.9372215721257 468.2690198947061 266.6986453212796 471.03044364386005 266.6986453212796 C 473.791867393014 266.6986453212796 476.03044364386005 268.9372215721257 476.03044364386005 271.6986453212796 Z" fill-opacity="1"/><path fill="none" stroke="rgb(0,0,0)" paint-order="fill stroke markers" d=" M 476.03044364386005 271.6986453212796 C 476.03044364386005 274.4600690704336 473.791867393014 276.6986453212796 471.03044364386005 276.6986453212796 C 468.2690198947061 276.6986453212796 466.03044364386005 274.4600690704336 466.03044364386005 271.6986453212796 C 466.03044364386005 268.9372215721257 468.2690198947061 266.6986453212796 471.03044364386005 266.6986453212796 C 473.791867393014 266.6986453212796 476.03044364386005 268.9372215721257 476.03044364386005 271.6986453212796 Z" stroke-opacity="1" stroke-linecap="round" stroke-linejoin="round" stroke-miterlimit="10"/><path fill="rgb(0,0,128)" stroke="none" paint-order="stroke fill markers" d=" M 545.9216616760823 278.19847042758977 C 545.9216616760823 280.9598941767437 543.6830854252363 283.19847042758977 540.9216616760823 283.19847042758977 C 538.1602379269283 283.19847042758977 535.9216616760823 280.9598941767437 535.9216616760823 278.19847042758977 C 535.9216616760823 275.4370466784358 538.1602379269283 273.19847042758977 540.9216616760823 273.19847042758977 C 543.6830854252363 273.19847042758977 545.9216616760823 275.4370466784358 545.9216616760823 278.19847042758977 Z" fill-opacity="1"/><path fill="none" stroke="rgb(0,0,0)" paint-order="fill stroke markers" d=" M 545.9216616760823 278.19847042758977 C 545.9216616760823 280.9598941767437 543.6830854252363 283.19847042758977 540.9216616760823 283.19847042758977 C 538.1602379269283 283.19847042758977 535.9216616760823 280.9598941767437 535.9216616760823 278.19847042758977 C 535.9216616760823 275.4370466784358 538.1602379269283 273.19847042758977 540.9216616760823 273.19847042758977 C 543.6830854252363 273.19847042758977 545.9216616760823 275.4370466784358 545.9216616760823 278.19847042758977 Z" stroke-opacity="1" stroke-linecap="round" stroke-linejoin="round" stroke-miterlimit="10"/><path fill="rgb(0,0,128)" stroke="none" paint-order="stroke fill markers" d=" M 615.8128797083045 260.86560347742545 C 615.8128797083045 263.6270272265794 613.5743034574585 265.86560347742545 610.8128797083045 265.86560347742545 C 608.0514559591505 265.86560347742545 605.8128797083045 263.6270272265794 605.8128797083045 260.86560347742545 C 605.8128797083045 258.1041797282715 608.0514559591505 255.86560347742545 610.8128797083045 255.86560347742545 C 613.5743034574585 255.86560347742545 615.8128797083045 258.1041797282715 615.8128797083045 260.86560347742545 Z" fill-opacity="1"/><path fill="none" stroke="rgb(0,0,0)" paint-order="fill stroke markers" d=" M 615.8128797083045 260.86560347742545 C 615.8128797083045 263.6270272265794 613.5743034574585 265.86560347742545 610.8128797083045 265.86560347742545 C 608.0514559591505 265.86560347742545 605.8128797083045 263.6270272265794 605.8128797083045 260.86560347742545 C 605.8128797083045 258.1041797282715 608.0514559591505 255.86560347742545 610.8128797083045 255.86560347742545 C 613.5743034574585 255.86560347742545 615.8128797083045 258.1041797282715 615.8128797083045 260.86560347742545 Z" stroke-opacity="1" stroke-linecap="round" stroke-linejoin="round" stroke-miterlimit="10"/><path fill="rgb(0,0,128)" stroke="none" paint-order="stroke fill markers" d=" M 685.7040977405268 295.53133737775414 C 685.7040977405268 298.2927611269081 683.4655214896808 300.53133737775414 680.7040977405268 300.53133737775414 C 677.9426739913728 300.53133737775414 675.7040977405268 298.2927611269081 675.7040977405268 295.53133737775414 C 675.7040977405268 292.7699136286002 677.9426739913728 290.53133737775414 680.7040977405268 290.53133737775414 C 683.4655214896808 290.53133737775414 685.7040977405268 292.7699136286002 685.7040977405268 295.53133737775414 Z" fill-opacity="1"/><path fill="none" stroke="rgb(0,0,0)" paint-order="fill stroke markers" d=" M 685.7040977405268 295.53133737775414 C 685.7040977405268 298.2927611269081 683.4655214896808 300.53133737775414 680.7040977405268 300.53133737775414 C 677.9426739913728 300.53133737775414 675.7040977405268 298.2927611269081 675.7040977405268 295.53133737775414 C 675.7040977405268 292.7699136286002 677.9426739913728 290.53133737775414 680.7040977405268 290.53133737775414 C 683.4655214896808 290.53133737775414 685.7040977405268 292.7699136286002 685.7040977405268 295.53133737775414 Z" stroke-opacity="1" stroke-linecap="round" stroke-linejoin="round" stroke-miterlimit="10"/><path fill="rgb(0,0,128)" stroke="none" paint-order="stroke fill markers" d=" M 755.5953157727199 161.20161851399484 C 755.5953157727199 163.96304226314882 753.3567395218739 166.20161851399484 750.5953157727199 166.20161851399484 C 747.8338920235659 166.20161851399484 745.5953157727199 163.96304226314882 745.5953157727199 161.20161851399484 C 745.5953157727199 158.44019476484087 747.8338920235659 156.20161851399484 750.5953157727199 156.20161851399484 C 753.3567395218739 156.20161851399484 755.5953157727199 158.44019476484087 755.5953157727199 161.20161851399484 Z" fill-opacity="1"/><path fill="none" stroke="rgb(0,0,0)" paint-order="fill stroke markers" d=" M 755.5953157727199 161.20161851399484 C 755.5953157727199 163.96304226314882 753.3567395218739 166.20161851399484 750.5953157727199 166.20161851399484 C 747.8338920235659 166.20161851399484 745.5953157727199 163.96304226314882 745.5953157727199 161.20161851399484 C 745.5953157727199 158.44019476484087 747.8338920235659 156.20161851399484 750.5953157727199 156.20161851399484 C 753.3567395218739 156.20161851399484 755.5953157727199 158.44019476484087 755.5953157727199 161.20161851399484 Z" stroke-opacity="1" stroke-linecap="round" stroke-linejoin="round" stroke-miterlimit="10"/><path fill="rgb(0,0,128)" stroke="none" paint-order="stroke fill markers" d=" M 825.4865338049422 154.7017934076846 C 825.4865338049422 157.46321715683857 823.2479575540962 159.7017934076846 820.4865338049422 159.7017934076846 C 817.7251100557882 159.7017934076846 815.4865338049422 157.46321715683857 815.4865338049422 154.7017934076846 C 815.4865338049422 151.9403696585306 817.7251100557882 149.7017934076846 820.4865338049422 149.7017934076846 C 823.2479575540962 149.7017934076846 825.4865338049422 151.9403696585306 825.4865338049422 154.7017934076846 Z" fill-opacity="1"/><path fill="none" stroke="rgb(0,0,0)" paint-order="fill stroke markers" d=" M 825.4865338049422 154.7017934076846 C 825.4865338049422 157.46321715683857 823.2479575540962 159.7017934076846 820.4865338049422 159.7017934076846 C 817.7251100557882 159.7017934076846 815.4865338049422 157.46321715683857 815.4865338049422 154.7017934076846 C 815.4865338049422 151.9403696585306 817.7251100557882 149.7017934076846 820.4865338049422 149.7017934076846 C 823.2479575540962 149.7017934076846 825.4865338049422 151.9403696585306 825.4865338049422 154.7017934076846 Z" stroke-opacity="1" stroke-linecap="round" stroke-linejoin="round" stroke-miterlimit="10"/><path fill="rgb(0,0,128)" stroke="none" paint-order="stroke fill markers" d=" M 895.3777518371644 141.70214319505283 C 895.3777518371644 144.4635669442068 893.1391755863184 146.70214319505283 890.3777518371644 146.70214319505283 C 887.6163280880104 146.70214319505283 885.3777518371644 144.4635669442068 885.3777518371644 141.70214319505283 C 885.3777518371644 138.94071944589885 887.6163280880104 136.70214319505283 890.3777518371644 136.70214319505283 C 893.1391755863184 136.70214319505283 895.3777518371644 138.94071944589885 895.3777518371644 141.70214319505283 Z" fill-opacity="1"/><path fill="none" stroke="rgb(0,0,0)" paint-order="fill stroke markers" d=" M 895.3777518371644 141.70214319505283 C 895.3777518371644 144.4635669442068 893.1391755863184 146.70214319505283 890.3777518371644 146.70214319505283 C 887.6163280880104 146.70214319505283 885.3777518371644 144.4635669442068 885.3777518371644 141.70214319505283 C 885.3777518371644 138.94071944589885 887.6163280880104 136.70214319505283 890.3777518371644 136.70214319505283 C 893.1391755863184 136.70214319505283 895.3777518371644 138.94071944589885 895.3777518371644 141.70214319505283 Z" stroke-opacity="1" stroke-linecap="round" stroke-linejoin="round" stroke-miterlimit="10"/><path fill="rgb(0,0,128)" stroke="none" paint-order="stroke fill markers" d=" M 965.2689698693575 293.36472900898787 C 965.2689698693575 296.1261527581418 963.0303936185115 298.36472900898787 960.2689698693575 298.36472900898787 C 957.5075461202035 298.36472900898787 955.2689698693575 296.1261527581418 955.2689698693575 293.36472900898787 C 955.2689698693575 290.6033052598339 957.5075461202035 288.36472900898787 960.2689698693575 288.36472900898787 C 963.0303936185115 288.36472900898787 965.2689698693575 290.6033052598339 965.2689698693575 293.36472900898787 Z" fill-opacity="1"/><path fill="none" stroke="rgb(0,0,0)" paint-order="fill stroke markers" d=" M 965.2689698693575 293.36472900898787 C 965.2689698693575 296.1261527581418 963.0303936185115 298.36472900898787 960.2689698693575 298.36472900898787 C 957.5075461202035 298.36472900898787 955.2689698693575 296.1261527581418 955.2689698693575 293.36472900898787 C 955.2689698693575 290.6033052598339 957.5075461202035 288.36472900898787 960.2689698693575 288.36472900898787 C 963.0303936185115 288.36472900898787 965.2689698693575 290.6033052598339 965.2689698693575 293.36472900898787 Z" stroke-opacity="1" stroke-linecap="round" stroke-linejoin="round" stroke-miterlimit="10"/><path fill="rgb(0,0,128)" stroke="none" paint-order="stroke fill markers" d=" M 1035.1601879015798 341.30780892295314 C 1035.1601879015798 344.0692326721071 1032.9216116507337 346.30780892295314 1030.1601879015798 346.30780892295314 C 1027.3987641524259 346.30780892295314 1025.1601879015798 344.0692326721071 1025.1601879015798 341.30780892295314 C 1025.1601879015798 338.5463851737992 1027.3987641524259 336.30780892295314 1030.1601879015798 336.30780892295314 C 1032.9216116507337 336.30780892295314 1035.1601879015798 338.5463851737992 1035.1601879015798 341.30780892295314 Z" fill-opacity="1"/><path fill="none" stroke="rgb(0,0,0)" paint-order="fill stroke markers" d=" M 1035.1601879015798 341.30780892295314 C 1035.1601879015798 344.0692326721071 1032.9216116507337 346.30780892295314 1030.1601879015798 346.30780892295314 C 1027.3987641524259 346.30780892295314 1025.1601879015798 344.0692326721071 1025.1601879015798 341.30780892295314 C 1025.1601879015798 338.5463851737992 1027.3987641524259 336.30780892295314 1030.1601879015798 336.30780892295314 C 1032.9216116507337 336.30780892295314 1035.1601879015798 338.5463851737992 1035.1601879015798 341.30780892295314 Z" stroke-opacity="1" stroke-linecap="round" stroke-linejoin="round" stroke-miterlimit="10"/><path fill="rgb(0,0,128)" stroke="none" paint-order="stroke fill markers" d=" M 1105.051405933802 341.30780892295314 C 1105.051405933802 344.0692326721071 1102.812829682956 346.30780892295314 1100.051405933802 346.30780892295314 C 1097.2899821846481 346.30780892295314 1095.051405933802 344.0692326721071 1095.051405933802 341.30780892295314 C 1095.051405933802 338.5463851737992 1097.2899821846481 336.30780892295314 1100.051405933802 336.30780892295314 C 1102.812829682956 336.30780892295314 1105.051405933802 338.5463851737992 1105.051405933802 341.30780892295314 Z" fill-opacity="1"/><path fill="none" stroke="rgb(0,0,0)" paint-order="fill stroke markers" d=" M 1105.051405933802 341.30780892295314 C 1105.051405933802 344.0692326721071 1102.812829682956 346.30780892295314 1100.051405933802 346.30780892295314 C 1097.2899821846481 346.30780892295314 1095.051405933802 344.0692326721071 1095.051405933802 341.30780892295314 C 1095.051405933802 338.5463851737992 1097.2899821846481 336.30780892295314 1100.051405933802 336.30780892295314 C 1102.812829682956 336.30780892295314 1105.051405933802 338.5463851737992 1105.051405933802 341.30780892295314 Z" stroke-opacity="1" stroke-linecap="round" stroke-linejoin="round" stroke-miterlimit="10"/><path fill="rgb(0,0,128)" stroke="none" paint-order="stroke fill markers" d=" M 1174.9426239659952 410.3615809225828 C 1174.9426239659952 413.12300467173674 1172.704047715149 415.3615809225828 1169.9426239659952 415.3615809225828 C 1167.1812002168413 415.3615809225828 1164.9426239659952 413.12300467173674 1164.9426239659952 410.3615809225828 C 1164.9426239659952 407.60015717342884 1167.1812002168413 405.3615809225828 1169.9426239659952 405.3615809225828 C 1172.704047715149 405.3615809225828 1174.9426239659952 407.60015717342884 1174.9426239659952 410.3615809225828 Z" fill-opacity="1"/><path fill="none" stroke="rgb(0,0,0)" paint-order="fill stroke markers" d=" M 1174.9426239659952 410.3615809225828 C 1174.9426239659952 413.12300467173674 1172.704047715149 415.3615809225828 1169.9426239659952 415.3615809225828 C 1167.1812002168413 415.3615809225828 1164.9426239659952 413.12300467173674 1164.9426239659952 410.3615809225828 C 1164.9426239659952 407.60015717342884 1167.1812002168413 405.3615809225828 1169.9426239659952 405.3615809225828 C 1172.704047715149 405.3615809225828 1174.9426239659952 407.60015717342884 1174.9426239659952 410.3615809225828 Z" stroke-opacity="1" stroke-linecap="round" stroke-linejoin="round" stroke-miterlimit="10"/><path fill="rgb(0,0,128)" stroke="none" paint-order="stroke fill markers" d=" M 1244.8338419982174 425.5278395039809 C 1244.8338419982174 428.28926325313483 1242.5952657473713 430.5278395039809 1239.8338419982174 430.5278395039809 C 1237.0724182490635 430.5278395039809 1234.8338419982174 428.28926325313483 1234.8338419982174 425.5278395039809 C 1234.8338419982174 422.76641575482694 1237.0724182490635 420.5278395039809 1239.8338419982174 420.5278395039809 C 1242.5952657473713 420.5278395039809 1244.8338419982174 422.76641575482694 1244.8338419982174 425.5278395039809 Z" fill-opacity="1"/><path fill="none" stroke="rgb(0,0,0)" paint-order="fill stroke markers" d=" M 1244.8338419982174 425.5278395039809 C 1244.8338419982174 428.28926325313483 1242.5952657473713 430.5278395039809 1239.8338419982174 430.5278395039809 C 1237.0724182490635 430.5278395039809 1234.8338419982174 428.28926325313483 1234.8338419982174 425.5278395039809 C 1234.8338419982174 422.76641575482694 1237.0724182490635 420.5278395039809 1239.8338419982174 420.5278395039809 C 1242.5952657473713 420.5278395039809 1244.8338419982174 422.76641575482694 1244.8338419982174 425.5278395039809 Z" stroke-opacity="1" stroke-linecap="round" stroke-linejoin="round" stroke-miterlimit="10"/><path fill="rgb(0,0,128)" stroke="none" paint-order="stroke fill markers" d=" M 1314.7250600304396 427.69444787274716 C 1314.7250600304396 430.4558716219011 1312.4864837795935 432.69444787274716 1309.7250600304396 432.69444787274716 C 1306.9636362812857 432.69444787274716 1304.7250600304396 430.4558716219011 1304.7250600304396 427.69444787274716 C 1304.7250600304396 424.9330241235932 1306.9636362812857 422.69444787274716 1309.7250600304396 422.69444787274716 C 1312.4864837795935 422.69444787274716 1314.7250600304396 424.9330241235932 1314.7250600304396 427.69444787274716 Z" fill-opacity="1"/><path fill="none" stroke="rgb(0,0,0)" paint-order="fill stroke markers" d=" M 1314.7250600304396 427.69444787274716 C 1314.7250600304396 430.4558716219011 1312.4864837795935 432.69444787274716 1309.7250600304396 432.69444787274716 C 1306.9636362812857 432.69444787274716 1304.7250600304396 430.4558716219011 1304.7250600304396 427.69444787274716 C 1304.7250600304396 424.9330241235932 1306.9636362812857 422.69444787274716 1309.7250600304396 422.69444787274716 C 1312.4864837795935 422.69444787274716 1314.7250600304396 424.9330241235932 1314.7250600304396 427.69444787274716 Z" stroke-opacity="1" stroke-linecap="round" stroke-linejoin="round" stroke-miterlimit="10"/><path fill="rgb(0,0,128)" stroke="none" paint-order="stroke fill markers" d=" M 1384.6162780626328 403.86175581627265 C 1384.6162780626328 406.6231795654266 1382.3777018117867 408.86175581627265 1379.6162780626328 408.86175581627265 C 1376.8548543134789 408.86175581627265 1374.6162780626328 406.6231795654266 1374.6162780626328 403.86175581627265 C 1374.6162780626328 401.1003320671187 1376.8548543134789 398.86175581627265 1379.6162780626328 398.86175581627265 C 1382.3777018117867 398.86175581627265 1384.6162780626328 401.1003320671187 1384.6162780626328 403.86175581627265 Z" fill-opacity="1"/><path fill="none" stroke="rgb(0,0,0)" paint-order="fill stroke markers" d=" M 1384.6162780626328 403.86175581627265 C 1384.6162780626328 406.6231795654266 1382.3777018117867 408.86175581627265 1379.6162780626328 408.86175581627265 C 1376.8548543134789 408.86175581627265 1374.6162780626328 406.6231795654266 1374.6162780626328 403.86175581627265 C 1374.6162780626328 401.1003320671187 1376.8548543134789 398.86175581627265 1379.6162780626328 398.86175581627265 C 1382.3777018117867 398.86175581627265 1384.6162780626328 401.1003320671187 1384.6162780626328 403.86175581627265 Z" stroke-opacity="1" stroke-linecap="round" stroke-linejoin="round" stroke-miterlimit="10"/><text fill="rgb(0,0,128)" stroke="none" font-family="geogebra-sans-serif, sans-serif" font-size="22px" font-style="normal" font-weight="normal" text-decoration="normal" x="408" y="229" text-anchor="start" dominant-baseline="alphabetic" fill-opacity="1">Weighted average</text><text fill="rgb(128,0,0)" stroke="none" font-family="geogebra-sans-serif, sans-serif" font-size="22px" font-style="normal" font-weight="normal" text-decoration="normal" x="471" y="453" text-anchor="start" dominant-baseline="alphabetic" fill-opacity="1">California</text><text fill="rgb(128,128,128)" stroke="none" font-family="geogebra-sans-serif, sans-serif" font-size="22px" font-style="normal" font-weight="normal" text-decoration="normal" x="974" y="266" text-anchor="start" dominant-baseline="alphabetic" fill-opacity="1">want these differences to be small</text></g></g></svg>